<svg width="93" height="101" viewBox="0 0 93 101" fill="none" xmlns="http://www.w3.org/2000/svg">
<path d="M82.2711 80.9121C82.2711 80.9121 83.2279 78.9296 83.2279 78.8435C83.2279 78.3263 82.5192 77.1885 82.5192 76.4473C82.5192 74.189 84.2379 74.3269 85.6022 73.534C86.7008 72.9306 88.1714 71.1723 88.9333 70.431C89.1637 70.2069 89.0219 69.4139 89.2168 69.0519C90.8292 69.2415 90.6875 72.2411 91.1659 73.4305V74.1201C90.9355 74.0339 90.4571 73.896 90.3508 73.896C90.3508 77.2575 89.2523 79.5675 88.2246 82.205C87.3741 84.2909 86.9488 87.3766 84.043 87.3766C82.8558 87.3766 81.8104 86.0492 81.8104 84.8425C81.8104 84.2391 81.9522 84.015 81.899 83.6875C81.332 83.2738 81.332 82.5325 81.332 81.843C81.332 81.6533 82.1825 80.9121 82.2711 80.9121Z" fill="#D17A7A"/>
<path d="M52.8584 7.75128H53.9038C53.9038 8.40635 54.4354 8.54426 54.6125 8.82008C55.0378 9.37172 56.1363 9.0097 56.8805 9.28552C58.4043 9.83716 60.5306 10.5267 62.1961 10.5267C63.72 10.5267 64.1806 9.83716 65.6513 9.83716C66.5549 9.83716 67.0865 10.4405 68.1142 10.4405C68.8229 10.4405 68.8229 10.1992 69.4431 10.0613C69.7797 10.8887 70.3822 11.4921 70.3822 12.3712C70.3822 12.785 69.6203 14.4916 69.4431 15.0432C68.4508 14.9053 67.6358 12.8367 66.8384 12.0437V12.8367L71.3567 20.5941C71.1264 21.5594 72.5439 23.5936 73.2526 24.1452V26.5931C73.731 27.8343 74.6701 27.8343 75.3789 28.7652C76.2294 29.8685 75.7155 31.0752 76.566 31.9026C77.3279 32.6439 77.8418 32.6784 78.6923 33.2817C79.4542 33.8334 79.8617 35.7468 81.421 35.7468C81.421 36.5398 81.8639 36.6432 81.4032 37.1949C82.0234 37.6603 82.6435 39.1428 83.4409 39.1428C84.2028 39.1428 84.256 38.5395 84.8584 38.3499C85.5671 38.1085 86.0455 38.4361 86.7543 38.3499C88.5616 38.074 90.2626 37.3845 91.9813 36.9708C92.123 37.2466 92.3179 37.3845 92.3179 37.6603C92.3179 40.2978 90.1917 43.7111 89.0046 45.2798C87.5871 47.1243 86.9669 48.7965 85.2128 50.1239C82.0765 52.52 78.71 53.2613 77.5228 57.3641C77.1862 58.5191 75.9636 58.8466 75.9636 60.1395C75.9636 61.5703 76.3357 62.2082 76.3357 63.6045C76.3357 65.1732 78.0898 65.9489 78.0898 66.8281C78.0898 67.1039 77.8063 67.4315 77.7532 67.5177V68.6726C77.7532 69.4139 77.6114 70.2931 77.6114 71.586C77.8949 71.8618 78.0012 72.1376 78.0012 72.4996C78.0012 76.1025 71.7288 75.6888 71.215 78.7228C70.5594 78.809 69.7975 79.6019 69.7975 80.1191C69.7975 81.1362 71.1264 81.8257 71.1264 83.2048C71.1264 83.9461 71.0378 85.4631 70.7366 85.8768C70.4531 86.2388 69.6557 86.0664 69.3191 86.2043C68.1851 86.756 67.5118 87.2214 66.9448 88.3764C67.37 88.6005 67.6535 88.928 67.6535 89.3418C67.6535 90.6347 66.3246 91.6518 65.7576 92.2034C64.7122 93.2205 64.6059 94.272 63.8617 95.2029C62.6746 96.6854 62.1607 97.9783 60.2117 98.892C59.3966 99.254 58.2094 98.892 58.0677 99.7194C57.4475 99.7712 57.0754 100.047 56.6502 100.047C56.1363 100.047 55.8528 99.5815 55.3213 99.5815C53.3368 99.5815 52.1496 100.961 50.3423 100.961C49.5273 100.961 49.102 100.547 48.8185 100.03C48.535 100.081 48.4464 100.219 48.3401 100.254C48.3401 99.323 47.8617 98.3231 47.4896 97.9439C47.8617 97.5818 48.1098 97.2026 48.1098 96.7027C48.1098 95.9614 46.7809 94.5823 46.5505 94.1686C44.8318 91.3415 42.6524 88.635 42.6524 84.5667C42.6524 83.8254 42.6524 83.6875 42.6524 83.3255C42.6524 82.6704 42.0854 82.4463 41.7133 81.8085C40.3844 79.6364 38.9669 77.8781 38.9669 74.8786C38.9669 71.6549 41.9614 70.862 41.9614 68.4141C41.9614 67.2591 41.483 66.7936 41.3412 65.7766C41.0046 63.7941 40.6325 63.1046 40.1541 61.9496C39.782 61.0187 39.9592 59.9671 39.339 59.1742C38.0987 57.6572 35.4055 56.0367 35.4055 53.8646C35.4055 53.3647 36.1674 52.2097 36.504 52.0201C36.3091 51.6064 36.504 51.5202 36.504 51.3306C36.504 50.7789 36.504 49.3826 36.9824 49.0206C36.4686 48.0035 35.6004 47.0726 33.988 47.0726C33.1375 47.0726 32.411 47.0726 32.0035 47.0726C30.586 47.0726 30.2493 44.4006 28.3002 44.4006C25.9259 44.4006 24.1718 45.4694 22.3645 46.0211C21.6557 46.2452 21.4077 46.8485 20.6989 46.8485C19.9902 46.8485 18.803 46.159 17.8462 46.159C16.0035 46.159 15.1884 47.0899 13.3457 47.0899C12.7787 47.0899 12.1054 46.8658 11.9282 46.7106C10.5993 45.7453 7.85287 44.1765 6.8429 42.694C5.93925 41.3494 5.65574 40.2461 4.46859 39.3325C4.13193 39.1084 1.61588 36.9363 1.61588 36.7467C1.38553 36.4709 1.24378 36.3847 0.995723 36.1089H1.13748C1.13748 35.4193 0.889415 35.0401 0.889415 34.6263C0.889415 33.9885 0.51732 33.7471 0.180664 33.1093C1.22607 32.5922 2.16516 30.1098 2.16516 28.9548C2.16516 26.9207 1.22607 25.6278 1.22607 23.7832C1.22607 22.8523 2.32463 22.3007 2.55498 21.5594C3.17513 19.7666 4.59263 17.3187 5.72663 15.7845C6.38222 14.9053 7.62252 15.0088 8.47302 14.5433C9.18177 14.1296 10.3689 13.1987 10.617 12.4747C11.184 10.7681 10.4752 10.0268 11.4143 8.87179C12.6546 7.35479 14.267 5.92398 15.4542 4.49318H15.3656C15.7554 4.02773 15.844 3.61401 16.3224 3.252C17.5096 4.07945 18.7499 4.40698 20.3623 4.40698C21.3545 4.40698 21.5494 3.85535 22.1164 3.57953C23.9592 2.70036 27.4852 1.40746 29.6114 1.40746C30.267 1.40746 30.8872 1.87291 31.277 1.87291C31.7908 1.87291 32.5527 1.18336 33.2615 1.18336C33.8816 1.18336 34.1651 1.51089 34.679 1.51089C35.6358 1.51089 35.6713 0.82135 36.5749 0.82135C37.4786 0.82135 37.2305 1.6488 37.9924 1.6488C38.2759 1.6488 38.4176 1.4247 38.7011 1.37299C38.648 2.06253 37.9924 1.97634 37.9924 2.57969C37.9924 2.99342 38.6125 3.18305 38.6125 3.59677C38.6125 4.28632 37.9924 4.64832 37.9924 5.35511C37.9924 6.5101 39.2327 7.52718 40.1364 7.52718C40.7034 7.52718 41.0754 7.52718 41.4653 7.52718C44.5483 7.52718 45.6469 11.2162 49.1552 11.2162C49.5804 11.2162 50.112 10.7508 50.112 10.5267C50.112 10.1992 50.112 9.92335 50.112 9.59582C50.112 8.1133 51.246 8.11329 52.7166 7.66509L52.8584 7.75128Z" fill="#D17A7A"/>
</svg>
