<svg width="214" height="237" viewBox="0 0 214 237" fill="none" xmlns="http://www.w3.org/2000/svg">
<g filter="url(#filter0_d)">
<path d="M146.461 137.384V137.057C146.319 137.057 146.178 137.057 146.036 137.057C145.752 137.057 145.469 137.522 145.469 137.988C145.469 138.125 145.752 137.988 145.894 137.988C146.178 137.97 146.372 137.557 146.461 137.384Z" fill="#E5B38F"/>
<path d="M161.363 150.986C161.646 151.175 161.983 151.399 162.355 151.399C162.443 152.003 162.869 151.485 163.117 151.485C163.312 151.485 163.453 151.813 163.453 151.899C163.453 152.313 162.745 153.382 162.178 153.382C161.469 153.382 160.229 152.554 160.229 152.14C160.229 151.451 160.601 150.986 161.185 150.986C161.221 150.986 161.363 151.037 161.363 150.986Z" fill="#E5B38F"/>
<path d="M128.637 211.769C128.637 211.769 128.92 210.39 129.204 210.39C129.629 210.39 129.771 210.752 129.771 211.131C129.771 211.407 129.629 211.493 129.576 211.648V213.027H129.151C128.867 212.976 128.619 212.562 128.619 212.39C128.637 212.148 128.637 211.769 128.637 211.769Z" fill="#E5B38F"/>
<path d="M124.171 145.59C124.171 145.504 124.171 145.4 124.171 145.314C124.171 144.952 123.887 144.659 123.887 144.297C123.887 143.745 124.117 143.556 124.117 143.09C124.117 142.125 123.267 142.263 123.267 141.435C123.267 140.78 124.224 140.504 124.454 140.142C124.844 140.246 124.684 140.246 125.021 140.142C125.021 140.056 125.021 139.97 125.021 139.867C125.021 139.78 125.216 139.642 125.305 139.642C125.305 139.177 125.783 139.039 126.066 138.867C126.35 138.677 126.403 138.074 126.492 137.712C126.722 136.97 127.147 136.833 127.767 136.643C128.901 136.281 129.663 136.091 130.85 135.712C131.471 135.522 131.612 134.833 132.215 134.833C132.445 134.833 132.64 135.333 132.64 135.384C132.64 135.747 132.357 135.936 132.162 135.936C132.02 136.626 131.736 137.419 131.736 137.832C131.736 138.332 132.002 139.229 132.516 139.229C132.711 139.229 132.959 138.66 132.959 138.47C132.959 137.919 132.392 137.591 132.392 137.039C132.392 136.35 133.154 136.436 133.579 136.16H134.713C134.518 135.609 133.81 135.833 133.81 135.281L134.642 135.298C134.837 136.04 135.9 136.298 136.609 136.436C136.609 136.884 136.893 137.212 137.176 137.263C137.938 137.263 139.32 137.263 139.745 137.263C139.745 137.677 140.312 137.763 140.702 137.763C141.411 137.677 141.889 137.677 142.173 137.126C142.226 136.988 143.218 136.988 143.36 136.884C143.838 136.884 144.689 137.022 144.689 137.022C144.494 137.16 144.122 137.212 143.98 137.108V137.47C144.317 138.108 145.309 138.246 146.018 138.487C146.638 138.66 146.496 139.367 146.691 139.97H148.02C148.924 140.849 149.349 140.711 149.916 141.866C150.004 142.056 150.394 142.142 150.625 142.142C150.961 143.435 152.946 143.297 154.239 143.521H155.479C155.816 143.659 156.56 144.021 157.039 144.021V144.107C157.127 144.107 157.234 144.107 157.322 144.107C158.084 144.107 159.076 145.624 159.874 145.814C159.874 146.366 160.494 147.848 160.724 148.348C160.955 148.813 161.575 148.813 161.575 149.279C160.813 150.21 159.431 150.658 159.431 152.054C159.431 152.52 159.856 152.468 160.104 152.554C160.582 152.796 160.813 153.158 160.901 153.623H162.035C162.035 153.761 162.124 154.123 162.266 154.123C162.461 154.123 162.638 153.795 162.78 153.571C163.258 152.83 163.825 151.865 164.587 151.865C165.437 151.865 167.156 152.744 167.759 153.106C168.131 153.33 168.574 153.244 168.662 153.623C168.804 154.037 168.751 154.364 168.751 154.778H169.087C169.513 154.588 169.708 154.278 170.133 154.278C171.125 154.278 171.32 155.019 172.259 155.019L174.12 154.83C175.023 155.019 175.821 155.347 176.352 155.571C176.777 156.26 178.248 157.553 179.01 157.795C179.683 157.984 180.108 157.709 180.764 157.881C181.721 158.157 181.951 159.139 181.951 160.105C181.951 163.518 180.02 164.432 178.744 166.311C178.461 166.724 178.248 166.845 177.965 167.259C177.486 167.948 176.972 168.035 176.494 168.5C175.785 169.189 176.494 170.689 176.494 171.793C176.494 172.62 176.175 173.396 176.175 173.999C176.175 174.223 175.98 174.413 175.945 174.551C175.75 174.775 175.324 175.24 175.324 175.602C175.324 176.068 175.183 176.999 175.076 177.171C174.368 178.24 174.137 178.705 173.411 179.619C173.216 179.895 173.269 180.446 173.18 180.636C172.897 181.188 171.905 181.843 171.09 181.843C170.186 181.843 169.477 181.791 168.769 182.118C168.485 182.256 168.432 182.48 168.29 182.618C167.156 183.722 165.969 183.084 165.118 184.377C164.729 184.98 164.126 184.98 163.736 185.342C163.116 185.945 163.205 186.601 163.205 187.462V189.635C162.266 190.1 161.787 190.876 161.309 191.841V191.789C160.972 192.393 161.025 192.703 160.653 193.306C159.803 194.548 158.846 194.685 158.049 195.892C157.092 197.271 156.738 199.581 154.558 199.581C153.796 199.581 152.733 199.081 152.396 199.081C151.741 199.081 151.121 198.53 150.412 198.53C150.27 198.53 150.04 198.616 150.04 198.771C150.04 199.185 150.749 199.409 150.89 199.547C151.262 199.909 151.262 200.426 151.457 200.978C151.599 201.495 152.361 201.495 152.361 201.995C152.361 202.546 152.361 202.857 152.131 203.219C151.705 203.856 151.369 204.149 150.89 204.615C150.093 205.391 149.083 205.167 147.949 205.546C147.187 205.77 145.628 205.27 145.203 205.684C144.582 206.287 145.061 207.666 144.724 208.321V208.235C144.724 208.373 144.724 208.649 144.724 208.787C144.724 209.011 143.962 209.338 143.626 209.338C142.633 209.338 142.439 208.683 141.499 208.683C141.163 208.683 141.021 209.011 141.021 209.235C141.021 209.873 141.588 211.079 142.013 211.079C142.261 211.079 142.527 210.804 142.687 210.752C142.881 210.942 143.112 210.976 143.112 211.217C143.112 211.493 142.74 211.821 142.633 211.821C142.066 211.821 141.872 211.407 141.393 211.407C141.393 211.907 141.677 212.01 141.907 212.097C141.056 212.924 141.056 213.751 140.773 214.906C140.684 215.406 139.816 215.458 139.497 215.51C138.735 215.699 138.08 216.337 138.08 217.13C138.08 218.923 140.206 218.285 140.206 219.716C140.206 221.009 139.019 221.147 138.363 221.785C137.991 222.147 138.133 222.75 137.849 223.353C137.513 224.008 136.751 223.715 136.326 224.129C135.759 224.681 135.51 225.336 135.51 226.215C135.51 226.68 135.936 227.232 136.219 227.284C137.07 227.749 137.017 229.87 137.637 230.473C138.682 231.49 139.958 231.904 141.234 232.507C141.039 232.783 140.755 232.645 140.472 232.645C139.763 232.645 138.576 233.524 138.151 233.524C137.814 233.524 137.867 233.524 137.619 233.524C137.477 233.524 137.282 233.714 137.141 233.714C136.662 233.714 136.29 233.714 135.812 233.714C134.713 233.714 135.103 232.473 134.341 232.231C133.632 232.007 132.587 232.007 132.587 231.18C132.197 231.18 132.02 231.18 131.683 231.18C131.311 231.18 131.205 230.8 131.169 230.576C129.841 230.576 129.468 229.939 128.848 229.335C128.707 229.197 128.423 228.973 128.423 228.87C128.423 228.456 129.274 228.49 129.327 228.077C129.185 228.025 129.079 227.939 128.955 227.853C129.096 227.629 129.291 227.335 129.291 227.06C129.291 225.956 128.015 226.129 128.015 225.163C128.015 224.836 128.015 224.698 128.015 224.526C128.015 223.509 127.307 221.888 127.307 221.112C127.307 220.285 128.405 219.957 128.405 219.216C128.405 218.854 127.838 218.113 127.75 217.596V217.13H127.803C127.803 216.854 127.998 216.613 128.228 216.613C129.079 216.613 128.742 217.44 129.468 217.44L131.028 210.614V209.924C130.886 209.924 130.744 209.873 130.602 209.924C130.266 210.062 130.23 210.442 129.894 210.442C129.522 210.442 129.22 209.373 129.22 208.873C129.22 207.994 129.557 207.614 129.699 206.787C130.035 206.787 130.177 206.649 130.177 206.511C130.177 206.235 129.894 206.011 129.894 206.011C129.699 206.011 129.663 204.718 129.663 204.391C129.663 203.339 130.319 202.27 130.762 201.615C130.957 201.288 131.045 200.65 131.276 200.322C131.417 200.15 131.666 200.185 131.701 199.995C132.038 198.926 132.038 198.15 132.321 197.047L132.268 193.582C131.984 192.755 132.498 192.1 132.498 191.358C132.498 189.6 133.597 188.445 133.597 186.876C133.597 186.738 133.597 186.601 133.597 186.463C133.597 186.135 133.827 185.308 133.934 184.842C133.934 183.411 133.934 183.411 133.934 182.808C133.934 182.153 134.359 180.912 134.359 180.171C134.359 179.705 134.128 176.981 133.987 176.481C133.561 175.378 132.8 174.689 131.949 174.258C131.24 173.93 130.709 174.034 130.195 173.516C129.628 172.965 129.344 172.775 128.671 172.586C127.342 172.172 126.687 171.517 125.818 170.689C125.429 170.327 125.623 169.81 125.623 169.258C125.623 168.517 124.915 168.155 124.72 167.5C124.348 166.397 123.391 165.552 123.054 164.552C122.718 163.501 122.434 162.897 122.009 162.018C121.867 161.742 121.53 161.829 121.389 161.691C121.052 161.363 120.963 160.725 120.822 160.398C120.68 160.122 120.29 160.208 120.113 160.019C119.599 159.519 118.926 158.588 118.926 157.76C118.926 157.209 119.262 156.554 119.457 156.381C119.883 155.692 120.733 155.502 120.928 154.761C120.503 154.485 120.556 154.709 120.219 154.709C119.546 154.709 119.457 153.778 119.457 153.14C119.457 152.089 120.662 152.261 120.45 150.227C121.725 150.227 122.062 148.986 122.452 148.245C122.983 147.227 124.206 147.555 124.489 146.314C124.259 146.228 124.011 145.986 124.011 145.848L124.206 145.486V145.59H124.171Z" fill="#E5B38F"/>
</g>
<g filter="url(#filter1_d)">
<path d="M210.089 49.8636C209.717 50.5187 208.565 51.3461 207.963 51.5185C206.829 51.8805 205.925 52.6735 204.313 52.6735C202.558 52.6735 201.318 52.2598 200.042 51.8461C199.369 51.6564 198.997 51.0186 197.952 51.0186C198.093 50.9324 198.235 50.7945 198.377 50.7945C198.377 50.1911 198.519 49.9153 198.607 49.4154C197.845 49.2258 197.048 49.6912 196.569 49.2258C197.278 49.2258 198.519 49.0017 199.032 48.8121C198.891 48.7259 198.837 48.5879 198.837 48.4328C198.27 48.4328 196.516 47.9156 196.428 47.4157C196.853 47.2778 197.101 47.364 197.367 47.5019C197.367 47.364 197.367 47.2778 197.367 47.1399C197.739 47.1399 197.845 46.6227 198.217 46.6227C198.359 46.6227 198.448 46.6227 198.589 46.6227C198.643 46.8986 198.82 47.0365 198.873 47.3123C198.82 47.6398 199.245 48.2432 199.582 48.2432C199.918 48.2432 200.202 48.0018 200.432 47.9674C200.344 47.6398 200.29 47.5536 200.432 47.364C200.627 47.5536 200.769 47.7777 201.052 47.7777L202.186 47.5019C202.558 47.5881 202.665 47.7433 202.842 47.8294C202.789 47.6915 202.842 47.5019 202.842 47.364C203.551 47.364 203.94 47.5019 204.366 47.5019C204.986 47.5019 205.553 46.9503 205.978 47.364C205.978 47.002 206.067 46.8641 206.173 46.6745C206.51 46.7607 206.51 46.8124 206.687 46.6745C206.687 47.2261 207.077 47.2778 207.537 47.2778C207.963 47.2778 208.246 47.0365 208.671 47.0365C208.53 47.1399 208.388 47.3123 208.388 47.4502C208.388 48.7948 210.142 48.4673 210.142 49.7602L210.089 49.8636Z" fill="#E5B38F"/>
<path d="M128.246 124.214C127.909 124.765 127.005 124.765 126.438 124.765C125.34 124.765 124.596 124.438 123.692 124.438C123.692 124.352 123.692 124.248 123.692 124.162C123.922 124.162 124.117 123.973 124.17 123.748C123.462 123.421 122.7 123.473 122.558 122.783C122.168 122.783 122.221 122.456 122.026 122.369C121.654 122.18 121.406 122.318 121.034 122.318C120.361 122.318 120.042 121.628 119.369 121.628H117.987C117.703 121.438 117.756 121.266 117.898 121.128C117.703 120.939 117.473 120.99 117.225 120.99C116.321 120.99 115.045 121.645 114.567 122.094H114.142C114.904 120.852 115.896 120.059 118.04 120.059C120.131 120.059 121.123 121.214 122.682 121.214C123.019 121.214 123.391 121.68 123.497 121.766C124.17 122.421 125.34 122.921 126.438 122.921C126.438 123.024 126.385 123.162 126.438 123.249L127.147 123.3C127.679 123.438 127.927 124.076 128.246 124.214Z" fill="#E5B38F"/>
<path d="M116.764 121.869C116.817 122.111 116.853 122.335 116.764 122.559C116.711 122.559 116.091 122.645 116.091 122.559C116.091 122.231 116.374 122.145 116.516 122.145V121.818H116.605L116.764 121.869Z" fill="#E5B38F"/>
<path d="M125.075 126.765C125.358 126.851 125.464 126.989 125.5 127.179C124.933 127.265 124.508 127.455 123.941 127.455C123.569 127.455 123.179 127.144 123.179 126.765C123.179 126.576 123.462 126.489 123.657 126.489C124.224 126.489 124.897 126.765 125.181 126.869L125.075 126.765Z" fill="#E5B38F"/>
<path d="M140.064 126.903C139.923 127.179 139.586 127.179 139.302 127.179C138.735 127.179 138.115 127.144 138.115 126.679C138.115 126.438 138.487 126.403 138.629 126.403C138.789 126.386 139.923 126.627 140.064 126.903Z" fill="#E5B38F"/>
<path d="M135.139 125.61C135.617 125.989 136.096 126.162 136.415 126.627H134.661C134.324 126.817 134.129 126.989 133.81 126.989C133.527 126.989 133.58 126.765 133.332 126.765C132.711 126.765 132.765 127.593 132.233 127.593C131.808 127.593 131.896 127.127 131.666 126.989C131.241 126.713 130.107 126.851 129.522 126.851C129.185 126.851 129.185 126.989 128.955 126.851C128.955 126.989 128.902 127.075 128.902 127.213C128.618 127.162 128.335 126.748 128.335 126.472C128.424 126.472 128.53 126.334 128.565 126.282C129.664 126.282 130.125 126.524 130.709 126.248C130.426 125.972 130.373 125.645 130.373 125.283C130.089 125.283 129.752 125.041 129.752 124.765C129.752 124.628 129.983 124.438 130.125 124.438C130.55 124.438 130.833 124.765 131.259 124.765C131.879 124.765 132.162 124.576 132.676 124.576C134.182 124.576 134.483 125.369 135.334 125.783L135.139 125.61Z" fill="#E5B38F"/>
<path d="M122.948 117.525C123.32 117.577 123.462 117.853 123.462 118.163C123.462 118.249 123.32 118.387 123.231 118.387C122.753 118.387 122.753 117.887 122.753 117.508C122.753 117.491 122.895 117.525 122.948 117.525Z" fill="#E5B38F"/>
<path d="M122.026 115.267C122.133 115.077 122.452 114.888 122.7 114.888C123.036 114.888 123.178 115.112 123.267 115.267C122.788 115.319 122.328 115.267 122.026 115.267Z" fill="#E5B38F"/>
<path d="M124.419 115.819C124.277 115.87 124.135 115.595 124.188 115.457L124.419 115.819Z" fill="#E5B38F"/>
<path d="M128.955 122.783C128.955 122.869 128.955 122.973 128.955 123.059C128.955 123.111 129.097 123.059 129.15 123.059C129.38 123.059 129.717 122.973 129.912 122.783V122.369C129.717 122.645 129.345 122.886 128.955 122.783Z" fill="#E5B38F"/>
<path d="M48.7427 68.7399C47.9808 68.602 48.2643 68.3606 47.6973 68.7399C47.6973 67.6366 47.9276 67.6366 48.9376 67.809C48.7958 69.0502 50.0716 69.1881 50.0716 70.2052C50.0716 70.5327 49.9298 70.6707 49.6818 70.6707C49.2565 70.6707 48.7249 69.7053 48.7249 69.6536C48.7427 69.3433 48.6009 68.964 48.7427 68.7399Z" fill="#E5B38F"/>
<path d="M45.8011 66.0679C45.8011 66.2058 46.191 66.1196 46.2795 66.0679C46.191 66.723 46.6516 67.3608 46.191 67.8262C45.624 67.2746 45.4291 66.723 45.4291 65.9817C44.7203 65.8955 44.1533 65.2922 44.1533 64.6026C44.1533 64.2406 44.5254 64.1372 44.7203 64.1372C45.5708 64.1372 45.1456 64.4992 45.8189 64.1372C45.8011 65.3267 45.5531 65.3267 45.8011 66.0679Z" fill="#E5B38F"/>
<path d="M90.1505 39.5204C89.7785 39.5204 89.5304 39.6583 89.5304 39.9858C89.5304 40.3478 90.0442 40.3478 90.2391 40.3478C90.2923 40.7099 90.5226 40.8478 90.7175 40.9857C90.2923 41.8648 89.1937 41.8131 88.0066 41.8131C86.1638 41.8131 85.4905 40.434 84.1085 40.434C83.258 40.434 83.5946 40.9512 82.8682 41.2615C81.6456 41.8648 80.4584 41.4856 79.4484 42.1924C77.3222 42.1924 76.4717 42.1924 75.1782 42.1924C74.3632 42.1924 74.8947 41.4511 74.3277 41.0374C73.8139 40.6754 72.3787 40.8133 71.7231 40.8133C70.6777 40.8133 69.8272 39.7445 69.4905 39.1929C70.6245 38.3654 72.0952 38.1241 74.0974 38.1241C74.8061 38.1241 75.0896 38.0723 75.6566 38.0379C75.32 37.8482 74.9479 37.5724 74.4695 37.5724C73.5658 37.5724 72.4318 37.5724 71.9534 37.5724C70.908 37.5724 68.3034 38.0379 68.3034 36.745C68.3034 35.7279 69.6854 36.0899 70.1993 35.7796C69.4374 35.59 69.1539 35.7279 68.5337 35.7279C68.0199 35.7279 67.1162 35.0383 67.1162 34.8142C67.1162 32.556 71.4396 30.8838 73.1406 30.8838C73.8139 30.8838 73.7607 32.2284 73.9556 32.5043C74.3277 32.2802 74.6644 31.6768 75.4263 31.6768C76.7552 31.6768 77.2336 32.2284 77.5703 33.0559C78.0841 32.9697 78.4739 32.8663 78.9878 32.7284C78.9346 32.3146 78.846 32.1767 78.7574 31.9009H79.8028C80.4761 32.0905 81.1317 32.6939 81.3621 33.1938C81.6456 33.7454 81.3089 34.9004 82.1594 34.9004C82.5315 34.9004 82.5315 34.7108 82.7796 34.5384C82.4075 33.9351 81.681 31.763 81.681 31.3493C81.681 30.97 82.1594 30.7459 82.5315 30.7459C83.382 30.7459 83.0985 31.1079 83.8604 30.7459C83.8072 30.608 83.8072 30.4184 83.8072 30.2805C83.8072 29.815 84.4806 29.5047 85.2247 29.5047C86.0752 29.5047 86.8903 29.8323 86.8903 30.5218C86.8903 31.2114 85.8449 31.6251 85.8449 32.0388C85.8449 33.6937 87.1206 34.7625 87.1206 35.9692C87.1206 37.4517 91.1074 38.4688 92.011 39.1584C91.196 39.71 91.0188 39.5204 90.1505 39.5204Z" fill="#E5B38F"/>
<path d="M60.9857 35.9692C60.7553 35.9692 60.4187 35.2797 60.2769 35.0384C59.9048 34.5384 57.9912 34.6763 57.9912 34.1075C57.9912 32.5387 60.3655 31.2459 60.3655 29.5909C60.3655 29.2289 59.7099 28.4877 59.6568 27.9705C60.8439 27.5051 61.3578 27.9705 62.5095 27.9705C63.0765 27.9705 63.5549 27.4189 64.4054 27.643C65.4508 27.9188 65.9292 28.4704 66.9569 28.5739C67.3821 28.9876 67.9491 28.436 68.5693 28.436C69.5615 28.436 71.8827 29.3668 71.8827 30.4184C71.8827 30.9183 69.3666 31.2976 68.9059 31.4355C67.4353 31.9009 65.3445 33.8316 65.3445 34.9004C65.3445 35.2625 62.0665 36.4174 61.6944 36.4174C61.3578 36.4347 61.216 35.9692 60.9857 35.9692Z" fill="#E5B38F"/>
<path d="M74.7356 27.9877C74.1686 27.9877 73.4067 27.574 73.4067 27.2982C73.4067 26.6086 74.1154 26.7465 74.7356 26.7465C74.4521 26.3845 74.0268 26.1432 73.9382 25.6777C73.6547 25.7295 73.4067 26.0053 73.4067 26.2811C72.6093 26.3673 71.9892 26.6086 71.4222 26.6086C70.802 26.6086 70.0933 26.2811 69.7566 26.2811C69.3845 26.2811 69.0479 25.9536 69.0479 25.5916C69.0479 25.1261 69.2428 25.2295 69.0479 24.902C69.5263 24.7986 69.7566 24.4366 70.235 24.4366C71.1918 24.4366 71.6525 24.8503 72.379 24.902C71.5639 24.7986 70.8552 24.5228 70.235 24.2987V23.6091C70.6071 23.5574 71.0501 23.6091 71.0501 23.6091C71.245 23.6091 72.7156 23.8849 73.1763 23.9366C72.2727 23.747 71.4753 23.8505 70.802 23.4195C70.9969 23.1437 71.369 22.9023 71.7588 22.9023C72.379 22.9023 72.5207 23.092 72.946 23.0402C72.379 23.092 71.5285 22.9885 71.5285 22.4369C72.379 22.299 72.6625 22.4369 73.0877 22.4369C73.2826 22.4369 73.8496 22.5748 73.9028 23.1264C74.4698 23.1264 74.895 23.1264 74.9836 23.1264C76.4011 23.1264 77.4111 24.8848 79.4842 24.8848C80.1043 24.8848 80.3347 24.6951 80.5296 24.2814C80.0157 24.2814 79.7677 24.2297 79.5905 24.1435C79.6436 24.0573 79.9271 23.9539 80.0689 23.9539V23.3505C79.7322 23.2988 78.8817 23.0747 78.8817 22.661C78.8817 21.9197 80.122 21.5577 80.5827 21.1785C80.8662 21.3681 81.1497 21.506 81.4864 21.506C81.4332 21.868 81.4864 22.0059 81.4864 22.1094C81.4864 22.7989 82.39 23.816 83.2937 23.816C83.7189 23.816 83.967 23.2643 84.5694 23.2643C85.1364 23.2643 85.668 23.8677 85.668 24.4193C85.668 25.0572 84.534 26.4535 84.1087 26.5914C83.8253 26.6776 81.0257 26.3673 81.0257 26.5052C81.0257 26.5914 77.9958 27.2465 77.854 27.2982C76.8795 27.6602 75.9227 27.9877 74.7356 27.9877Z" fill="#E5B38F"/>
<path d="M67.4889 25.2123C67.1168 25.2123 66.6738 24.9882 66.6738 24.6607C66.6738 23.9194 68.428 23.5574 68.9064 23.5919C68.8001 24.247 68.0913 25.2123 67.4889 25.2123Z" fill="#E5B38F"/>
<path d="M73.3184 21.9025C73.0881 21.9025 72.6982 21.7129 72.6982 21.2991H74.3638V21.9025C74.1689 21.9025 73.3184 21.9025 73.3184 21.9025Z" fill="#E5B38F"/>
<path d="M71.422 20.0063C71.422 20.3338 71.1385 20.6441 70.8019 20.7475C70.855 21.213 71.174 21.2992 71.174 21.6612L69.1363 23.1437C68.3212 23.1437 68.3744 22.0749 67.9492 21.8508C67.8606 22.6438 67.1341 23.3678 66.3367 23.2816C66.2304 23.7815 65.8584 24.2987 65.3445 24.2987C64.9547 24.2987 64.6358 23.7815 64.5472 23.6091C63.9802 23.885 63.6967 23.6091 63.2183 23.6091C62.9348 23.6091 62.793 23.9367 62.4032 23.9712C62.3146 23.6436 61.9248 23.4195 61.9248 23.2816C61.9248 23.1954 62.7753 22.5403 62.9702 22.4542C63.7321 22.0921 64.4409 21.9887 65.2559 21.5405C66.1596 21.0233 66.3899 19.8339 67.7188 19.8339C68.0909 19.8339 68.1441 19.8856 68.5693 19.9373C68.5693 19.9201 71.422 19.1788 71.422 20.0063Z" fill="#E5B38F"/>
<path d="M76.7201 17.5066C76.1531 17.5066 76.0114 17.1446 75.533 17.1446C75.1609 17.1446 74.966 17.4722 74.5762 17.5066C74.5762 16.9033 77.4289 15.8862 78.0313 15.8862C79.0236 15.8862 79.8386 16.4378 80.0158 17.0412C79.6437 17.2308 79.3071 17.5066 78.7401 17.5066C77.4998 17.5066 77.7833 17.5066 76.7201 17.5066Z" fill="#E5B38F"/>
<path d="M78.7752 18.7478C78.8638 19.7132 77.3046 20.1269 76.2592 20.1269C75.5504 20.1269 74.7354 19.2995 74.7354 18.8857C74.7354 17.8169 77.6235 17.7307 78.6335 17.7307C79.165 17.7307 79.3422 18.0066 79.484 18.1962C78.9701 18.6099 78.1551 18.7478 77.4463 18.7478H78.7752Z" fill="#E5B38F"/>
<path d="M74.0803 18.6617C73.8854 18.9375 73.7437 19.2133 73.407 19.2133C72.9818 19.2133 72.4502 18.7479 72.4502 18.5238C72.4679 17.3688 73.7968 18.5238 74.0803 18.6617Z" fill="#E5B38F"/>
<path d="M97.1316 31.8147C97.1316 32.4526 96.9898 32.0388 96.9898 32.5043C97.1847 32.556 97.7872 32.6422 98.0884 32.7284C97.858 35.2452 97.7163 34.5729 96.1925 35.1245C95.7672 35.2625 95.6786 35.8141 95.2534 35.8141C94.5978 35.8141 94.4915 35.3142 94.208 35.0211C92.8791 33.7282 91.4084 33.9178 90.0264 32.5732V31.7975C90.6465 31.7975 91.3553 32.3491 92.1703 32.3491C92.6487 32.3491 92.507 32.3491 92.8791 32.3491V31.1079C92.2589 31.0217 91.3553 31.1079 91.3553 30.5046C91.3553 30.3667 91.6388 30.2805 91.6919 30.1426C92.4538 29.4013 93.4992 29.5909 94.5446 29.5909C95.3951 29.5909 96.4405 29.5909 96.4405 29.5909C96.5823 29.5909 96.919 29.815 96.919 30.0564C96.919 30.97 95.7318 31.3493 95.3951 31.763C95.7495 31.7285 97.1316 31.3148 97.1316 31.8147Z" fill="#E5B38F"/>
<path d="M87.5458 22.9023C87.3686 22.6782 87.0674 22.4369 87.0674 21.9714C87.2623 21.9714 87.4395 21.9714 87.6344 21.9714C89.0164 21.9714 89.7252 24.3331 91.1958 23.9194C90.8238 23.6953 90.4339 23.3678 90.239 23.1437V22.592C91.2844 22.592 91.6565 23.6091 92.8437 23.6091V22.592C92.0286 22.592 91.373 22.592 91.1781 21.937C91.5148 21.7991 91.7097 21.8852 92.0286 21.8852C92.7905 21.8852 93.2689 22.3507 94.1726 22.3507C94.5447 22.3507 94.7396 21.9714 95.1117 21.9714C95.9622 21.9714 96.0685 22.4369 96.0685 23.1264C96.0685 24.178 95.5015 24.7469 95.6964 26.0225C94.9877 26.2639 93.9422 26.2639 93.8005 26.2639C93.517 26.2639 92.2767 26.4535 92.2767 26.0225C92.2767 25.8329 92.4184 25.6605 92.6133 25.5571C92.5602 25.4192 92.5602 25.2296 92.6133 25.0916C92.6133 24.6779 93.517 24.6779 93.8005 24.4021C93.6587 24.3159 93.4284 24.2642 93.2335 24.2642C92.383 24.2642 90.7174 24.7296 89.7784 24.7296C89.4417 24.7296 89.2114 24.4538 89.2114 24.178H88.5026L88.3608 23.7126C87.8824 23.8505 87.5458 23.5229 87.1737 23.2471V22.4196L87.5458 22.9023Z" fill="#E5B38F"/>
<path d="M98.0884 42.5199C97.4683 42.5199 93.96 41.2787 93.96 41.1408C93.96 40.7788 94.8105 40.9512 95.0054 40.9167C95.5724 40.7271 95.3775 39.4342 96.3343 39.4342C97.043 39.4342 98.9921 41.1408 99.2756 41.7959C98.7972 42.0717 98.6023 42.5199 98.0884 42.5199Z" fill="#E5B38F"/>
<path d="M106.044 29.7461C106.044 29.8323 105.194 30.4357 105.194 30.4357C104.573 31.2631 103.918 32.2802 102.483 32.2802C101.437 32.2802 101.437 31.6768 101.154 32.6077H101.774C101.632 33.4352 101.26 33.5731 100.675 34.1247H99.7185C99.7185 33.5214 99.7185 32.9697 99.7717 32.7456C99.0098 32.0044 99.3464 31.4527 99.0098 30.5218V29.7289C99.3819 29.7289 99.9134 29.7289 100.091 29.7289C100.002 29.6772 100.091 29.4013 100.091 29.2634C100.091 29.2117 100.374 28.5739 101.366 28.5739C102.979 28.5739 104.308 29.1255 106.026 29.1255C106.009 29.3669 106.044 29.5048 106.044 29.7461Z" fill="#E5B38F"/>
<path d="M87.1209 20.058C87.0678 20.3855 86.7843 20.6096 86.4653 20.6096C85.9338 20.6096 84.7998 19.3684 84.7998 18.7651C86.0224 18.7478 86.1287 19.7304 87.1209 20.058Z" fill="#E5B38F"/>
<path d="M87.5457 24.9882C87.6343 25.2123 87.8823 25.3502 87.8823 25.6778C87.8823 26.2294 87.4571 26.2811 87.1736 26.2811C86.6952 26.2811 86.6066 26.1949 86.2168 26.2294C86.4117 25.4537 86.8901 25.2123 87.5457 24.9882Z" fill="#E5B38F"/>
<path d="M91.1962 17.5066C90.3457 17.5066 89.8142 17.2308 88.9637 17.317C88.7333 16.9033 88.1132 17.1274 87.4044 17.1274C86.7311 17.1274 86.5539 17.1791 86.1287 16.7654C86.5539 16.3517 86.9792 16.3861 87.5462 16.2137C87.4576 16.0758 87.4576 15.8 87.5462 15.6621C86.5008 15.6621 86.2704 15.9379 85.8806 15.6621C86.0224 15.5759 86.1641 15.3863 86.2173 15.1967C85.5617 15.1967 85.4199 15.0588 85.4199 14.5071C85.9869 14.4209 86.359 14.1451 86.9437 14.1451C87.936 14.1451 88.184 14.9726 88.751 14.9726C89.1231 14.9726 89.318 14.6106 89.6901 14.6106C90.6469 14.6106 90.5938 15.6794 91.1076 15.6794C91.3911 15.6794 91.5329 15.3173 91.8164 15.3173C92.472 15.3173 93.0035 16.1448 93.2339 16.3861C93.1453 16.524 92.9504 16.7137 92.8618 16.8516C93.2339 17.2136 94.1907 17.5928 94.1907 18.0928C94.1907 18.5582 93.7123 18.6961 93.3402 18.6961C92.1885 18.6616 92.2948 17.5066 91.1962 17.5066Z" fill="#E5B38F"/>
<path d="M89.7254 18.7478C88.8749 18.7478 89.9557 18.0583 90.1506 18.0583C90.6822 18.0583 90.8239 18.2824 91.2492 18.4203C91.0188 18.7478 90.4341 18.7478 89.7254 18.7478Z" fill="#E5B38F"/>
<path d="M120.609 25.4537C120.414 25.5916 120.237 25.7812 120.131 26.1087C120.467 26.1949 120.751 26.1604 120.751 26.1604C120.609 27.7809 118.483 27.7809 116.817 27.7809C116.197 27.7809 115.967 27.4016 115.878 27.0913C115.223 27.1775 115.116 27.4189 114.691 27.6947H110.899C109.907 27.9188 108.436 27.7809 108.525 27.0051H107.958C107.763 27.2465 107.054 27.7981 106.629 27.7981C105.584 27.7981 103.209 26.6431 103.209 25.7122C103.209 25.3847 103.581 25.0744 103.776 24.971C102.926 24.1435 102.678 23.4023 101.88 22.6093C101.597 22.8851 101.313 23.0747 100.924 23.0747C100.41 23.0747 97.5039 21.868 97.5039 21.4543C97.5039 20.7647 98.3544 20.7647 98.9214 20.7647C101.048 20.7647 101.437 22.3852 103.05 22.3852C103.528 22.3852 103.812 22.299 104.007 22.0059C104.343 22.0059 104.857 22.0059 104.857 22.0059C104.485 23.0747 106.664 22.7989 107.09 23.385H105.194C105.477 24.6262 106.664 23.9367 107.32 24.4538C107.231 24.54 106.983 24.54 106.983 24.6779C106.983 25.333 107.55 25.0399 107.745 24.9193C108.879 25.1951 109.836 25.4709 111.023 25.4709C113.628 25.4709 114.478 24.3159 116.959 24.3159C118.855 24.3159 120.095 24.4021 120.751 25.6088C120.662 25.6605 120.414 25.695 120.272 25.695L120.609 25.4537Z" fill="#E5B38F"/>
<path d="M98.4611 25.5915C98.975 25.5915 98.7978 24.54 99.8786 24.54C100.729 24.54 101.863 25.4709 101.863 26.057C101.863 26.85 101.58 27.5395 100.906 27.5395C100.57 27.5395 97.8232 26.2983 97.8232 26.2983C97.841 25.8156 98.3725 25.5915 98.4611 25.5915Z" fill="#E5B38F"/>
<path d="M101.402 18.7478C101.934 18.7478 101.544 18.834 102.023 18.7478C102.023 19.0754 102.023 19.2477 102.023 19.3512C102.023 19.5753 101.739 19.8166 101.314 19.8166C101.083 19.8166 98.3193 19.3167 98.3193 19.3167C98.7977 18.8513 100.499 18.7478 101.402 18.7478Z" fill="#E5B38F"/>
<path d="M96.5652 18.1962C96.5652 17.9721 96.9019 17.7825 97.0436 17.7308C96.4766 17.1791 95.4844 16.9033 95.4844 15.9724C95.4844 15.507 96.1045 15.3346 96.5829 15.2829C96.7247 15.6449 97.7169 15.9724 98.2485 15.9724C98.2485 17.0757 99.9141 16.0586 99.9141 17.0412C99.9141 17.3687 99.7723 17.6963 99.9141 18.1962C98.2308 18.5754 96.5652 18.7478 96.5652 18.1962Z" fill="#E5B38F"/>
<path d="M95.4663 12.1971V13.128H94.6513C94.3855 12.8522 93.8008 12.7488 93.8008 12.1971C94.4209 12.1627 95.1297 12.1971 95.4663 12.1971Z" fill="#E5B38F"/>
<path d="M108.418 11.9731H108.985V11.3697L108.755 11.0422C108.896 11.0422 109.091 11.0422 109.233 11.0422C109.889 11.0422 109.853 11.2835 109.853 11.8352C109.853 12.1627 110.42 12.1972 110.42 12.5247C110.42 12.8522 110.084 12.9384 110.084 13.2142C110.084 13.628 110.792 13.2142 110.899 13.2142C111.377 13.2142 112.6 13.7659 113.22 13.8176C113.22 14.1451 113.326 14.3175 113.167 14.5071C112.972 14.783 112.458 14.6968 112.068 14.7312C111.129 14.8174 110.456 16.2138 109.836 16.2138C109.215 16.2138 109.215 15.8 109.074 15.2829C108.843 15.507 108.737 15.7483 108.507 15.9724C108.79 16.4379 108.985 16.5241 109.127 16.9033H108.276V17.5067C107.851 17.5584 107.001 16.955 106.558 16.6792C106.558 17.5067 106.132 17.748 105.424 17.748C104.662 17.748 103.616 17.5584 103.528 16.9206C103.864 16.8688 104.006 16.7482 104.148 16.593C103.333 16.593 102.004 16.1276 102.004 15.438C102.004 14.5589 104.945 14.6451 105.601 14.5244C104.892 14.3348 104.36 14.1624 103.652 14.1624C102.943 14.1624 102.801 14.5244 102.234 14.5244C101.756 14.5244 101.72 14.1968 101.579 13.921C101.1 14.1107 100.958 14.283 100.586 14.283C100.25 14.283 100.214 14.0934 100.214 13.8176C100.693 13.628 101.029 13.5935 101.313 13.2142C99.7004 13.2142 98.7082 13.0763 98.5664 11.7317H99.2752C99.5055 11.9213 100.267 12.1972 100.693 12.1972C100.888 12.1972 101.118 11.8352 101.118 11.8352C100.498 11.6455 99.0271 11.318 99.0271 10.8181C99.0271 10.3009 99.6827 10.3526 100.108 10.3526C100.781 10.3526 101.012 10.6802 101.384 10.6802C101.667 10.6802 101.773 10.3526 101.915 10.2147C101.437 9.9389 100.87 10.2147 100.586 10.2147C100.391 10.2147 99.9662 9.52517 99.9662 9.47345C100.533 9.14592 100.905 8.8701 101.773 9.05973H102.571C102.004 8.78391 101.189 8.73219 101.153 8.09436C102.34 8.18055 103.297 8.28399 104.148 8.59428C105.105 8.97353 104.91 10.3009 105.672 10.5767C106.38 10.8525 106.859 10.3871 107.568 10.6629C108.276 10.956 107.993 11.5593 108.418 11.9731Z" fill="#E5B38F"/>
<path d="M111.13 52.3632C111.36 52.1736 111.608 52.0357 111.608 51.7598C111.608 51.3461 111.608 51.484 111.608 51.0703C111.608 50.2773 111.838 48.4328 113.167 48.2949C113.398 48.9844 113.646 49.1223 113.876 49.5878C114.018 49.3981 114.16 49.3119 114.301 49.2085C115.294 50.4152 116.817 49.9498 117.668 51.0531C117.898 51.3806 117.756 51.6909 118.005 51.8805C118.766 52.4322 119.617 52.2081 120.042 52.7597C119.511 53.0872 119.085 53.2596 118.483 53.2596C117.916 53.2596 117.668 53.2596 117.207 53.2596C117.207 53.2596 115.683 52.1908 115.4 52.1046C115.4 53.1217 113.841 54.0871 113.167 53.8113C113.026 54.0354 113.026 54.1733 112.795 54.1733C112.228 54.1733 112.37 53.7078 112.459 53.2424C111.697 53.0528 110.793 53.1907 110.421 53.2424C110.456 52.5011 111.023 52.5873 111.13 52.3632Z" fill="#E5B38F"/>
<path d="M127.023 44.2783C127.023 44.8816 125.836 45.2953 125.269 45.2953C124.56 45.2953 124.082 44.8299 124.082 44.2783C124.082 42.4338 127.023 42.7613 127.023 44.2783Z" fill="#E5B38F"/>
<path d="M116.338 54.5352C117.295 54.4835 117.1 54.4835 117.667 54.7249C117.242 55.2765 116.055 56.2074 115.293 56.2936V55.6902C115.683 55.2248 116.303 54.8111 116.338 54.5352Z" fill="#E5B38F"/>
<path d="M121.459 32.2802C120.502 32.2802 119.705 32.0561 120.042 31.2631C119.617 31.039 119.085 30.7977 119.085 30.2977C119.085 29.8323 119.51 29.6082 119.9 29.6082C120.945 29.6082 121.282 29.9702 122.274 29.9702C123.55 29.9702 124.649 30.9873 125.499 31.401C125.357 31.8147 125.074 32.1423 124.649 32.1423C124.028 32.1423 123.745 31.8147 123.231 31.8147C122.7 31.8147 122.274 32.2802 121.459 32.2802Z" fill="#E5B38F"/>
<path d="M121.229 56.1902C120.946 56.5694 120.857 57.2072 120.379 57.2072C120.29 57.2072 119.67 56.5177 119.67 56.5177C119.67 55.673 120.751 55.6385 121.229 56.1902Z" fill="#E5B38F"/>
<path d="M128.105 44.0542C127.768 44.0542 127.484 43.968 127.484 43.6921C127.484 43.5542 127.998 43.2267 128.105 43.2267C128.53 43.2267 128.902 43.7783 129.044 43.968C128.441 44.1059 128.583 44.0542 128.105 44.0542Z" fill="#E5B38F"/>
<path d="M121.318 41.6063C120.751 41.6063 121.832 40.5374 122.416 40.5374C122.275 41.0891 121.903 41.6063 121.318 41.6063Z" fill="#E5B38F"/>
<path d="M143.059 48.7603C143.059 49.2775 142.971 50.0532 142.439 50.0532C140.065 50.0532 139.976 46.9158 137.691 46.9158C137.407 46.9158 136.787 47.4157 136.752 47.4157C137.177 47.6398 137.265 47.6053 137.691 47.5019V48.0535C137.407 48.157 137.177 48.1914 136.982 48.0535V48.7431H137.602C137.691 49.3464 138.258 50.3635 138.647 50.5014C139.551 50.829 139.888 50.2601 139.976 51.0531C140.455 51.0531 140.455 51.0531 140.791 51.0531C140.738 51.7943 140.738 51.7943 140.791 51.9839C140.791 52.3115 141.642 52.5356 141.642 53.0527C141.642 53.5182 141.128 54.3974 140.933 54.8973C140.083 54.8111 137.035 53.6906 136.521 53.0527H135.812C136.628 54.0181 139.285 55.0007 139.285 56.2764C139.285 56.6039 139.002 56.828 138.807 56.828C138.577 56.828 138.47 56.3281 138.329 56.2764C136.964 55.6385 136.061 55.9144 134.873 55.2076C133.739 54.5697 130.887 54.6042 131.702 53.1389C130.142 52.4839 129.381 51.6219 127.999 50.829C127.768 51.1565 127.467 51.5185 127.042 51.5185C126.563 51.5185 126.67 51.191 126.244 51.191C125.677 51.191 125.394 51.8805 124.827 51.8805C124.295 51.8805 122.789 51.2254 122.789 50.5876C122.789 50.1222 124.03 49.3464 124.685 49.3464C125.536 49.3464 126.298 49.3464 126.723 49.3464C127.148 49.3464 128.282 49.0706 128.849 48.7086C128.619 48.5707 127.999 48.1053 127.999 47.7432C127.999 46.9503 128.849 47.3812 129.186 47.0537C129.611 46.64 130.603 45.6229 130.603 44.9851C130.603 43.7784 127.573 41.5201 126.563 41.5201C125.943 41.5201 125.66 42.0717 125.039 42.0717C124.845 42.0717 124.65 41.6063 124.65 41.5201C124.65 41.0546 125.5 40.9685 125.784 40.9167C125.358 40.503 122.789 38.3827 122.275 38.3827C121.655 38.3827 120.893 40.141 120.043 40.141C119.423 40.141 119.618 39.3997 119.653 39.0722C118.182 38.9343 114.585 39.0722 112.441 39.0722C112.052 39.0722 111.307 38.5206 111.024 38.1413H108.756C108.526 37.4863 107.799 37.4001 107.711 36.7622C108.331 36.5209 109.039 36.8139 109.837 36.9001V36.2968C109.412 36.021 107.232 35.8313 107.232 35.8313C107.232 35.8313 106.523 35.0039 106.523 34.5902C106.523 33.2973 106.754 33.0214 107.48 32.5215C107.852 32.2457 107.622 31.4183 107.817 31.2286C108.774 30.315 109.996 29.522 111.609 29.522C111.609 29.522 113.133 29.9874 113.168 29.9874C112.69 30.9528 111.13 31.0562 111.13 32.3836C111.13 32.6594 111.272 32.8491 111.502 32.8491C111.414 33.1766 111.502 33.6765 111.502 33.6765C111.502 34.0385 111.414 34.4523 111.981 34.4523C112.264 34.4523 112.92 33.9006 112.92 33.5214C112.92 33.0559 112.441 32.7456 112.441 32.2802C112.441 30.5218 115.613 29.9702 117.527 29.9702C118.767 29.9702 119.423 31.5906 119.423 32.6077C119.423 32.7973 119.192 33.5214 119.423 33.5214C119.706 33.5214 119.901 33.0559 120.362 33.0559C120.893 33.0559 121.035 33.5214 121.46 33.5214C122.275 33.5214 122.506 32.3664 123.356 32.3664C124.26 32.3664 126.298 32.6422 126.918 33.0559C127.963 33.7972 128.3 35.3659 129.859 35.3659C130.568 35.3659 130.709 35.3659 131.046 35.3659C131.56 35.3659 132.747 35.5038 132.605 36.2968C133.881 36.7105 134.59 37.4518 135.919 37.5897V38.3654C136.202 38.3654 136.734 38.3654 136.734 38.3654C137.389 38.3654 137.779 38.8309 138.063 39.4687C137.389 39.6066 136.787 39.5549 136.397 40.1065C137.212 40.1927 137.389 40.1927 137.815 40.1927C138.045 40.1927 138.382 40.3306 138.523 40.6064C137.762 40.9857 137.389 40.9857 136.964 41.6752C137.389 41.8993 137.673 42.0373 138.293 42.0373C138.382 43.106 139.675 43.5715 140.667 43.6577C140.756 44.4851 141.004 45.2781 141.713 45.2781C142.758 45.2781 142.989 44.6231 143.378 45.5022C143.609 45.7263 143.999 45.7263 144.229 45.7263C145.132 45.7263 145.505 46.0539 145.505 46.7951C145.505 47.3985 144.69 47.5709 144.087 47.5709C144.14 48.088 144.087 47.9329 144.087 48.1742C144.105 48.3466 143.945 48.7603 143.059 48.7603Z" fill="#E5B38F"/>
<path d="M123.603 53.6906C123.125 54.0526 122.983 54.0526 122.505 53.6906C122.983 53.0873 123.036 53.4148 123.603 53.6906Z" fill="#E5B38F"/>
<path d="M114.585 48.0708C115.205 47.795 115.205 48.3983 115.524 48.812C114.922 48.7603 114.532 48.3811 114.585 48.0708Z" fill="#E5B38F"/>
<path d="M138.08 3.16407C137.744 3.4916 137.602 3.5778 137.23 3.66399L141.022 2.59519C141.358 2.76758 141.536 2.87101 141.872 2.9572C142.386 3.09511 142.386 3.45713 142.67 3.73294C143.237 4.28458 145.753 4.06048 145.753 4.88793C145.753 5.49129 144.902 5.35338 144.566 5.57748C142.67 6.95657 140.348 6.12912 137.832 7.33582C138.311 7.80127 140.207 7.42202 141.394 7.47373C140.295 8.54253 137.637 9.18036 135.936 9.732C134.041 10.3354 132.942 12.1799 131.525 13.197C130.869 13.6796 129.824 13.128 129.062 13.3521C128.016 13.6796 126.829 13.7658 126.067 14.3692H127.396C127.485 15.3863 126.918 15.3001 126.014 15.1967C126.581 15.4725 127.113 15.6621 127.396 16.2999C126.404 16.7654 126.067 17.8686 125.252 18.4203C123.214 18.4203 123.268 18.4203 122.878 18.4203C122.966 18.7478 123.214 18.834 123.214 19.1098C123.214 20.5924 121.23 19.7132 121.23 21.2819C121.939 21.2819 122.08 21.2819 122.417 21.2819C122.559 21.2819 123.126 21.2302 123.126 21.6439C123.126 22.4196 120.415 23.2643 119.334 23.2643C118.236 23.2643 118.714 22.5748 117.775 22.5748C116.393 22.5748 115.401 22.5748 114.213 22.5748C113.788 22.5748 113.505 23.0402 112.796 23.0402C111.237 23.0402 109.943 22.6265 108.295 22.1094C108.154 22.3335 107.959 22.5748 107.728 22.5748C107.392 22.5748 107.25 22.3507 107.25 22.2128C107.25 20.3682 109.713 21.0578 110.723 20.3682C110.156 19.9545 109.164 19.8166 109.164 18.9892C109.164 18.3513 109.872 18.5237 110.351 18.5237C111.874 18.5237 112.388 19.3167 113.292 19.8166H114.142C113.487 19.1788 112.016 18.6099 112.016 17.5066H111.307C111.024 17.6445 111.024 17.6445 110.829 17.8342H110.12V17.2825C110.492 16.4896 110.829 15.9896 111.538 15.7655C112.725 15.4035 114.142 15.8172 114.142 14.5243C114.142 13.0418 110.918 13.0418 110.918 12.2144C110.918 11.7489 111.626 11.8524 112.105 11.8524C111.591 11.8524 111.485 11.6627 111.396 11.3007C111.626 11.2145 111.874 11.3007 112.105 11.3007C112.636 11.3007 113.682 11.1111 114.621 11.3869C115.808 11.7489 116.233 13.0935 117.562 12.9556C117.332 12.7315 115.808 11.8006 115.808 11.5248C115.808 11.3352 116.038 11.1973 116.145 11.0594H118.519C119.423 10.6974 120.22 10.456 120.787 9.76647H120.078C119.121 10.5077 118.041 10.8353 116.517 10.8353C115.613 10.8353 115.33 10.4733 114.851 10.4733C114.479 10.4733 114.284 10.9387 113.912 10.9387C112.955 10.9387 111.733 10.6112 112.016 10.0078H111.396C111.059 10.2319 110.776 10.4733 110.351 10.4733C109.394 10.4733 108.083 9.92162 107.746 9.50789C108.083 9.28379 108.419 9.04245 109.022 9.00797C108.118 9.00797 107.179 8.95626 106.789 9.00797C107.303 7.80127 108.49 7.93918 109.731 7.57717C109.305 7.49097 109.164 7.49097 108.774 7.49097C107.817 7.49097 107.781 8.31843 106.878 8.31843C106.647 8.31843 106.116 7.99089 106.027 7.95642C106.506 7.49097 106.789 7.35306 107.356 7.16344H105.939C105.655 7.24963 105.372 7.38754 105.23 7.49097C105.035 7.49097 104.468 7.49097 104.185 7.49097C104.468 6.33598 107.551 5.78434 108.933 5.78434C109.5 5.78434 109.872 5.78434 109.979 5.78434C110.173 5.78434 110.351 5.59472 110.351 5.40509C111.874 5.40509 111.254 4.38801 112.247 4.38801C113.15 4.38801 114.993 5.26718 115.418 5.40509C115.843 4.30182 116.41 3.31922 117.793 3.31922C118.608 3.31922 118.129 3.73294 118.749 3.23302C118.98 2.76758 119.37 2.62967 119.83 2.62967C122.293 2.62967 122.825 2.62967 125.288 2.62967C125.376 2.44005 125.624 2.30214 125.855 2.30214C126.705 2.30214 126.953 2.85377 127.662 2.85377C128.335 2.85377 128.512 2.07803 129.186 2.07803C129.894 2.07803 130.178 2.40557 130.603 2.40557C131.17 2.40557 131.454 2.40557 131.932 2.40557C133.048 2.37109 137.124 2.23318 138.08 3.16407Z" fill="#E5B38F"/>
<path d="M157.623 42.2096C158.279 41.8821 158.279 41.8476 158.952 42.1234C159.236 40.7443 159.945 40.2789 160.37 38.986C158.899 38.5205 155.444 38.2964 155.249 37.0035C155.728 36.8312 155.674 37.0035 156.1 37.0035C157.092 37.0035 157.801 37.6931 158.952 37.6931C159.431 37.6931 159.378 37.2794 159.431 37.0035C157.96 36.5381 157.535 34.3833 155.976 34.3833C155.55 34.3833 155.409 35.159 154.788 35.159C153.938 35.159 153.513 35.0728 153.513 34.3833C153.513 33.3662 154.558 33.4524 154.558 32.4008C154.558 31.7113 153.796 31.6596 153.371 31.6078V30.9183C152.042 26.9534 148.729 22.9368 143.413 22.9368C142.616 22.9368 142.421 22.9368 141.996 22.9368C141.375 22.9368 141.092 23.5402 140.472 23.5402C140.047 23.5402 139.621 23.1781 139.054 23.1781C138.54 23.1781 138.345 23.2643 138.097 23.3505C138.239 23.4884 138.434 23.6781 138.576 23.7298C138.292 24.0056 138.345 23.8677 137.956 23.8677C136.963 23.8677 135.44 23.454 134.873 22.7644C135.298 22.4886 135.635 22.4369 135.812 22.0232C135.05 21.7473 134.483 21.2474 133.916 21.2474C132.87 21.2474 133.154 21.575 132.25 21.2474C132.357 20.6096 133.296 20.3338 133.668 20.3338C134.182 20.3338 134.518 20.3338 134.855 20.3338C135.333 20.3338 135.475 20.2821 135.705 19.9718H138.416C138.895 19.6442 138.895 19.4546 139.037 18.9547H137.141C137.034 19.1788 136.91 19.4201 136.662 19.4201C135.9 19.4201 135.617 19.4201 134.997 19.4201C134.802 19.4201 130.248 18.1789 130.248 17.4377C130.248 16.0069 131.914 16.524 132.959 16.1965C133.81 15.9207 134.341 15.4208 135.245 15.1277C136.52 14.714 138.239 15.4035 139.285 14.8002C140.046 14.3347 140.56 13.5073 140.56 12.3523C139.71 12.2661 136.999 12.3006 136.999 11.4386C136.999 11.0249 137.708 10.7836 137.956 10.7491C139.568 10.2319 141.712 9.12865 142.651 8.215C143.023 8.49082 143.413 8.57702 143.891 8.57702C145.557 8.57702 144.264 6.45666 145.787 6.26704C147.683 6.04294 148.392 5.57749 150.199 5.57749C151.528 5.24996 152.485 4.52594 153.761 4.52594C154.611 4.52594 154.859 5.90503 155.745 5.90503C155.745 5.57749 155.515 5.30167 155.515 4.97414L155.993 4.5087C156.472 5.31891 157.287 5.23272 158.244 5.59473C158.474 5.59473 158.952 5.59473 158.952 5.59473C158.811 5.23272 158.563 4.9569 158.563 4.57765C158.563 4.02601 159.271 3.9743 159.75 3.9743C161.699 3.9743 162.833 5.04309 164.02 5.59473H166.146C165.402 5.23272 163.453 4.62937 163.453 3.7502C163.453 3.06065 164.924 3.28475 165.349 3.19856C165.012 2.87103 164.64 2.83655 164.392 2.50901C165.668 1.90566 166.855 1.57813 168.432 1.57813C169.566 1.57813 170.328 1.52641 171.373 1.90566H172.33V1.35402C173.039 1.26783 173.517 1.35402 174.226 1.35402C176.512 1.35402 178.354 0.0611267 180.782 0.0611267C183.44 0.0611267 185.282 0.0611267 187.657 0.0611267C190.456 0.0611267 192.547 1.81947 194.762 2.75035C196.038 3.25028 197.703 2.93998 198.89 3.2158C198.642 4.83623 195.435 4.59489 194.142 5.06033L183.723 5.61197C184.538 6.21532 192.476 5.28444 193.344 5.61197C193.256 5.97398 191.183 7.92195 191.555 7.92195C192.742 7.92195 195.559 5.28444 197.136 5.28444C197.987 5.28444 198.323 5.97398 198.323 6.66353C198.323 7.07725 195.258 10.2147 195.116 10.6801C196.339 10.3526 198.749 7.3186 199.51 6.74972C200.751 6.74972 202.682 6.74972 202.682 6.74972C202.682 6.74972 203.586 6.93935 203.781 6.88763C204.631 6.5601 204.773 6.33599 205.535 5.95674H207.803C207.945 5.40511 208.281 5.35339 208.76 5.35339C209.38 5.35339 211.612 6.37047 211.612 6.97382C211.612 7.52546 210.709 7.93919 210.425 8.04262C208.866 8.54254 207.856 9.88715 205.73 9.88715C206.297 10.163 206.35 10.163 206.722 9.88715C206.722 11.1801 205.446 11.1801 204.596 11.3697C204.932 12.0075 204.596 11.5076 204.596 11.973C204.596 12.7143 203.355 12.9039 202.47 13.128C202.523 13.6279 202.47 13.6279 202.47 13.8176C202.47 14.7829 201.477 15.1105 200.574 15.7483C200.007 16.162 200.06 17.2653 199.776 17.7307C200.29 17.9548 200.68 17.7307 201.194 17.7307C201.956 17.7307 202.611 18.2307 203.09 18.6099C202.842 18.7478 202.523 18.8857 202.239 18.8857C202.434 19.627 204.277 19.3856 204.277 20.5062C204.277 21.6094 201.814 21.1957 200.963 21.1957C200.45 21.1957 200.024 21.5577 200.024 21.8852C200.024 22.6782 200.875 22.6782 201.548 22.6782C201.548 23.6953 202.257 23.9711 202.257 24.6607C202.257 25.0227 202.027 25.4019 202.257 25.6777C201.495 25.6777 200.733 25.6778 200.733 26.2811C200.733 27.0568 202.062 27.0224 202.629 27.212C202.345 27.9533 201.389 28.367 200.485 28.4532C200.485 28.7807 200.715 29.0565 200.963 29.1427C200.627 30.5218 198.731 29.9357 198.359 30.9011C197.827 30.5735 197.313 30.3494 196.941 29.8323H196.233C196.711 31.0734 198.837 30.6597 198.837 31.9181C198.837 32.4698 198.695 33.211 198.128 33.211C197.278 33.211 195.807 32.0043 195.524 31.1252C195.152 31.1769 195.01 31.1252 194.904 31.1252V31.8147C196.605 33.4696 199.652 34.2626 199.652 36.8829C199.652 37.3828 198.89 37.4345 198.376 37.4345C196.144 37.4345 196.622 35.1245 194.673 35.1245C194.443 35.1245 194.195 35.2624 193.965 35.1245C193.965 35.7796 194.443 35.9175 194.443 36.2795C194.443 36.6932 193.628 36.8312 193.398 36.8829C193.398 38.262 197.615 38.0896 198.625 38.3999C197.916 38.9515 197.437 39.0032 196.587 39.279C195.028 39.7962 194.549 41.0891 193.167 41.5028C191.466 42.0545 190.084 41.9166 188.277 42.6578H186.044C185.566 42.9336 185.087 43.0715 185.087 43.4336L183.9 44.261C182.997 44.9506 182.943 45.8814 182.235 46.571C181.278 47.5019 179.666 47.2605 178.673 47.9501H177.965V47.0192C177.256 47.295 177.433 47.7605 177.008 48.1742C176.015 49.1395 173.446 48.7258 173.446 50.2428C173.446 50.3807 173.535 50.5703 173.535 50.7083C173.393 50.8979 173.198 51.0358 173.198 51.2599C173.198 51.5874 173.765 51.8115 173.765 52.3287C173.765 53.8974 171.533 53.3802 171.533 54.7249C171.533 55.5523 171.444 56.759 171.533 57.2589C170.434 57.7761 171.019 60.1723 169.725 60.1723C169.389 60.1723 169.247 59.9826 169.158 59.7068C168.591 59.7585 168.503 60.0344 168.219 60.0344C167.032 60.0344 167.121 57.9485 165.934 57.9485C165.278 57.9485 164.516 58.5001 163.949 58.5518C163.612 57.483 163.134 57.8106 162.39 57.2589C162.106 57.0693 162.195 56.4315 162.053 56.3281C161.096 55.5868 159.307 53.5182 159.307 52.1735C159.307 51.5702 159.679 51.6219 160.015 51.2944C159.307 50.4152 159.059 51.5702 158.261 51.1565C158.066 50.9668 157.925 50.0877 157.783 49.6395C157.499 48.7603 156.224 48.2604 156.224 47.002C156.224 46.5365 156.56 46.3124 156.702 45.847C156.365 45.6573 156.046 45.6056 155.745 45.847V44.7782C156.401 43.899 156.702 42.9853 157.641 42.2441V42.2096H157.623Z" fill="#E5B38F"/>
<path d="M155.391 40.4513C154.966 40.3996 154.435 39.3825 154.435 38.8308C154.435 38.1413 155.055 37.9 155.48 37.9C156.703 37.9 157.092 39.1411 158.333 39.5204C158.244 40.3134 157.234 40.4513 156.437 40.4513H155.391Z" fill="#E5B38F"/>
<path d="M203.533 26.2811C203.197 26.2811 202.913 25.8157 202.913 25.5916C202.913 25.3158 203.25 25.1261 203.391 24.9882H204.242C204.242 25.3157 204.242 25.4019 204.242 25.5916H205.039C204.827 25.7295 204.012 26.2811 203.533 26.2811Z" fill="#E5B38F"/>
<path d="M149.083 83.0997C148.853 83.0997 148.604 82.7722 148.604 82.6343C148.604 82.4447 149.455 81.8068 149.455 81.7551V81.4793C149.313 81.4793 149.118 81.3931 149.083 81.2552C150.412 80.6174 150.926 78.5315 151.652 77.4799C152.024 76.8766 152.308 76.1008 153.07 76.1008C153.265 76.1008 153.406 76.3766 153.406 76.5663C153.406 77.5834 152.414 78.0833 152.131 78.928V79.3417C152.52 79.2555 152.52 78.9624 152.839 78.9624C153.123 78.9624 153.406 79.0142 153.601 79.2038L153.353 79.4279V79.8416H154.204C154.204 79.8761 154.204 80.0657 154.204 80.0657L154.771 79.8761C155.302 80.014 155.905 80.014 156.153 79.8761C156.153 80.2898 156.1 80.7035 156.1 81.3931C156.188 81.3069 156.436 81.2552 156.613 81.2552C156.56 81.6689 156.135 81.7551 156.135 81.9447C156.135 82.1688 156.472 82.3585 156.472 82.686C156.95 82.686 156.808 82.5998 157.092 82.4102C157.092 82.9618 157.428 82.9273 157.428 83.3755C157.428 83.9272 157.145 84.4788 156.667 84.4788C156.33 84.4788 156.241 84.0996 156.241 83.9272C156.1 83.9272 156.011 83.841 155.869 83.841C155.497 83.841 155.781 82.9618 155.391 82.5998C155.019 83.1514 154.593 83.841 154.009 83.841C153.92 83.841 153.725 83.9272 153.725 83.841C153.725 83.3755 154.097 83.3755 154.239 83.0997C153.761 83.0997 153.14 83.3755 152.91 82.9273C152.573 83.0652 152.29 83.1514 151.971 83.1514C151.351 83.1514 151.067 82.8239 150.554 82.8239C149.845 82.8239 149.65 83.0997 149.083 83.0997Z" fill="#E5B38F"/>
<path d="M117.81 73.446C118.625 73.446 119.422 73.584 119.422 74.239C119.422 74.2908 119.227 74.239 119.192 74.239C118.766 74.239 118.093 74.0494 117.81 73.7736C117.863 73.6874 117.863 73.5495 117.81 73.446Z" fill="#E5B38F"/>
<path d="M55.1387 78.066C55.3336 77.9798 55.5639 77.8419 55.7943 77.8419C56.3081 77.8419 56.7334 78.3935 57.07 78.4797C59.1077 79.1176 60.2594 80.2381 61.482 81.4276V81.8413C61.3402 81.8413 61.1985 81.8413 61.0567 81.8413C59.9582 81.8413 58.3103 80.6001 57.5484 80.1347C57.637 79.8071 57.8851 79.8071 58.0268 79.6692C57.07 79.6692 55.7411 79.2038 55.5639 78.6521C55.7943 78.5659 55.9892 78.3763 56.0423 78.2384C55.812 78.1867 55.3336 78.0488 55.3336 78.0488H55.1387V78.066Z" fill="#E5B38F"/>
<path d="M49.3619 73.2219C49.167 73.2219 48.9898 72.6703 48.7949 72.3945V72.0152C49.2202 72.0152 49.4682 72.291 49.8935 72.3428C49.8935 72.3945 49.3265 72.8944 49.61 72.8944C49.9466 72.8944 50.1238 72.5324 50.2301 72.291C50.3187 72.5669 50.2301 72.8427 50.2301 73.3081C50.2301 73.5322 50.4605 73.6357 50.4605 73.8598C50.4605 74.0494 50.2301 74.1356 50.2301 74.3252C50.2301 74.5148 51.0806 75.2044 50.6022 75.2044C50.2301 75.2044 49.9466 74.7045 49.9466 74.3252C49.9466 74.0494 50.1415 73.9115 50.1415 73.8253C49.734 73.7219 49.6454 73.2219 49.3619 73.2219Z" fill="#E5B38F"/>
<path d="M22.0756 65.0508C22.4123 65.0508 22.4123 65.0508 22.6426 65.0508V65.6025C21.7921 66.0162 21.5086 66.3437 20.7999 66.8954C20.3746 66.5678 20.1443 66.5161 19.8076 66.292V65.7404C20.605 65.5163 21.2251 65.0508 22.0756 65.0508Z" fill="#E5B38F"/>
<path d="M144.389 80.5656C144.778 80.5656 144.92 80.5139 145.062 80.2898C144.07 79.7382 143.166 78.859 141.695 79.1865C142.245 79.583 143.627 80.5656 144.389 80.5656Z" fill="#E5B38F"/>
<path d="M142.102 84.1513C142.332 84.6167 142.669 84.7891 143.148 84.8925H144.565C144.565 84.9787 144.565 85.0822 144.565 85.1683C144.565 85.4442 144.087 85.6683 143.998 85.6683C143.661 85.6683 141.907 84.7891 141.907 84.4616C141.907 84.3409 142.014 84.203 142.102 84.1513Z" fill="#E5B38F"/>
<path d="M147.559 85.358C147.559 85.4442 147.559 85.5993 147.559 85.6855C147.559 86.013 147.028 86.2889 146.514 86.2889C146.035 86.2889 145.752 86.0648 145.752 85.7889C145.752 85.5131 146.408 84.3581 146.851 84.2202C146.939 84.4098 147.187 84.496 147.187 84.6857C147.187 85.0822 146.461 85.358 147.559 85.358Z" fill="#E5B38F"/>
<path d="M3.57789 60.5343C3.7728 60.1206 3.91455 60.2068 4.28664 60.2068C4.85364 60.2068 4.9068 60.5343 4.99539 60.9997H3.43614C3.24123 60.8618 2.95773 60.7239 2.86914 60.5343H3.57789Z" fill="#E5B38F"/>
<path d="M19.7004 125.938V126.265C19.3283 126.351 19.1688 126.489 18.8499 126.489C18.7082 126.489 18.5664 126.3 18.5664 126.162C18.5664 125.886 18.6196 125.748 18.5664 125.507C19.098 125.507 19.4169 125.645 19.7004 125.938Z" fill="#E5B38F"/>
<path d="M18.2832 124.317C18.2832 124.317 18.1415 124.403 18.0883 124.403C17.858 124.403 17.8048 124.076 17.6631 123.938C17.9111 123.938 18.1415 124.128 18.2832 124.317Z" fill="#E5B38F"/>
<path d="M17.3446 123.49C17.2029 123.662 16.9548 123.852 16.7245 123.852C16.5827 123.852 16.4941 123.628 16.4941 123.49H17.3446Z" fill="#E5B38F"/>
<path d="M15.5731 123.024C15.7149 122.973 15.8566 122.921 15.9984 122.921C15.9984 123.024 15.9984 123.111 15.9984 123.197C15.9984 123.283 15.8566 123.386 15.768 123.386C15.5731 123.386 15.3428 123.059 15.3428 123.059C15.4314 123.007 15.5731 123.007 15.6794 123.007H15.5731V123.024Z" fill="#E5B38F"/>
<path d="M14.0667 122.094C14.0667 122.231 14.0667 122.318 14.1199 122.456C14.0313 122.456 13.8895 122.456 13.7832 122.456C13.6415 122.456 13.4111 122.266 13.4111 122.128C13.4997 122.076 13.6592 121.99 13.6946 121.904C13.7832 122.007 13.925 122.094 14.0667 122.094Z" fill="#E5B38F"/>
<path fill-rule="evenodd" clip-rule="evenodd" d="M150.642 70.2224C150.695 70.4465 151.103 70.5155 151.05 70.7396C150.766 71.6188 148.126 71.9635 147.187 72.4807C147.24 72.5669 147.524 72.6703 147.665 72.6703C148.799 72.6703 151.085 71.8946 152.166 71.2912V71.8429C152.715 72.0842 152.166 72.5324 152.556 72.5324C152.981 73.2219 153.353 73.6874 153.353 74.7562C153.353 76.2387 149.526 76.4283 148.853 77.2903C147.453 79.0658 146.142 78.3073 143.767 78.3073C141.96 78.3073 140.915 77.9798 139.125 78.5314C138.133 78.859 138.611 79.2727 137.938 79.9105C136.892 80.9276 135.9 80.5139 135.28 81.7551C136.698 81.5655 137.654 80.1346 139.745 80.1346C140.737 80.1346 142.208 79.945 142.208 80.8242C142.208 81.7378 140.507 81.9792 140.206 82.3412C140.631 82.3412 141.163 82.4791 141.393 82.4791C141.304 82.9445 140.915 83.3066 140.915 83.5824C140.915 84.7374 143.094 86.0303 144.476 86.0303C144.76 86.0303 146 86.082 146 86.5819C146 86.9611 142.757 88.1679 142.509 88.2023C141.553 88.4782 140.684 89.7193 140.294 89.7193C140.011 89.7193 139.355 88.9781 139.355 88.5643C139.355 87.5473 141.056 86.806 142.155 86.7198C141.393 86.7198 141.446 86.6681 141.446 86.0303C140.737 86.082 140.737 86.6681 140.312 86.9611C139.887 87.237 138.7 87.0473 138.416 87.0473C138.275 87.0473 138.044 87.0991 137.938 87.0473V87.1853L137.973 87.3404C138.026 87.4438 138.097 87.5473 138.186 87.6507C137.849 88.1506 137.335 88.4437 136.662 88.4437C136.095 88.4437 136.042 88.2196 135.564 88.4437C134.802 89.1849 133.189 89.7021 133.189 91.4432C133.189 91.5811 133.242 91.8052 133.384 91.8569C133.384 92.081 133.579 92.6844 133.863 92.6844C133.951 92.6844 134.376 92.3569 134.376 92.3569V92.6844C133.809 92.8223 132.994 93.0119 132.817 92.8223C131.86 93.5118 130.248 93.236 129.309 93.8394H129.787C130.213 93.8394 130.638 93.6153 130.974 93.8394C130.301 94.0635 129.84 94.0635 129.167 94.0635C129.025 94.0635 128.884 94.0118 128.742 94.0118C128.6 94.0635 128.458 94.2014 128.458 94.3393C128.458 94.5634 128.884 94.8909 128.884 94.8909C128.795 95.2529 127.891 96.8734 127.555 96.8734C127.413 96.8734 127.307 96.5976 127.218 96.5114L126.988 96.7355C127.094 97.0975 127.413 97.2526 127.413 97.6146C127.413 97.8905 126.456 99.5109 126.314 99.5109C126.226 99.5109 126.12 99.3213 126.12 99.2351V98.7352C126.12 98.4076 125.694 97.6664 125.588 97.2009C125.499 97.4422 125.535 97.8043 125.535 97.8043C125.535 98.1318 125.783 98.9593 125.783 99.4247C125.783 99.8901 125.499 99.8384 125.783 100.114H126.12V100.58C126.12 100.942 125.73 101.149 125.499 101.149C125.694 101.476 125.907 101.511 126.155 101.545C126.066 102.062 125.836 102.01 125.411 102.01V102.373L125.96 102.7C125.818 102.89 125.659 103.165 125.411 103.217C124.861 103.321 124.613 103.683 124.224 103.769C123.657 103.958 123.692 104.096 123.426 104.372L123.55 104.458C121.335 105.682 118.483 106.561 118.483 109.906C118.483 111.388 119.758 111.871 119.812 113.267C119.812 113.302 119.812 113.336 119.812 113.371V113.595C119.953 114.147 120.379 114.612 120.379 115.439C120.379 116.405 120.148 117.284 119.333 117.284C118.625 117.284 118.66 116.543 118.376 116.129C117.809 115.388 117.331 115.164 116.959 114.422C116.197 112.94 116.764 110.13 114.691 110.13C114.266 110.13 114.071 110.733 113.646 110.733C112.795 110.733 112.263 109.664 111.129 109.664C110.474 109.664 110.332 110.026 109.942 110.026C109.801 110.026 109.606 109.802 109.606 109.664C108.844 109.854 107.852 109.768 107.054 110.026C107.533 110.164 107.426 110.164 107.71 110.026C107.657 110.716 107.231 111.13 107.798 111.509C106.469 112.147 105.335 110.578 104.379 110.578C104.095 110.578 103.953 110.94 103.67 110.94C103.138 110.94 102.855 110.475 102.341 110.475C100.959 110.475 100.303 111.63 99.7364 112.181C99.3466 112.543 98.9213 112.233 98.4606 112.405C97.4152 112.767 96.7951 114.026 96.7951 115.405L96.8128 115.474C96.8659 115.595 97.0254 115.75 97.0254 115.853C96.99 115.853 96.9368 115.836 96.9014 115.836L96.9368 115.939C97.0254 116.215 97.1317 116.405 97.1317 116.681C97.1317 117.508 96.7951 117.836 96.6533 118.525V121.111C96.5647 121.49 96.9368 121.852 97.0431 122.042C97.238 122.456 96.99 122.731 97.1849 123.145C97.3798 123.524 97.9999 124.162 98.3189 124.49C99.1694 125.317 99.1694 126.11 100.41 126.472C100.835 126.61 100.835 127.024 101.225 127.024C102.128 127.024 102.89 126.369 103.829 126.369C104.343 126.369 104.538 126.645 104.733 126.645C105.123 126.645 105.353 126.093 105.406 125.903C105.601 125.352 106.399 124.748 106.399 124.059C106.399 122.714 107.958 122.266 109.251 122.266C109.677 122.266 110.013 122.318 110.208 122.404C110.403 122.456 111.023 122.49 111.289 122.49V122.904C111.289 123.542 110.474 124.386 110.474 125.265C110.474 126.007 110.19 126.317 109.907 126.782V126.455H109.535V128.661C109.535 129.127 108.968 129.317 108.684 129.592V129.834C108.684 130.161 108.968 130.334 109.251 130.334C110.811 130.334 112.086 130.058 113.752 130.058C114.886 130.058 115.169 130.851 116.038 131.023V131.713C116.038 132.126 115.984 133.281 115.701 133.747V136.557C115.701 137.574 116.693 137.988 117.455 138.35C117.969 138.574 117.969 139.453 118.784 139.453C120.024 139.453 120.627 138.522 121.778 138.522C123.107 138.522 123.692 139.453 124.454 140.004C124.401 140.125 123.391 141.159 123.267 141.108C123.178 141.022 122.735 140.884 122.735 140.746C122.735 140.556 122.93 140.47 123.019 140.28C122.505 140.039 122.363 139.453 121.832 139.453C121.495 139.453 120.166 140.384 120.166 140.66C120.166 140.849 120.45 141.022 120.556 141.073C120.467 141.539 120.219 141.763 119.847 141.763C119.085 141.763 118.624 140.884 118.235 140.522C117.898 140.194 117.136 140.47 116.817 140.47C116.729 140.47 116.587 140.28 116.587 140.194C115.931 140.056 115.931 139.591 115.736 139.229C115.595 138.953 113.982 137.988 113.929 137.988C113.84 138.125 113.84 138.315 113.929 138.401H113.451C112.742 137.936 113.22 137.298 112.972 136.591C112.83 136.126 112.6 136.04 112.352 135.815C111.59 135.074 110.793 134.66 110.509 133.557H110.226C109.889 133.557 109.659 133.781 109.322 133.781C108.419 133.781 107.94 133.264 107.32 133.006C106.416 132.592 105.761 132.816 104.804 132.351C103.333 131.661 103.138 130.592 101.863 129.989H101.579C101.207 129.765 100.924 129.61 100.534 129.61C99.6832 129.61 99.5415 130.54 98.7264 130.54C98.3543 130.54 97.9645 130.213 97.7696 130.127C97.3975 129.937 97.0608 130.041 96.671 130.041C96.104 130.041 94.4916 128.937 94.0132 128.696C93.4817 128.472 93.1627 128.748 92.6312 128.61C91.9578 128.42 91.8161 127.868 91.1605 127.541C90.5404 127.265 90.2037 127.351 89.6013 127.075C89.3178 126.938 89.2292 126.886 89.0697 126.748C88.5027 126.196 87.0321 125.869 86.8903 125.265C86.4651 125.265 86.1816 124.748 86.1816 124.335C86.1816 123.835 86.66 123.542 86.66 123.042C86.66 122.438 86.2879 122.3 86.1816 121.973C85.6146 120.318 84.0022 118.973 82.9567 117.956C82.4783 117.491 81.7164 117.301 81.2558 116.853C80.8837 116.491 81.2026 116.026 80.9723 115.508C80.547 114.681 79.0764 114.577 79.0764 113.474C78.6511 113.388 78.7043 113.336 78.5625 113.474C77.9424 112.871 77.4639 112.371 76.9501 111.854C76.5249 111.44 76.6666 110.647 76.2414 110.233C75.8161 109.82 75.9047 108.803 75.5326 108.613C74.7353 108.251 73.9734 108.285 73.3532 107.682C73.2115 107.872 73.2646 108.147 73.2646 108.285C73.2646 109.251 73.7253 109.854 74.1151 110.63C74.4518 111.319 75.0719 111.319 75.5503 111.785C76.2236 112.423 76.3122 112.888 76.5426 113.681C76.8792 114.75 77.8183 115.25 78.155 116.215C78.5271 117.318 78.8283 118.525 79.6788 119.077C80.0686 118.715 80.6356 119.49 80.6356 119.852C80.6356 120.094 80.4407 120.542 80.2989 120.542C80.2103 120.542 79.5725 119.749 79.5193 119.559C78.6688 119.559 78.2081 118.473 77.6943 118.146C77.4108 117.956 77.3576 117.956 77.2159 117.732V116.525C76.702 116.026 76.3122 115.508 75.8515 115.043C75.1782 114.388 74.1506 114.543 73.6721 113.836C73.9025 113.836 75.0365 114.009 74.6112 113.422C73.9025 112.44 73.1229 111.457 72.2901 110.94C71.7231 110.595 71.7585 109.302 71.475 108.751C71.0498 107.923 70.6245 107.648 70.2879 106.579V106.251H70.3765C69.6677 104.872 67.2403 103.89 65.5393 103.252C65.1672 103.114 65.3089 102.597 65.1672 102.235C64.5116 100.614 63.165 100.063 63.413 98.1663C62.4208 98.0284 61.3754 95.977 60.5603 94.6151C60.33 94.2186 60.7552 93.9256 61.0387 93.7359C60.5249 92.7189 61.021 91.0122 60.5603 89.8572C60.1173 88.7367 61.3576 86.1165 61.3576 84.6856C61.3576 83.6686 60.1705 83.2548 60.1705 82.2378C60.1705 81.9619 60.6843 81.9102 60.8792 81.9102C61.588 81.9102 62.0132 82.2722 62.2613 82.7032C62.4916 82.4274 62.9169 81.8757 62.9169 81.462C62.9169 80.9966 62.4916 80.8587 62.2967 80.4105C62.1018 80.3243 61.8715 80.2208 61.7829 80.1346C61.3045 79.6692 60.1173 79.583 59.9756 79.1176C59.6035 77.9109 57.9379 78.5142 57.7076 77.6006C56.0952 77.6006 56.0066 76.3594 55.6699 75.2906C55.6168 75.1527 54.3942 74.4114 54.3942 74.4114C53.8272 74.0494 54.341 73.4461 53.9158 73.0323C53.6323 72.7565 53.2425 72.7565 52.8704 72.6703C52.1971 72.4807 52.392 71.2395 52.392 70.6361C52.392 70.3603 52.1085 70.2224 52.1085 69.9983C51.8781 69.9983 51.8781 70.05 51.6301 70.05C50.815 70.05 49.6456 69.1709 49.6456 68.6709V67.9814C49.6456 67.2919 49.0786 67.2918 48.2281 67.2918C47.5725 67.2918 47.3776 66.8781 47.3776 66.6023C47.3776 66.2403 48.0863 66.1886 48.0863 65.8266V65.2232C47.1827 65.2749 47.4307 65.8266 46.8106 65.8266C46.6157 65.8266 46.1018 65.4128 46.1018 65.137C46.1018 64.5854 46.4385 64.3958 46.5802 64.1717C46.3499 63.9475 45.9247 63.5338 45.7298 63.8441C45.021 63.8441 44.6843 63.5166 44.3123 63.1546C44.1705 63.5166 43.9756 63.982 43.6035 63.982C42.6113 63.982 41.9379 62.6374 41.3709 62.2237C40.1306 61.3445 38.5182 61.3962 37.1007 60.6033H34.4961C32.9191 60.0861 30.846 59.9137 30.031 58.2933C29.464 58.5174 28.5072 58.7587 28.0819 58.9828C28.2237 59.3104 28.3123 59.4483 28.5603 59.6379C27.9402 60.5515 24.9103 62.2237 23.8117 62.2237C23.6168 62.2237 23.3333 62.0858 23.3333 61.8962C23.3333 61.6203 23.6168 61.5686 23.7231 61.5169C23.4928 61.1894 23.67 61.1894 23.67 60.9653C23.67 59.9482 24.3787 59.1552 25.7608 58.7415C25.7608 58.6036 25.8139 58.4139 25.8139 58.276H25.2469C24.1129 58.276 20.9767 60.8101 20.9767 62.3444V63.0339C20.9767 64.1027 19.9313 64.4647 18.8505 64.8784C18.2303 65.1025 18.0354 65.568 17.6633 66.0334C16.9546 66.9126 15.3422 67.378 14.5803 68.1193C13.8715 68.8089 12.1528 69.326 10.7885 69.4984C9.08747 69.7742 8.13066 71.7049 6.14616 71.1533C6.71316 70.2741 7.61681 70.6361 8.41416 70.1879C8.98115 69.8604 9.4064 68.9468 9.93797 68.6709C10.7353 68.2055 11.639 68.6709 12.206 67.9814C13.0033 66.9643 14.8638 66.1886 15.9978 65.4473C17.0963 64.7578 17.0963 63.3787 18.2303 62.6719H17.5216C16.8128 62.9477 16.4762 63.2752 15.7674 63.2752C15.2004 63.2752 14.9524 63.0511 14.4917 62.9132C14.3499 63.2752 14.2082 63.4132 14.155 63.7407C13.021 63.327 12.6844 63.0511 11.8693 62.4478C11.7807 62.7236 11.8161 62.9649 11.8161 63.1373H11.1606C10.8771 63.1373 10.6467 63.4993 10.4518 63.4993C10.1683 63.4993 9.9734 62.7064 9.9734 62.3444V61.4135C9.9734 61.2756 10.0266 60.7239 9.60131 60.7239C9.22922 60.7239 8.8394 61.4997 8.6445 61.4997C8.02434 61.4997 5.79179 59.793 5.45513 59.3793C5.68548 59.3793 5.93354 59.2414 6.16388 59.2414C5.79179 58.2243 4.26798 58.0002 4.26798 57.259C4.26798 55.8799 6.83719 54.7249 7.82944 54.7249C8.25469 54.7249 11.4795 53.4837 11.4795 52.8803C11.4795 52.5528 10.7176 51.915 10.6822 51.7771C11.1606 51.5012 11.0542 51.553 11.3909 51.7254V51.0358C10.9656 50.9841 10.9657 51.0358 10.6822 51.0358C9.92025 51.0358 9.63675 51.8288 8.6445 51.8288C7.68769 51.8288 7.36875 51.3633 6.64229 51.5012H4.14395C4.09079 50.8117 3.52379 50.6221 3.52379 50.2084C3.52379 50.0704 3.61239 49.8808 3.66554 49.7429C2.90364 49.7429 2.47839 49.4671 2.24805 49.0016C3.4352 48.3121 5.38426 47.7087 6.51825 46.9675H7.36875C7.36875 48.45 8.13066 48.0363 9.1229 48.0363C9.7785 48.0363 9.88481 48.1742 10.4518 48.0363C9.9734 46.5538 8.98115 46.4676 7.5991 45.8125C7.227 45.6229 6.64229 44.2438 6.1816 43.968C5.6146 43.6404 3.66554 43.2784 3.66554 42.9509C3.66554 42.9509 4.32114 41.7959 4.37429 41.658H6.97894C8.39644 39.8134 10.5404 38.0551 13.0565 37.2794C13.712 37.0897 14.1373 37.4173 14.8106 37.1932C15.5725 36.9174 16.0509 35.9003 16.8483 35.9003C17.4684 35.9003 17.6988 36.4002 18.3189 36.5898C18.0886 36.8656 18.0354 36.9518 17.8937 37.1932C18.3721 37.2794 18.8505 36.9691 19.0808 36.5898C19.5947 36.7794 19.7541 36.9173 20.1794 37.0553H22.5537C23.1207 37.4173 23.3156 37.6586 23.9712 37.9861H27.6212C28.5603 38.917 31.5016 39.1411 32.9723 39.1411C33.8228 39.1411 34.3543 38.8136 35.2048 38.8136C36.5869 38.8136 37.0121 39.3652 38.1993 39.7445V39.6928C38.6777 39.7962 38.4296 39.8824 38.7663 39.6928C38.7663 39.8307 39.351 40.2444 39.4219 40.2961C41.3709 41.4511 43.4972 41.6752 44.6843 41.6752C45.1096 41.6752 42.9656 40.5719 46.0664 40.4685C46.5094 40.4513 46.2967 39.0205 47.5371 40.141C47.9446 40.5202 49.2026 39.6411 49.7165 39.5376C51.0454 39.0377 51.5592 38.9343 53.0299 38.624C53.1716 38.986 53.5083 39.2618 53.8804 39.2618C54.8726 39.2618 54.5359 37.9172 55.4928 37.9172C55.7763 37.9172 57.052 39.9858 57.9557 39.9858C58.9125 39.9858 58.9125 38.9687 59.7984 38.7791C59.887 39.1411 60.4186 40.0203 60.9324 40.0203C61.6943 40.0203 62.0664 39.417 62.97 39.417C65.8582 39.417 67.2934 41.7097 70.1816 41.5028C72.8925 41.296 72.6622 41.0029 73.9734 42.7957C73.6899 43.0716 72.2369 42.8992 72.2369 43.3129C72.2369 43.4508 72.2369 44.1231 74.1151 44.0369C75.1605 44.0024 75.7807 43.6232 76.7198 43.6232H79.7497L80.4584 43.9507C81.2735 44.3127 81.4507 45.4677 82.4075 45.4677C82.6378 45.4677 82.124 44.3989 82.124 44.0886C82.124 42.5199 84.5514 43.7611 84.3565 42.2441C83.8427 42.7957 82.6024 43.1577 81.8405 43.1577C81.4684 43.1577 81.238 42.9854 81.238 42.6578C81.238 41.6407 84.0907 41.589 84.9412 41.3649C85.5614 43.2612 88.5559 44.1403 91.1074 44.1403C93.8006 44.1403 94.3322 44.0542 95.1472 44.1403C95.1472 43.175 95.4839 42.6578 96.3344 42.6578C97.0431 42.6578 98.3189 42.9854 98.4783 43.2095C98.8504 43.7094 97.6278 45.2264 99.1871 44.8299C99.1871 42.5716 102.323 43.4853 101.703 41.6063C101.331 41.7959 101.03 41.8821 100.711 42.0717C100.711 42.0717 101.083 40.9684 101.083 40.6926C101.083 39.1239 97.8582 40.0548 97.8582 38.5205C97.8582 37.8827 98.4783 37.9172 98.4783 37.4518C98.4783 36.9863 98.1062 36.7622 98.1062 36.2968C98.1062 35.6072 98.8681 35.7451 99.4351 35.6072C99.382 35.1418 99.0099 34.5729 99.9135 34.5901C101.756 34.6419 102.802 35.5555 102.855 36.9863C102.873 37.6759 104.272 37.6414 104.272 38.5205C104.272 39.1239 103.422 39.4342 103.085 39.6238C103.652 40.3134 104.698 39.8479 105.46 40.3134C105.229 40.503 105.123 40.6409 104.981 40.865C105.973 41.3304 106.08 41.8821 106.08 42.6578C107.55 42.6578 106.593 40.6754 107.976 40.6754C108.348 40.6754 109.73 41.9683 109.73 42.2958C109.73 42.9854 108.932 42.8474 108.932 43.4508C108.932 43.968 110.35 46.1056 111.413 44.7782C112.104 43.9335 111.962 43.3129 112.352 42.5199C112.582 42.0545 113.681 42.0545 113.681 41.589C113.681 41.1753 112.972 40.9512 112.972 40.3478C112.972 39.7962 113.592 39.417 114.159 39.417C114.585 39.417 114.921 39.6928 115.347 39.7445C117.296 39.7445 116.906 40.8995 118.43 40.8995C118.43 41.6752 118.625 41.6407 118.43 42.0545C116.941 42.7613 117.579 43.4853 117.579 43.8128C117.579 44.0886 118.678 44.5541 118.678 44.9678C118.678 45.5712 116.232 47.6053 115.931 47.1399C115.347 46.2779 115.134 47.0882 115.364 47.364C114.514 47.364 114.23 47.726 113.805 47.726C113.149 47.726 112.76 46.7951 111.714 46.7951C111.342 46.7951 112.051 47.6226 112.051 47.8122C112.051 48.3638 110.669 49.3292 109.907 49.3292C109.003 49.3292 108.383 48.6396 107.781 48.2776H106.93C107.639 49.6567 109.251 49.4326 110.864 49.7946V50.4842C110.102 51.0358 109.482 52.1908 108.348 52.1908H107.302C106.735 52.1908 107.338 53.4665 106.345 53.1734C102.483 52.0184 103.918 52.9665 103.493 52.8286C104.148 53.1906 105.973 53.2424 105.973 53.9491C105.973 55.0524 104.556 54.587 103.741 54.88C103.369 55.0179 102.554 56.8108 102.182 57.19C101.083 58.2588 100.516 59.3621 100.516 61.2066C100.516 62.5512 100.711 62.7236 100.516 63.2925C100.994 63.2063 101.225 62.827 101.703 62.827C102.749 62.827 103.51 65.4128 103.51 66.5161C104.219 66.5161 104.556 65.8266 105.265 65.8266C105.92 65.8266 107.019 66.6195 107.391 66.7402C109.482 67.5332 111.466 68.2745 113.22 69.5156H116.303C117.632 70.3431 117.349 71.4981 117.349 72.9806C117.349 74.3252 119.014 75.756 120.201 76.6697C120.644 77.0144 121.052 76.118 121.619 76.118C121.672 75.6181 122.292 75.2906 122.469 75.0148C121.796 74.239 122.452 71.7222 120.804 70.912C121.761 70.7223 124.596 68.6537 124.596 67.8263C124.596 64.775 122.948 64.1889 121.849 62.3788C122.469 62.1375 123.816 61.7927 123.639 60.4309C123.55 59.7413 122.08 58.7242 122.682 58.3622C124.224 57.4141 122.54 56.7418 122.54 56.2764C122.54 55.4489 123.249 55.1214 123.958 55.1214C125.287 55.1214 126.137 55.9143 127.519 55.9143C128.228 55.9143 128.228 55.4489 128.848 55.4489C130.177 55.4489 130.461 57.0176 131.789 57.2072C131.789 58.9139 134.359 57.983 134.536 59.2931C134.678 60.2585 135.014 62.5167 135.812 62.5167C136.379 62.5167 136.52 63.5338 137.371 63.5338C138.558 63.5338 140.082 61.8272 140.082 61.1377C140.082 60.4826 140.844 60.0861 141.163 59.8448C141.358 60.0344 141.836 60.4481 141.978 60.4481C142.12 61.6893 144.139 61.9306 143.643 62.9822C143.236 63.8269 144.777 64.775 145.203 64.9129C145.114 65.3784 145.539 65.7404 145.539 66.2058C145.539 66.7574 145.061 66.8954 144.83 67.0333C145.451 67.4987 146.071 68.1365 147.116 68.1365V68.2745C147.081 69.8432 149.508 70.3603 150.642 70.2224ZM116.162 91.8225C116.162 92.2879 116.357 92.9774 116.835 92.9774C117.809 92.9774 119.369 92.2707 120.485 91.7363C120.343 91.8052 118.376 91.1157 117.561 91.9086C117.491 91.9431 116.87 93.0119 116.162 91.8225ZM121.282 89.7883C120.361 90.0813 120.644 90.1503 120.892 90.5123L120.751 90.2537C121.087 90.2537 121.087 90.202 121.318 90.202C122.7 90.202 125.712 90.6502 125.73 88.9091C124.56 88.9091 122.328 89.4608 121.282 89.7883ZM107.621 82.1343H107.71C106.434 82.9618 105.105 83.4272 104.007 84.7718C105.442 84.7718 104.715 84.565 105.566 84.4443C106.097 85.6165 107.32 84.3064 107.55 84.3064C108.082 84.3064 108.932 83.4272 109.641 83.2893C109.641 83.9271 109.304 84.0823 109.11 84.4443H110.066C110.12 84.7718 110.545 84.9959 110.881 84.9959C111.502 84.9959 111.679 84.5305 112.21 84.5305C113.344 84.5305 113.911 85.1338 114.904 85.1338V85.6855C114.195 85.9096 113.149 85.6855 112.777 85.6855C111.732 85.6855 109.836 86.9784 109.747 87.9093C110.226 87.6335 110.421 87.2542 110.881 87.2542C110.438 87.8058 108.454 92.7533 110.793 92.7533C112.476 92.7533 111.147 87.3404 112.263 87.2887C114 87.1852 113.203 86.0647 113.982 86.0647C114.354 86.0647 116.108 86.8922 116.108 87.4438C116.108 88.0817 115.736 88.5126 115.595 89.1505C116.162 89.1505 116.073 88.9608 116.551 88.8229C116.746 89.5642 116.746 89.8745 117.207 90.2537C117.863 90.2537 118.306 88.0472 118.483 87.3059C118.678 87.4955 119.245 88.0817 119.812 88.0817C120.892 88.0817 119.9 86.2716 119.014 86.013H117.774C116.587 85.2718 115.116 85.4959 114.035 84.4443C113.663 84.0823 113.947 83.6169 113.663 83.0652C113.575 82.8756 111.572 81.3069 111.289 81.3069H110.917C110.917 81.3931 110.97 81.7723 110.864 81.9447C110.669 81.7551 110.297 80.9276 109.73 80.9276C109.251 80.9276 109.446 81.6689 108.968 81.893L107.621 82.1343Z" fill="#E5B38F"/>
</g>
<defs>
<filter id="filter0_d" x="117.33" y="134.833" width="66.2171" height="102.073" filterUnits="userSpaceOnUse" color-interpolation-filters="sRGB">
<feFlood flood-opacity="0" result="BackgroundImageFix"/>
<feColorMatrix in="SourceAlpha" type="matrix" values="0 0 0 0 0 0 0 0 0 0 0 0 0 0 0 0 0 0 127 0"/>
<feOffset dy="1.59581"/>
<feGaussianBlur stdDeviation="0.797903"/>
<feColorMatrix type="matrix" values="0 0 0 0 0 0 0 0 0 0 0 0 0 0 0 0 0 0 0.25 0"/>
<feBlend mode="normal" in2="BackgroundImageFix" result="effect1_dropShadow"/>
<feBlend mode="normal" in="SourceGraphic" in2="effect1_dropShadow" result="shape"/>
</filter>
<filter id="filter1_d" x="0.652241" y="0.0611267" width="212.556" height="144.893" filterUnits="userSpaceOnUse" color-interpolation-filters="sRGB">
<feFlood flood-opacity="0" result="BackgroundImageFix"/>
<feColorMatrix in="SourceAlpha" type="matrix" values="0 0 0 0 0 0 0 0 0 0 0 0 0 0 0 0 0 0 127 0"/>
<feOffset dy="1.59581"/>
<feGaussianBlur stdDeviation="0.797903"/>
<feColorMatrix type="matrix" values="0 0 0 0 0 0 0 0 0 0 0 0 0 0 0 0 0 0 0.25 0"/>
<feBlend mode="normal" in2="BackgroundImageFix" result="effect1_dropShadow"/>
<feBlend mode="normal" in="SourceGraphic" in2="effect1_dropShadow" result="shape"/>
</filter>
</defs>
</svg>
