<svg width="234" height="162" viewBox="0 0 234 162" fill="none" xmlns="http://www.w3.org/2000/svg">
<path d="M77.4082 135.935C77.4082 136.763 76.7881 137.832 75.8844 137.832C75.2288 137.832 74.6973 137.194 74.6973 136.539C74.6973 135.194 75.3529 134.194 75.3529 132.798C76.0439 133.901 77.4082 134.453 77.4082 135.935Z" fill="#C5D1FB"/>
<path d="M102.232 145.951C102.09 145.951 102.178 145.675 102.09 145.537C102.037 145.451 101.47 145.399 101.328 145.296C101.08 145.158 100.761 144.055 100.655 143.676C100.318 142.607 99.2371 142.796 98.9004 142.159C98.6169 141.607 98.4752 141.331 98.1917 140.779C97.9968 140.366 97.5361 140.452 97.0931 140.366C96.721 140.262 95.9591 138.987 95.8174 138.521V138.142C95.906 138.142 96.0123 138.142 96.1009 138.142C96.5793 138.142 96.6679 138.366 97.0577 138.556H98.6169C99.6623 138.883 99.999 139.573 100.371 140.314C100.46 140.555 100.708 140.504 100.885 140.555C101.594 140.779 101.93 141.331 102.391 141.796C103.295 142.676 103.809 143.279 105.137 143.693C105.846 143.917 106.661 144.158 106.661 144.848C106.661 144.882 106.573 145.037 106.573 145.072C106.714 145.072 106.803 145.072 106.945 145.072C107.14 145.072 107.281 145.296 107.37 145.486L107.175 145.951C107.175 146.554 107.547 146.692 108.079 146.692C108.079 147.658 108.646 147.933 109.177 148.451C109.461 148.726 110.134 148.864 110.134 149.33C110.134 149.933 110.134 150.295 110.134 151.312C109.656 151.502 109.886 152.14 109.886 152.605C109.886 153.122 108.929 153.26 108.61 153.26C108.38 153.26 107.512 152.053 107.476 152.019C106.573 151.14 105.722 150.778 104.872 149.95C103.915 149.037 103.543 148.192 103.029 147.14C102.94 146.865 102.373 145.951 102.232 145.951Z" fill="#C5D1FB"/>
<path d="M118.303 149.916C118.214 149.916 118.25 149.416 118.214 149.226C117.825 149.175 117.594 149.468 117.222 149.468C115.468 149.468 116.23 147.847 115.61 146.934C115.61 146.882 115.663 146.744 115.663 146.71C115.574 146.485 115.291 146.485 115.043 146.434C114.812 146.382 114.334 144.727 114.334 144.503C114.334 143.727 115.326 144.038 116 144.038C117.47 144.038 117.275 142.607 117.949 141.952C118.285 141.624 118.764 141.624 119.278 141.538C119.986 141.4 119.986 140.935 120.376 140.573C120.181 140.383 120.713 140.021 120.713 140.021C120.996 139.883 120.961 139.78 121.191 139.693C121.333 139.642 121.386 139.418 121.475 139.331C121.9 138.918 122.998 139.142 123.176 138.78C123.548 138.038 124.593 136.297 125.355 136.297C126.152 136.297 126.064 136.763 126.064 137.452C126.064 138.418 128.066 137.866 128.066 138.797C128.066 139.211 127.021 138.935 127.021 139.349C127.021 139.435 127.109 139.573 127.216 139.573C127.127 139.711 125.833 140.211 125.833 140.211C125.887 140.348 125.975 140.486 126.028 140.624C125.887 140.676 125.692 140.814 125.692 140.952C125.692 141.641 126.967 143.951 127.818 143.951C127.676 144.641 127.286 144.417 126.773 144.417C126.631 144.417 126.436 144.451 126.294 144.503L126.064 144.968C125.833 145.985 125.444 146.261 125.444 147.037C124.877 147.123 124.398 147.813 124.398 148.106C124.398 148.433 124.629 148.52 124.629 148.744C124.629 149.123 124.062 149.795 124.062 150.312C123.3 150.502 123.211 151.054 122.591 151.054C122.113 151.054 121.971 150.692 121.971 150.416C121.209 150.226 120.695 149.675 119.88 149.675C119.508 149.675 119.26 150.174 118.693 150.174C118.551 150.14 118.445 149.916 118.303 149.916Z" fill="#C5D1FB"/>
<path d="M130.971 146.865C130.777 147.089 130.741 147.33 130.458 147.33C129.749 147.33 129.465 146.451 129.465 145.761C129.465 144.831 130.227 145.02 131.025 145.02C131.84 145.02 132.159 144.831 132.832 144.831C133.452 144.831 133.877 145.158 134.497 145.158C135.454 145.158 135.773 144.382 135.915 143.676C136.057 143.676 136.11 143.451 136.145 143.296H135.862C135.295 143.676 134.622 144.072 134.338 144.365H133.966L130.635 143.813C129.412 143.813 128.828 145.33 128.828 146.451C128.828 146.727 128.455 146.951 128.402 147.14C128.066 148.192 127.552 148.623 127.552 149.64C127.552 150.192 128.207 150.192 128.509 150.243C128.509 150.985 128.509 151.95 128.509 152.45C128.509 152.726 128.881 153.053 129.27 153.053C129.802 153.053 129.979 151.433 129.979 151.209C129.979 150.605 129.554 150.278 129.554 149.692C129.554 149.364 129.926 149.14 130.263 149.14C130.404 149.14 130.493 149.192 130.635 149.14L130.44 150.106C130.44 150.709 131.202 150.933 131.202 151.536C131.202 151.674 131.255 151.812 131.202 151.95H131.822C131.822 151.45 132.867 151.485 132.867 150.985C132.672 150.933 132.212 150.433 132.212 150.157C132.212 150.071 132.354 149.985 132.407 149.881C132.123 149.744 131.22 148.089 131.22 147.933C132.548 147.933 132.637 146.916 133.736 146.589V146.227C133.452 146.175 130.936 146.916 130.883 147.054L130.971 146.865Z" fill="#C5D1FB"/>
<path d="M122.91 157.018C122.432 157.018 122.485 156.691 121.918 156.691C121.776 156.691 121.865 157.018 121.918 157.156C120.358 156.553 118.746 156.467 116.886 156.467C116.319 156.467 116.177 155.863 115.698 155.863C114.795 155.863 114.033 155.812 113.094 155.536C112.385 155.312 111.676 155.76 111.198 155.312C110.719 154.846 110.347 154.295 109.639 154.295C109.692 154.157 110.542 153.329 110.826 153.329C110.968 153.329 111.056 153.519 111.198 153.519C111.481 153.519 111.676 153.243 111.96 153.243C113.377 153.243 113.997 154.726 115.557 154.726C116.265 154.726 116.407 154.036 116.974 154.036C117.931 154.036 118.25 154.863 119.118 154.863L120.536 154.674H120.908C120.855 154.915 119.242 155.036 119.154 155.001C119.667 155.501 120.288 155.605 121.138 155.605C121.422 155.605 121.422 155.932 121.528 156.018C121.865 156.346 122.237 155.967 122.662 156.105C123.087 156.242 123.087 156.38 123.424 156.518C123.335 156.691 122.999 157.018 122.91 157.018Z" fill="#C5D1FB"/>
<path d="M131.875 157.311C131.22 157.311 130.546 157.311 130.174 157.311C129.838 157.311 129.129 157.363 129.129 156.846C129.129 156.467 129.66 156.518 129.979 156.518C130.83 156.518 131.167 156.846 131.875 156.846C132.584 156.846 132.832 156.57 133.257 156.38C132.921 156.984 132.495 157.122 131.875 157.311Z" fill="#C5D1FB"/>
<path d="M127.889 157.26H127.464L127.092 157.07C126.613 157.26 126.418 157.535 125.958 157.535C125.568 157.535 125.001 157.397 125.001 157.208C125.001 156.691 125.373 156.742 125.816 156.742C126.241 156.742 126.472 156.829 126.72 156.932C126.72 156.794 126.773 156.691 126.773 156.553H127.907C127.889 156.932 127.801 157.156 127.889 157.26Z" fill="#C5D1FB"/>
<path d="M129.59 159.242C129.36 159.242 129.307 158.777 129.307 158.639C128.828 158.639 128.066 158.587 128.066 158.139C128.066 157.759 128.633 157.863 128.97 157.863C129.112 157.863 129.307 157.863 129.448 157.863C129.448 158.518 130.157 158.363 130.157 158.932C130.157 159.07 129.927 159.259 129.785 159.259C129.75 159.242 129.643 159.242 129.59 159.242Z" fill="#C5D1FB"/>
<path d="M123.902 156.518C124.043 156.518 124.185 156.518 124.327 156.518C124.557 156.518 124.557 156.76 124.752 156.846C124.699 157.122 124.504 157.311 124.274 157.311C124.132 157.311 123.884 157.122 123.884 156.984C123.902 156.846 123.902 156.656 123.902 156.518Z" fill="#C5D1FB"/>
<path d="M136.057 157.949C135.827 157.949 136.057 158.415 135.915 158.552C135.685 158.777 134.87 159.328 134.356 159.328C134.161 159.328 134.02 159.104 134.02 158.914C134.02 157.897 134.923 157.897 135.632 157.673C135.774 157.622 135.774 157.346 135.862 157.26C136.341 156.794 138.432 156.622 138.857 156.88C138.378 157.57 136.801 157.949 136.057 157.949Z" fill="#C5D1FB"/>
<path d="M138.75 150.106C138.75 150.192 138.413 150.709 138.271 150.709C137.988 150.709 137.421 150.192 137.421 149.83C137.421 149.261 138.75 149.64 138.75 150.106Z" fill="#C5D1FB"/>
<path d="M143.215 149.537C143.268 149.899 143.782 150.002 143.782 150.364C143.782 150.45 143.587 150.45 143.498 150.45C142.825 150.45 142.506 149.985 141.833 149.985C141.354 149.985 141.124 149.985 140.734 149.985C140.539 149.985 139.884 149.795 139.884 149.795C139.884 149.571 140.114 149.468 140.22 149.382H142.364C142.453 149.709 142.79 149.571 143.073 149.571L143.215 149.537Z" fill="#C5D1FB"/>
<path d="M139.743 145.399V145.072C140.115 145.072 140.647 145.02 140.824 144.986C140.788 144.624 140.452 144.52 140.452 144.296C140.452 144.02 140.93 143.969 140.93 143.693C140.133 143.503 139.796 143.141 139.707 142.486C139.318 142.676 139.282 143.038 139.282 143.417C139.282 144.02 139.654 144.193 139.654 144.71C139.654 145.175 139.654 145.037 139.654 145.313C139.654 145.589 139.796 146.192 140.274 146.192C140.026 145.848 139.938 145.675 139.743 145.399Z" fill="#C5D1FB"/>
<path d="M137.297 136.47C137.262 136.349 137.138 136.263 137.049 136.142C136.872 136.384 136.659 136.453 136.659 136.694C136.659 136.97 137.173 137.108 137.155 137.539C137.155 137.866 136.978 138.09 136.677 138.09C136.553 138.09 136.464 137.883 136.464 137.763C136.34 137.832 136.163 137.797 136.039 137.797C135.437 137.78 134.923 137.142 134.94 136.366C134.94 136.091 135.029 135.97 135.171 135.884C135.135 135.763 135.047 135.608 135.011 135.487L134.409 135.47C134.409 135.591 134.356 135.711 134.409 135.832C134.143 135.832 134.072 135.711 133.984 135.625C133.984 135.625 133.895 135.78 133.842 135.832C133.718 135.78 133.417 135.453 133.417 135.453C132.974 135.849 133.045 137.177 132.566 137.159C132.212 137.159 132.584 136.401 132.584 136.228C132.584 136.108 132.424 135.953 132.424 135.832C132.424 135.435 132.602 135.194 132.708 134.798C133.611 134.815 133.417 133.918 134.196 133.936C134.763 133.953 134.657 134.591 134.958 134.591C135.047 134.591 135.135 134.591 135.224 134.591C135.224 134.315 135.366 134.108 135.631 134.074C135.649 133.505 136.411 133.677 136.553 133.453C136.695 133.177 136.659 132.608 136.695 132.488C136.996 132.488 137.208 132.695 137.386 132.867C137.722 133.194 138.413 135.573 138.413 135.935C138.395 136.384 137.882 136.608 137.864 137.297C137.687 137.246 137.315 136.366 137.315 136.28L137.297 136.47Z" fill="#C5D1FB"/>
<path d="M126.808 134.125H126.507C126.968 132.919 128.438 132.47 128.934 131.591C129.023 131.384 129.023 131.195 129.165 131.074C129.165 131.471 129.377 131.557 129.537 131.712C129.36 131.833 129.324 131.953 129.094 131.953C129.005 132.315 128.704 132.384 128.35 132.384C128.172 133.315 127.34 133.815 126.808 134.125Z" fill="#C5D1FB"/>
<path d="M129.2 124.248C129.377 123.972 129.466 123.403 129.483 123.058C129.501 122.575 129.288 122.248 129.288 121.765C129.288 121.369 129.395 120.972 129.731 120.972C130.21 120.989 130.103 121.696 130.493 121.713C130.759 121.713 130.883 121.403 131.06 121.317C131.06 121.351 131.149 121.472 131.131 121.524C131.131 121.61 131.22 121.731 131.22 121.8C131.202 122.317 131.769 122.937 131.751 123.61C131.734 124.489 130.954 124.558 130.936 125.403C130.918 126.006 131.503 127.023 131.982 127.23C131.982 127.195 131.982 127.075 131.982 127.023C131.982 126.868 132.212 126.713 132.46 126.713C132.974 126.73 133.098 127.644 133.346 127.661C133.523 127.661 133.559 127.385 133.736 127.385C133.824 127.385 133.913 127.471 134.002 127.471C133.948 127.713 133.736 127.747 133.736 127.954C133.736 128.023 133.948 128.006 134.037 127.954C134.037 128.264 134.285 128.437 134.586 128.437C134.586 128.557 134.586 128.643 134.586 128.764C134.586 128.85 134.498 129.005 134.409 129.005C134.285 129.005 134.232 128.799 134.196 128.678C133.948 128.195 132.921 127.816 132.655 127.454C132.442 127.73 132.566 127.885 132.69 128.212C132.088 128.212 132.052 127.316 131.45 127.316C131.202 127.316 131.007 127.557 130.759 127.54C130.458 127.54 130.121 127.161 130.121 126.971C130.121 126.73 130.298 126.609 130.387 126.523V126.127H130.139C130.05 126.247 129.962 126.402 129.82 126.402C129.643 126.402 128.881 125.902 128.881 125.661C128.916 125.006 128.775 124.161 129.2 124.248Z" fill="#C5D1FB"/>
<path d="M136.553 131.212L135.898 131.195C135.933 131.522 136.092 131.919 136.27 132.005V132.246C136.146 132.246 136.022 132.246 135.88 132.246C135.579 132.246 135.49 131.919 135.667 131.677V131.436C135.366 131.436 135.065 131.022 135.029 130.902V130.66C135.242 130.66 135.543 130.678 135.596 130.678C135.685 130.678 135.809 130.522 135.809 130.436C135.827 129.867 134.87 129.574 134.781 129.247C134.923 129.212 135.047 129.092 135.171 129.092C135.508 129.092 135.773 129.264 136.128 129.264C136.128 129.385 136.163 129.54 136.128 129.66C136.216 129.66 136.305 129.66 136.394 129.66C136.429 129.902 136.376 130.298 136.376 130.298C136.376 130.298 136.677 130.66 136.713 130.66C136.695 130.919 136.606 131.04 136.553 131.212Z" fill="#C5D1FB"/>
<path d="M132.3 129.971C132.477 130.178 133.558 130.316 133.541 130.678C133.523 131.367 132.531 131.712 132.141 131.936C132.158 131.246 131.999 130.488 131.999 130.126C131.999 130.04 132.176 129.936 132.265 129.936C132.353 129.936 132.477 130.109 132.513 130.143L132.3 129.971Z" fill="#C5D1FB"/>
<path d="M134.392 131.695C134.374 132.177 133.896 132.488 133.896 132.97C133.896 133.332 134.108 133.246 134.108 133.505C134.108 133.591 133.931 133.694 133.842 133.694C133.665 133.694 132.903 132.919 132.903 132.626C132.903 132.505 133.169 132.384 133.293 132.384C133.293 132.264 133.541 131.264 133.754 131.229C134.179 131.126 134.392 131.453 134.392 131.695Z" fill="#C5D1FB"/>
<path d="M134.958 131.298C134.941 132.022 134.374 132.212 134.374 132.815C134.321 132.815 134.197 132.815 134.161 132.815C134.303 132.333 134.569 132.022 134.586 131.298C134.693 131.298 134.834 131.298 134.958 131.298Z" fill="#C5D1FB"/>
<path d="M135.508 132.315C135.508 132.763 135.189 133.108 134.799 133.108C134.71 133.108 134.551 132.988 134.551 132.901C134.551 132.66 134.817 132.539 134.958 132.298C135.153 132.384 135.366 132.47 135.508 132.315Z" fill="#C5D1FB"/>
<path d="M133.523 129.661C133.523 129.385 133.523 129.212 133.541 129.057H133.931C134.055 129.419 134.622 129.557 134.604 130.074C134.604 130.281 134.126 129.867 134.126 129.661C133.913 129.643 133.736 129.678 133.523 129.661Z" fill="#C5D1FB"/>
<path d="M131.149 129.35C130.884 129.35 129.927 127.799 129.927 127.799H130.352C130.866 128.126 131.344 128.057 131.468 128.54C131.539 128.868 131.309 129.35 131.149 129.35Z" fill="#C5D1FB"/>
<path d="M131.592 128.075C131.68 128.161 131.928 128.126 132.017 128.075C131.946 127.988 131.68 128.023 131.592 128.075Z" fill="#C5D1FB"/>
<path d="M130.033 115.439C129.183 115.439 129.324 114.835 129.324 114.146C129.324 113.18 130.317 111.37 130.99 111.37C132.159 111.37 131.114 115.439 130.033 115.439Z" fill="#C5D1FB"/>
<path d="M113.803 119.679C114.175 119.679 115.805 118.524 116.407 118.524C116.638 118.524 116.974 118.938 116.974 119.214C116.974 119.852 115.557 121.283 114.848 121.283C114.139 121.283 113.803 120.955 113.803 120.369C113.803 120.093 113.572 119.679 113.803 119.679Z" fill="#C5D1FB"/>
<path d="M110.578 149.123C110.489 149.123 110.294 148.623 110.241 148.468C110.046 148.106 109.284 148.33 109.284 147.968C109.284 147.744 109.94 147.416 110.276 147.365C110.507 148.054 110.79 148.933 111.464 148.933C111.464 149.071 111.464 149.261 111.517 149.399C111.428 149.399 111.286 149.399 111.18 149.399C110.914 149.416 110.773 149.123 110.578 149.123Z" fill="#C5D1FB"/>
<path d="M112.703 148.899C112.845 148.899 113.04 148.899 113.182 148.899C113.323 148.899 113.465 149.088 113.607 149.123C113.554 149.399 113.359 149.675 113.075 149.675C112.792 149.675 112.703 149.347 112.703 149.123C112.703 149.088 112.668 148.899 112.703 148.899Z" fill="#C5D1FB"/>
<path d="M100.849 146.865C101.221 147.33 101.558 147.606 101.505 148.158C101.274 148.106 100.654 147.365 100.654 147.054C100.654 147.003 100.654 146.916 100.654 146.865H101.044C101.044 146.916 101.044 147.089 101.044 147.089L100.849 146.865Z" fill="#C5D1FB"/>
<path d="M99.1844 144.055C99.4679 144.227 100.23 145.158 99.8401 145.158C99.6451 145.158 99.025 144.417 98.9895 144.141H98.9541L99.1844 144.055Z" fill="#C5D1FB"/>
<path d="M143.498 101.32L143.675 100.682C143.392 100.596 143.339 100.303 143.303 100.079C143.303 100.217 143.215 100.355 143.303 100.493C143.073 100.493 142.878 100.682 142.736 100.682C142.506 100.682 142.258 100.407 142.258 100.182C142.258 99.9066 143.587 99.0275 143.728 99.0275C144.101 99.0275 144.402 99.3895 144.969 99.3895C144.969 99.5274 144.88 99.8549 145.022 99.8549L145.447 100.234C145.447 100.372 145.359 100.562 145.447 100.7C145.305 100.7 145.164 100.786 145.022 100.7C144.88 101.527 144.508 102.958 143.835 102.958C143.693 102.958 143.693 102.682 143.693 102.544V102.82C143.321 102.82 143.037 102.268 143.037 102.079C143.02 101.958 143.498 101.32 143.498 101.32Z" fill="#C5D1FB"/>
<path d="M148.478 99.6998C148.106 99.6998 147.911 99.424 147.769 99.3722C147.344 99.786 147.255 100.527 146.635 100.527C146.387 100.527 146.298 100.062 146.352 99.8377C146.068 99.6481 145.979 99.5619 145.979 99.3378C145.979 99.3378 146.883 98.6827 146.883 98.6482C147.698 98.8896 147.84 98.0966 148.496 98.0966C149.523 98.0793 148.956 99.6998 148.478 99.6998Z" fill="#C5D1FB"/>
<path d="M149.948 99.0447C149.807 99.0447 149.948 98.8206 149.948 98.6827C149.948 98.4068 150.09 98.0793 150.09 97.9069C149.523 97.769 149.24 97.4932 148.673 97.4932C148.389 97.4932 148.336 97.8207 148.194 97.8552C147.804 98.0448 147.521 97.8035 147.149 97.9931C146.529 98.2689 145.678 98.6309 144.686 98.6309C144.349 98.6309 144.013 98.6309 144.013 98.4413C144.013 98.3034 144.438 98.2172 144.633 98.1138C145.625 97.4587 146.05 96.3037 147.291 96.3037C148.708 96.3037 149.151 96.3037 150.232 96.3037C151.047 96.3037 151.331 94.8729 151.756 94.8729C151.809 94.8729 152.429 93.7696 152.553 93.7179C152.411 93.8558 152.323 94.0455 152.323 94.2179C152.323 94.304 152.465 94.442 152.553 94.442C153.262 94.442 153.368 93.9765 153.935 93.8041C154.927 93.4766 156.54 91.5459 156.54 90.0633C156.54 89.7358 156.345 89.7358 156.345 89.5117C156.345 88.9601 156.823 87.8051 157.443 87.8051C157.532 87.8051 157.497 88.4084 158.064 87.943C158.01 87.943 157.975 87.8913 157.922 87.8913C157.78 87.8913 157.692 87.4775 157.833 87.4775C158.17 87.4775 158.347 87.5637 158.4 87.7016C158.542 88.0292 158.489 88.305 158.489 88.6153C158.489 89.2704 159.144 89.5807 159.144 90.2357C159.144 90.977 158.489 91.0632 158.489 91.6665C158.489 91.7527 158.489 91.8562 158.489 91.9423C158.347 92.0803 158.205 91.9941 158.064 92.0285C157.585 92.1665 157.727 93.5973 157.727 94.0972C157.727 94.5109 157.213 94.7867 157.213 95.3901C157.213 95.8038 157.355 95.9934 157.443 96.2692C156.876 96.5451 156.876 97.0105 156.309 97.2001C156.115 96.8381 156.309 96.7864 156.363 96.4589C155.707 96.8726 155.264 96.9243 155.087 97.5621C154.998 97.5621 154.857 97.4242 154.857 97.338H154.378C154.095 97.6139 153.811 97.8897 153.421 97.8897C152.429 97.8897 152.482 97.0967 152.039 97.0967C151.898 97.0967 151.756 97.3208 151.756 97.4587C151.756 97.6483 152.181 98.2 152.234 98.2C152.092 98.2517 151.898 98.2517 151.756 98.2517C151.419 98.2517 150.852 98.993 150.622 99.4412C150.232 99.4239 150.285 99.0447 149.948 99.0447Z" fill="#C5D1FB"/>
<path d="M157.355 84.3746C157.497 84.4263 157.692 84.3746 157.834 84.3746C158.631 84.3746 158.967 82.5818 158.967 81.9784C158.967 81.7888 158.737 81.7026 158.737 81.513C158.737 81.1855 158.932 81.0475 159.021 80.9096C160.296 81.7371 160.881 83.2196 162.724 83.2196C163.096 83.2196 163.433 82.9438 163.716 83.1334C163.627 83.3748 163.433 83.461 163.433 83.6851C163.433 83.9609 163.822 84.2367 164 84.2884C163.574 84.5642 163.238 84.7021 162.529 84.7021C161.537 84.7021 161.2 85.7537 160.828 86.3053C160.066 85.8399 159.605 85.7537 158.79 85.2365C158.649 85.2883 158.454 85.4606 158.454 85.6158C157.834 85.6158 157.036 85.1504 157.036 85.9433C157.036 86.4088 157.745 86.4088 157.94 86.5812C157.568 87.0811 157.178 86.9087 156.806 87.2707H156.522C156.522 86.9949 156.522 86.3053 156.522 86.2019C156.522 86.0123 156.292 85.9261 156.292 85.7365C156.292 85.2365 157.054 84.909 157.142 84.5815V84.2195C157.231 84.3057 157.337 84.3574 157.479 84.4436L157.355 84.3746Z" fill="#C5D1FB"/>
<path d="M164.903 82.4783L165.133 82.668C164.938 82.9438 164.371 83.6333 163.946 83.6333C163.804 83.6333 163.857 83.3575 163.946 83.2196C164.141 82.9438 164.655 82.5301 165.044 82.5301L164.903 82.4783Z" fill="#C5D1FB"/>
<path d="M168.27 81.1337C167.171 81.1337 167.171 82.0646 166.516 82.0646C166.463 82.0646 166.516 81.875 166.516 81.8405C166.516 81.8405 166.994 80.8234 167.561 80.8234C167.845 80.8234 168.075 80.8751 168.27 80.8234V81.1337Z" fill="#C5D1FB"/>
<path d="M169.775 80.1339C169.917 80.1339 169.775 79.8925 169.829 79.7719C169.917 79.496 170.484 79.496 170.59 79.496C170.537 79.7719 170.165 80.4269 169.775 80.4269C169.687 80.4097 169.687 80.1339 169.775 80.1339Z" fill="#C5D1FB"/>
<path d="M161.519 74.221C160.243 74.221 160.101 75.7036 160.101 76.893C160.101 77.9618 161.093 78.4617 161.483 79.2547C161.483 79.2547 161.377 79.3064 161.341 79.3064C161.147 79.3581 160.916 79.0306 160.863 78.841C160.721 78.841 160.526 78.841 160.385 78.841C159.818 78.841 159.818 79.8581 159.251 79.8581C159.109 79.8581 159.251 78.7548 159.251 78.5135C159.251 77.686 159.446 77.1344 159.446 76.4276C159.446 75.7725 159.162 75.6863 159.162 75.1347C159.162 74.4451 159.392 74.2555 159.392 73.7039C159.392 72.4972 159.392 72.1352 159.392 70.9802C159.392 70.2906 158.684 70.0148 158.684 69.3253C158.684 68.3599 158.967 67.1015 159.676 66.9636C159.676 66.6878 159.871 66.6016 159.871 66.3602C159.871 65.8948 159.871 65.7569 159.871 65.3949C159.959 65.3949 160.101 65.3949 160.207 65.3949C160.207 66.3258 160.58 66.9119 160.774 67.5152C160.969 68.153 160.58 68.6185 160.916 69.2736V70.3768C160.828 70.8423 161.146 71.3422 161.253 71.618C161.643 72.773 162.245 73.6866 162.529 74.8072C162.28 74.4969 161.944 74.221 161.519 74.221Z" fill="#C5D1FB"/>
<path d="M44.7703 32.1242C43.7249 31.1072 42.0239 30.7452 42.0239 28.9868C42.0239 26.039 45.3019 22.936 47.7116 22.2982C48.5621 22.0741 48.7925 21.057 49.9796 21.057C50.5466 21.057 50.7415 20.1261 51.025 20.0055C52.5843 19.2642 53.7714 19.6435 55.437 18.8505C56.6241 18.2988 60.2742 18.023 60.2742 16.4543C60.2742 15.9544 58.9453 15.2993 58.3783 15.2993C56.004 15.2993 53.7714 17.9368 51.2554 17.9368C50.6884 17.9368 50.4049 17.3852 49.8379 17.3852C48.9342 17.3852 48.9342 17.9368 48.3141 17.9368C46.5599 17.9368 45.231 20.1434 44.0438 20.1434C43.3351 20.1434 42.8567 20.4709 42.1479 20.4709C41.8113 20.4709 41.6695 20.7467 41.6695 20.9364C41.6695 21.2122 42.0062 21.4018 42.0062 21.7638C42.0062 23.0567 39.5433 23.7463 39.5433 24.5392C39.5433 24.9012 40.2166 25.0047 40.252 25.5563C39.4901 25.7459 37.9663 26.0735 37.9663 26.8492C37.9663 27.3491 37.9663 27.5388 37.9663 27.5388C37.9663 28.3662 36.5488 28.28 36.5488 29.3833C36.5488 29.9349 37.3993 30.2969 37.3993 30.2969C37.3993 30.2969 38.6751 30.2452 38.8168 30.2969C39.6142 30.5211 39.1889 31.2623 39.5256 31.9174C39.6142 32.1415 40.3761 31.9174 40.7127 31.9174C40.8545 31.9174 40.9431 32.1932 41.0494 32.2449H44.7526C44.6108 31.9691 44.4159 31.7795 44.2742 31.6933L44.7703 32.1242Z" fill="#C5D1FB"/>
<path d="M208.916 31.2106C208.632 31.2106 208.438 30.9865 208.438 30.7452C208.438 30.0556 209.855 29.2281 210.67 29.2281C211.379 29.2281 213.186 29.6936 213.186 30.3831C213.186 30.9693 209.447 31.2106 208.916 31.2106Z" fill="#C5D1FB"/>
<path d="M195.502 34.0722C195.733 34.0722 195.981 33.8309 195.981 33.6068C195.981 33.331 195.697 33.2275 195.644 33.0551H194.085C194.351 33.6068 194.829 34.0722 195.502 34.0722Z" fill="#C5D1FB"/>
<path d="M150.799 18.8332L150.32 18.3678C150.125 18.5919 149.948 18.7815 149.948 19.0573C149.948 19.3332 150.09 19.4194 150.32 19.4194C150.692 19.4194 150.746 19.0056 150.799 18.7298H150.657L150.799 18.8332Z" fill="#C5D1FB"/>
<path d="M120.199 22.6602C119.862 22.8499 119.543 22.9878 119.1 22.9878C118.569 22.9878 118.055 22.8499 118.055 22.4361C118.055 21.9707 118.622 21.7466 119.1 21.7466C119.756 21.7466 120.199 21.8845 120.199 22.4361C120.199 22.712 119.968 22.8499 119.809 22.9878L120.199 22.6602Z" fill="#C5D1FB"/>
<path d="M102.037 12.8342C101.47 12.8342 101.328 12.6101 101.328 12.1447C101.328 11.4034 101.895 11.4034 102.179 11.1276C103.277 10.0588 103.702 8.35217 105.598 8.35217C106.024 8.35217 106.024 8.35217 106.218 8.35217C106.218 9.00724 106.467 9.00724 106.077 9.36925C106.413 9.26582 106.608 8.90381 106.927 8.90381C107.583 8.90381 109.532 10.0933 109.532 10.7483C109.532 11.8516 107.069 12.0412 106.218 11.9033C106.024 11.9033 104.553 12.1447 104.553 12.1447L102.037 12.8342Z" fill="#C5D1FB"/>
<path d="M91.1226 6.1456C91.3529 6.1456 92.6818 6.74895 93.0184 6.83514C92.9299 7.66259 91.3529 7.76602 90.7859 7.76602C90.5024 7.76602 89.8291 7.02477 89.8291 6.61104C89.8468 6.1456 90.8391 6.1456 91.1226 6.1456Z" fill="#C5D1FB"/>
<path d="M101.558 9.74848C101.558 10.1622 101.044 10.438 100.601 10.438C98.5106 10.438 97.0046 9.61057 95.2858 9.61057C94.7188 9.61057 93.4785 8.31767 92.7698 7.95566C94.329 7.45574 94.8074 6.93858 96.3312 6.47314C95.8528 6.47314 94.6302 6.38695 94.3467 6.38695C93.0178 6.38695 92.1142 6.0077 90.8916 5.42158C92.8761 4.86995 93.6026 2.69788 95.8706 2.69788C97.1995 2.69788 97.9614 3.93906 98.7233 4.49069C98.2449 4.68032 98.3512 4.57689 98.1563 4.54241C98.2094 5.09405 98.1563 5.23196 98.1563 5.4733C98.1563 5.74912 97.6247 6.11113 97.2526 6.30075C97.731 6.16284 97.8728 6.30075 98.2449 6.30075C98.8119 6.30075 99.0954 6.76619 99.6624 6.76619C99.999 6.76619 100.283 6.76619 100.619 6.76619C101.576 6.76619 101.576 7.09373 102.178 7.69708C101.7 8.05909 101.806 8.16252 101.806 8.61073C101.806 9.07617 101.133 9.11065 100.867 9.21408C101.186 9.28304 101.558 9.42095 101.558 9.74848Z" fill="#C5D1FB"/>
<path d="M95.7646 15.3683C96.0482 15.2304 96.2785 15.0407 96.4734 14.9028H97.1822C97.0936 15.5407 96.8101 15.8165 96.2431 15.8165C96.0127 15.8337 95.8178 15.5924 95.7646 15.3683Z" fill="#C5D1FB"/>
<path d="M90.5551 3.28401C89.8463 3.3702 88.9427 3.52535 88.6592 2.922H90.4133L90.5551 3.28401Z" fill="#C5D1FB"/>
<path d="M112.615 11.8171C112.562 12.1447 112.332 12.5067 111.995 12.5067C111.428 12.5067 111.18 12.1791 111.038 11.955C112.048 11.7654 112.19 12.0067 112.615 11.8171Z" fill="#C5D1FB"/>
<path d="M34.8999 5.45607C34.1026 6.05942 33.6773 5.40435 32.9154 5.81808C32.4902 6.04218 32.4016 6.88688 31.9586 6.83516C31.7283 6.78345 31.5865 6.55934 31.4448 6.36972H31.4802C30.7715 6.36972 30.2931 6.23181 30.1513 5.81808C30.5234 5.62845 30.7715 5.54226 31.1436 5.45607C30.7183 5.45607 30.488 5.40435 30.2931 5.36987C30.5234 5.23196 30.7715 5.12853 31.0018 4.95614C30.5765 4.81823 30.3462 4.54241 29.9032 4.54241C29.3894 4.54241 28.4857 5.14577 27.7593 5.14577C27.3695 5.14577 27.1037 5.00786 26.7139 4.95614C27.1391 4.21487 29.3717 4.07697 30.3639 4.07697C31.5511 4.07697 32.2067 4.68032 33.1103 4.68032C33.8191 4.68032 34.1557 4.07697 34.8645 4.07697C35.4315 4.07697 35.9985 4.43898 36.282 4.54241C36.1934 5.36987 35.5732 4.95614 35.0062 5.36987C34.8645 5.42159 34.6696 5.42159 34.5278 5.36987V5.83532L34.8999 5.45607Z" fill="#C5D1FB"/>
<path d="M52.4596 4.30107C51.8926 4.30107 51.6445 4.07696 51.6445 3.61152C51.6445 2.97369 53.5936 2.23242 54.3023 2.23242L54.958 3.71495C54.639 3.92181 52.7963 4.30107 52.4596 4.30107Z" fill="#C5D1FB"/>
<path d="M50.7939 3.97354C50.847 4.38727 50.7939 4.47346 50.7939 4.66308C50.5104 5.0768 50.032 4.88718 49.6067 4.88718L49.8371 5.43881C49.5536 5.57672 47.2324 5.66291 47.2324 5.43881C47.2324 4.74927 47.6045 4.37003 48.1715 4.19764C48.1184 3.83564 48.1715 3.68049 48.1715 3.5943H49.7308C49.6422 3.8184 49.3587 3.97354 49.2524 3.97354C49.5713 4.02526 50.3686 4.05974 50.7939 3.97354Z" fill="#C5D1FB"/>
<path d="M44.6284 6.61103C44.3449 6.61103 43.9727 6.1456 43.6715 6.1456C43.5829 6.61103 43.388 6.61103 42.9628 6.61103C42.7324 6.61103 42.4844 6.47313 42.4844 6.2835C42.4844 5.62845 44.3803 5.35263 44.8587 5.35263C45.4789 5.35263 45.9573 5.57673 46.1876 5.90426C45.2485 5.90426 45.3017 6.61103 44.6284 6.61103Z" fill="#C5D1FB"/>
<path d="M44.6287 4.43899C44.0616 4.43899 43.2997 4.99062 42.7327 4.99062C42.3961 4.99062 40.4647 4.16317 40.3584 4.11145C40.6419 3.88735 40.7305 3.78392 40.9786 3.61153H42.9631C42.4492 3.4219 42.6264 3.24952 42.1657 3.52534V2.90474C43.5832 2.90474 43.6364 1.97386 45.0185 1.97386C45.0716 1.56013 45.3906 1.18088 45.8158 1.18088C45.9221 1.18088 45.9576 1.59461 45.9576 1.73251C45.7627 1.87042 45.5323 2.09453 45.5323 2.33587C44.7704 2.80131 43.8313 3.07713 43.3529 3.54257C44.6818 3.71496 45.0185 3.81839 46.0639 4.23212C45.6741 4.52518 45.1602 4.43899 44.6287 4.43899Z" fill="#C5D1FB"/>
<path d="M160.774 20.3503C160.384 20.3503 160.154 20.8157 159.587 20.8157C159.25 20.8157 159.055 20.3503 158.736 20.3503C158.346 20.3503 158.169 20.6778 157.779 20.6778C157.496 20.6778 157.212 21.0398 156.734 21.0398C156.309 21.0398 156.114 20.8502 155.884 20.5744C155.547 20.8502 155.317 21.2639 154.838 21.2639C153.598 21.2639 152.464 20.2986 152.464 19.178C152.464 18.1265 153.598 17.3335 154.59 17.3335C156.061 17.3335 156.149 18.816 157.443 18.816C157.443 18.1265 157.673 17.5748 158.24 17.5748C159.091 17.5748 161.89 18.5402 162.882 18.816C162.688 19.4539 162.032 19.971 162.032 20.333H160.774V20.3503Z" fill="#C5D1FB"/>
<path d="M11.5652 97.9931C11.4234 97.9931 11.2285 97.9069 11.2285 97.7518C11.1222 97.7518 10.9805 97.6139 10.9805 97.5277C11.6892 97.2001 12.9295 96.7347 13.7269 96.5968C13.6383 97.0622 13.3902 96.8726 13.1067 97.0105C12.965 97.0622 13.0536 97.338 13.0181 97.476C12.8941 97.7518 11.9904 97.9931 11.5652 97.9931Z" fill="#C5D1FB"/>
<path d="M39.1357 129.385C39.1889 129.609 39.5079 129.712 39.6496 129.712C40.0217 129.712 40.4115 129.35 40.5001 129.161C39.8977 129.143 39.561 129.23 39.1357 129.385Z" fill="#C5D1FB"/>
<path d="M32.4375 34.9859C32.6679 34.9859 32.7742 34.5204 33.0046 34.5204C33.6779 34.5204 33.9968 35.1238 34.6702 35.21V35.8133C34.05 36.1409 33.483 36.5891 32.6679 36.5891C32.1009 36.5891 31.8174 36.5029 31.8174 36.0374C31.8174 35.865 32.3489 34.9859 32.4375 34.9859Z" fill="#C5D1FB"/>
<path d="M48.3316 33.9688C48.3316 34.2963 47.7115 34.1929 47.7115 34.1929C47.0913 34.1929 46.0459 33.5895 46.0459 33.0379C46.0636 32.1243 48.3316 33.0551 48.3316 33.9688Z" fill="#C5D1FB"/>
<path d="M61.6206 26.1252C62.1876 26.1252 63.2862 25.7976 63.5166 25.6253C63.0381 25.2632 62.8964 24.7461 62.3294 24.7461C61.9041 24.7461 61.6206 25.2632 61.6206 25.677C61.6206 25.7976 61.4789 26.1252 61.6206 26.1252Z" fill="#C5D1FB"/>
<path d="M156.593 24.7461C157.16 24.0048 157.78 23.367 158.861 23.367C160.101 23.367 161.04 24.16 161.093 25.2115H159.676C158.825 24.7461 157.727 24.8495 156.823 24.522L156.593 24.7461Z" fill="#C5D1FB"/>
<path d="M165.133 19.0746C165.558 19.4021 170.537 19.9882 170.732 19.9882C171.015 19.9882 171.21 20.2123 171.21 20.4537C171.21 20.9536 169.828 21.1432 169.066 21.1432C167.844 21.1432 165.611 20.5916 165.611 19.4366L165.133 19.0746Z" fill="#C5D1FB"/>
<path d="M157.78 22.7637C157.78 23.1257 157.408 23.367 157.071 23.367C156.557 23.367 156.504 23.1946 156.504 22.7637C156.504 22.0224 157.78 22.1086 157.78 22.7637Z" fill="#C5D1FB"/>
<path fill-rule="evenodd" clip-rule="evenodd" d="M158.755 149.433L156.93 156.604C156.646 156.398 156.345 156.242 155.937 156.242C155.742 156.242 155.229 156.294 155.229 156.518H154.236C153.9 156.518 153.474 156.518 153.474 156.156C153.474 155.605 154.378 155.363 154.662 155.225C154.006 154.57 154.289 153.932 154.041 153.243C153.864 152.691 152.518 152.174 152.057 151.95C151.543 151.726 150.25 151.485 149.505 151.485C148.797 151.485 148.513 150.278 147.751 150.519V150.106C147.609 150.468 147.415 150.933 147.042 150.933C146.901 150.933 146.617 150.933 146.564 150.795C146.334 150.33 146.564 150.14 146.334 149.778C146.086 149.416 145.572 149.588 145.483 149.226C146.139 148.899 147.574 149.002 147.911 148.451H147.574C147.06 148.589 146.724 148.64 146.192 148.64C145.962 148.64 145.767 148.537 145.536 148.502C145.395 148.451 145.306 148.226 145.253 148.089C144.916 147.434 143.782 147.727 143.782 147.072C143.782 146.796 144.154 146.658 144.456 146.658C145.023 146.658 145.359 145.865 146.21 145.865C147.025 145.865 147.627 146.606 148.495 146.796V148.451C148.495 148.692 148.779 148.864 149.204 148.864C149.204 149.054 149.86 149.795 150.161 149.795C150.498 149.795 150.923 149.106 151.011 149.019C151.384 148.657 151.49 148.606 152.145 148.416C152.571 148.278 153.138 147.451 153.705 147.347C153.758 147.571 154.13 147.537 154.272 147.571C154.839 147.761 155.229 148.313 155.512 148.451H156.788C156.983 148.64 157.372 148.761 157.603 148.83L157.497 148.726C157.532 148.761 157.585 148.795 157.621 148.83C157.656 148.847 157.691 148.847 157.727 148.864V148.916C157.957 149.088 158.329 149.278 158.755 149.433Z" fill="#C5D1FB"/>
<path d="M148.956 152.829C149.045 153.208 149.151 153.019 149.151 153.329C149.151 153.605 149.009 153.795 148.779 153.795C148.779 154.26 148.867 154.76 148.495 154.76C148.354 154.76 148.212 154.536 148.212 154.398C148.212 153.933 148.69 153.881 148.69 153.622C148.673 153.277 148.619 152.864 148.956 152.829Z" fill="#C5D1FB"/>
<path d="M144.633 160.535V161.224C144.491 161.224 144.297 161.224 144.155 161.224C143.588 161.224 142.914 160.949 142.737 160.759C143.588 160.587 143.924 160.483 144.633 160.535Z" fill="#C5D1FB"/>
<g filter="url(#filter0_d)">
<path fill-rule="evenodd" clip-rule="evenodd" d="M125.375 9.06753C126.421 10.7224 134.625 11.6533 136.202 12.0671H141.411C141.411 10.6362 142.084 10.1191 143.307 10.2225C153.07 11.0155 149.242 13.36 149.242 13.6875C149.242 14.9804 150.093 17.3766 152.095 17.3766C152.857 17.3766 153.141 15.9457 153.282 15.2907C154.842 15.3769 155.036 16.4457 156.365 16.4457H163.949C164.232 14.6529 164.764 12.7566 168.45 12.7566C172.153 12.7566 175.271 13.4461 178.177 14.3598C179.559 14.7735 179.595 15.8768 180.551 16.6698C181.597 17.5489 184.255 16.8939 186.009 16.8939C189.234 16.8939 190.846 17.7213 191.466 20.1175L202.381 20.3416C203.285 20.2899 206.935 24.8237 205.464 20.3416C205.269 19.721 206.314 19.428 207.838 19.428C213.349 19.428 218.328 21.6862 222.066 23.8066C224.777 25.3236 230.323 26.5648 232.024 28.7885C230.749 29.2023 229.987 29.1161 229.172 30.0297C228.64 30.6331 228.463 32.3397 227.506 32.3397C225.362 32.3397 222.899 28.4093 219.922 28.4093C218.966 28.4093 219.444 29.5643 219.214 30.0297C218.647 31.133 215.9 30.8227 215.9 32.8051C215.9 33.5464 221.517 36.1322 214.483 36.2701C210.78 36.3391 207.803 41.5796 203.568 41.5796C202.151 41.5796 198.624 37.2872 194.797 45.2687C194.337 46.234 194.797 46.7857 194.797 47.3546C194.797 48.182 193.132 48.5958 193.132 50.13C193.132 51.0954 191.005 51.3712 191.236 52.6641C189.287 53.1295 188.631 55.6636 187.674 57.0427C186.345 56.0256 185.778 50.4403 185.778 48.7337C185.778 46.7512 187.444 45.6824 188.631 45.0446C190.049 44.2516 190.952 42.5105 191.945 41.1142C192.795 39.9075 193.964 40.304 195.258 39.4937C198.979 37.1665 196.498 36.1667 195.967 36.2701C190.793 42.476 191.129 38.4767 191.945 37.8905C190.332 37.6664 189.942 37.8905 189.092 37.8905C185.814 37.8905 184.396 39.7006 183.634 42.7346H181.03C179.843 42.7346 178.939 41.8037 177.008 41.8037C175.448 41.8037 169.796 42.2692 167.989 42.7346C165.951 43.2862 164.002 45.6824 162.532 47.1132C161.539 48.0786 158.97 49.5094 158.97 50.8023C158.97 51.0781 160.441 54.25 163.24 52.1814C164.179 51.4918 166.252 53.9225 166.252 55.1637C166.252 56.1807 165.703 57.2323 165.42 57.6978C164.675 58.9734 165.242 59.8353 164.906 61.18C164.622 62.3867 163.559 63.8864 162.815 64.6277C160.919 66.4722 158.368 72.0403 155.657 72.0403C154.186 72.0403 152.343 71.5749 152.343 71.5749C151.209 72.454 150.819 73.1953 150.199 74.4365C150.004 74.7985 149.154 75.2639 148.817 75.5915C148.445 75.9535 147.967 76.281 147.4 76.281C147.311 77.074 147.79 77.4877 148.215 77.9014C149.26 78.9185 149.969 79.9701 149.969 81.7801C149.969 82.8489 149.685 83.3489 149.012 83.5385C148.729 83.6247 147.541 83.6764 147.541 84.0901C146.974 84.228 146.886 84.228 146.602 84.5038H145.894C145.894 84.2797 146.124 84.1246 146.177 83.9005C145.947 83.8488 145.947 83.6247 145.947 83.4351C145.947 83.1075 146.372 82.5042 146.372 82.3662C146.372 82.0904 146.142 81.8663 146.142 81.5733C145.858 81.5216 145.77 81.3492 145.663 81.2457V80.7803C146.053 80.7803 146.425 80.5045 146.425 80.1769C146.425 79.6253 145.716 79.2633 145.149 79.2633C144.813 79.2633 144.636 79.4874 144.494 79.4874C144.157 79.4874 144.015 78.9358 144.015 78.7117C144.015 78.16 144.547 78.2117 144.547 77.7463C144.547 77.1947 144.299 77.1947 144.547 76.7292C143.838 76.7292 143.59 76.2293 143.023 76.2293C141.499 76.2293 140.419 77.6084 139.09 77.6084C139.09 76.7809 139.993 76.4534 139.993 75.7121C139.993 75.4363 139.462 74.833 139.09 74.833C138.611 74.833 138.434 75.2984 138.328 75.4363C137.956 76.0397 136.857 76.7292 136.29 77.1429C135.634 77.6084 134.252 77.2809 134.252 78.2462C134.252 78.7117 135.05 78.884 135.245 79.022C135.812 79.4357 135.617 79.9011 136.202 80.2631C136.574 80.4872 137.052 80.3493 137.442 80.3493C137.725 80.3493 137.725 79.3323 138.097 79.3323C138.629 79.3323 138.806 79.6943 139.143 79.8839C139.816 80.2976 140.525 79.7977 140.897 80.2976C139.94 81.2285 137.903 81.2285 137.477 82.4697C137.282 83.0213 136.485 83.073 136.485 83.6247C136.485 84.2797 137.389 84.7279 137.761 84.7797L137.814 85.6588H137.92L137.867 85.7106C138.292 85.9519 138.292 86.5035 138.434 86.7276C139.285 87.9688 139.763 88.7101 139.763 90.6925C139.763 92.0371 139.054 92.4853 139.054 93.5024C138.345 93.6403 137.07 95.4849 136.768 96.0365C136.343 96.9157 136.007 98.6223 134.873 98.6223C134.784 99.0877 134.536 99.2774 134.164 99.4498C132.835 100.191 132.321 101.484 130.124 101.484C129.646 101.484 129.415 101.122 128.937 101.122C128.848 101.122 128.37 102.001 128.37 102.001C127.803 102.553 126.899 102.363 125.996 102.794C125.623 102.984 124.667 103.122 124.33 103.449C123.958 103.811 124.241 104.414 123.71 104.414C123.285 104.414 123.426 103.484 123.479 103.259C122.576 102.846 122.009 103.122 121.194 102.742C120.255 104.173 117.916 104.501 117.916 106.483C117.916 106.897 118.164 106.983 118.341 107.173C119.44 108.241 119.9 109.431 121.087 110.172C122.221 110.913 122.983 112.948 122.983 114.465C122.983 115.533 122.416 115.947 122.416 116.775C120.893 117.154 120.751 117.654 119.528 118.257C118.961 118.533 119.05 119.274 118.483 119.274C118.341 119.274 118.341 118.998 118.341 118.86V119.36C118.341 119.826 117.384 120.515 117.207 120.515C117.012 120.515 116.835 119.878 116.835 119.584C116.835 119.205 116.835 119.033 117.03 118.947C116.835 118.86 116.746 118.481 116.693 118.257C115.984 118.257 115.028 118.033 115.028 117.343C113.982 117.343 114.514 116.654 113.929 116.102C113.273 115.447 112.6 115.413 111.838 115.171C111.75 115.171 111.608 114.568 111.608 114.568C111.466 114.051 110.899 113.965 110.368 113.965C109.978 113.965 110.084 114.241 110.084 114.465C110.084 114.878 110.279 114.982 110.279 115.344C110.279 116.723 108.897 117.102 108.897 118.343C108.897 119.774 110.509 119.222 110.509 120.567H110.421C110.616 120.895 110.651 121.722 110.988 122.05C112.264 123.291 115.063 123.567 115.063 125.877C115.063 126.342 114.868 126.342 114.868 126.756C114.868 127.583 115.577 127.859 115.772 128.411C115.967 129.014 115.967 129.238 116.197 129.755C115.825 129.807 115.772 129.807 115.577 129.807C115.435 129.807 115.382 129.997 115.24 129.997C114.762 129.997 114.726 129.669 114.443 129.583C112.972 129.117 111.643 127.738 111.13 126.221C110.704 124.877 110.616 123.911 110.084 122.843C109.747 122.205 109.429 120.533 108.667 120.533C108.188 120.533 108.472 120.808 108.046 120.533C107.958 120.533 108.046 120.343 108.046 120.257C108.046 119.619 108.135 119.154 108.277 118.498H108.365H108.507C108.135 118.309 108.507 117.257 108.507 116.74C108.507 114.706 107.267 113.499 107.267 112.034C106.647 112.034 107.462 110.655 106.983 109.965C106.842 109.741 106.469 109.827 106.363 109.741C106.08 109.465 106.221 109.276 105.938 109C105.141 109.776 104.804 111.12 103.475 111.12C102.766 111.12 102.713 110.569 102.713 109.965C102.713 109.362 102.943 109.086 102.943 108.586C102.943 108.362 102.713 108.224 102.66 107.983C102.323 107.018 101.756 106.276 101.278 105.535C100.605 105.018 100.091 104.656 99.7187 104.052C99.3466 103.501 99.4352 102.76 99.2403 102.208C99.0631 101.553 98.248 101.277 97.5393 101.139C97.5393 102.518 96.2104 102.794 94.9878 102.794C94.2259 102.794 94.2259 102.57 93.8538 102.329C93.5171 103.018 92.5249 103.07 92.3831 103.484C92.1882 104.121 92.2414 104.639 91.8161 105.052C90.9656 105.88 89.5836 106.121 88.8217 106.845C87.8649 107.759 87.0144 108.69 86.1107 109.569C85.7386 109.948 85.2071 110.5 84.8881 110.586C84.0376 110.862 83.0276 111 83.0276 111.965C83.0276 112.792 83.3643 113.258 83.3643 113.999C83.3643 115.154 82.7973 115.895 82.7973 116.775L83.0276 117.981L82.7973 118.033C82.7973 118.171 82.4607 118.171 82.3189 118.223C81.6456 118.412 81.7873 119.602 81.4152 119.791C80.8482 120.067 80.7597 119.878 80.5116 120.343C80.3167 120.705 80.2813 121.257 79.8915 121.257C79.5016 121.308 79.2358 121.119 79.1827 120.791C78.9524 120.791 78.8106 120.464 78.7574 120.326C78.3676 119.205 77.8538 118.292 77.5171 117.326C77.3222 116.688 76.6666 116.223 76.4717 115.844C76.0996 115.102 76.33 114.499 75.9402 113.947C75.5681 113.344 75.5681 113.068 75.3732 112.465C75.1428 111.775 74.2923 110.258 73.9557 109.224C73.6722 108.31 73.1406 107.431 73.1406 106.552C73.1406 106.414 73.0697 106.035 73.0697 105.897L73.1052 105.914C73.1229 105.294 73.3355 105.19 73.3355 104.604C73.3355 103.863 72.8571 103.311 72.8571 102.708C72.8571 102.57 73.1406 102.242 73.1406 102.07H72.7685C72.1484 102.673 72.0952 104.242 70.8726 104.242C69.402 104.242 68.835 102.811 68.1262 102.122C68.5515 101.846 68.8881 102.07 69.3134 101.932C69.6855 101.846 69.7386 101.432 69.9335 101.243C69.5614 101.156 69.2248 101.156 68.835 101.156C67.8959 101.156 66.5138 100.225 66.0354 99.5359C65.6456 98.9326 65.3621 97.881 64.7951 97.6914C64.2635 97.5535 63.8914 97.6569 63.3776 97.6569C62.8106 97.6569 62.6689 98.0189 62.1905 98.0189L60.9501 97.6914C60.7552 97.7948 60.6135 97.9328 60.5249 98.0189L58.8593 98.1051C58.8593 98.1569 58.6644 98.1051 58.629 98.1051C57.7254 98.1051 55.6345 97.5535 54.3588 97.5535C54.1284 97.5535 52.7464 97.1915 52.6932 97.1398C52.2148 96.6743 52.2148 95.2952 51.2226 95.2952C50.7087 95.2952 50.5138 95.709 50.2303 95.9848H47.856C47.0941 95.7607 46.722 95.1573 46.2436 94.6919C45.6766 94.1403 44.9147 94.4161 44.4009 93.8989C44.1174 93.6231 44.2591 93.2611 44.1705 93.0714C43.6567 92.0544 42.6113 90.6236 41.2824 90.6236C40.6091 90.6236 40.3256 91.451 40.3256 92.0888C40.3256 92.5543 40.3256 92.7784 40.4319 93.1576C40.7154 94.2609 42.0443 96.2434 43.1428 96.4847C43.1428 96.9846 43.4263 97.1398 43.4618 97.5535C44.0288 97.4156 43.9402 96.8122 44.4186 96.7261C44.4718 96.9157 44.4717 97.0536 44.4717 97.226C44.4717 97.7776 44.1351 98.1569 44.1351 98.7085C44.1351 99.3636 45.3577 99.6739 46.0842 99.6739C49.2558 99.6739 49.5039 97.7776 51.2049 96.5364V98.243C51.8605 99.5877 52.7641 99.8118 54.1461 100.225C54.66 100.363 54.7132 101.156 55.0498 101.329V101.294C55.2802 101.708 55.9535 101.622 55.9535 102.036C55.9535 103.087 54.5714 103.466 54.5714 104.57C53.8627 104.57 53.3843 104.759 53.1893 105.311C52.9944 105.863 53.0476 106.656 52.4806 106.656C51.7719 106.656 51.8073 108 51.0986 108C50.6733 108 49.7696 108.776 49.7696 109.345C48.4939 109.569 45.588 110.086 45.588 111.103C45.588 111.241 45.6766 111.431 45.7829 111.517C44.7021 112.017 43.2314 112.344 42.0797 112.62C41.5127 112.758 39.6168 114.051 38.9967 114.327H37.526C36.711 114.878 36.5869 115.258 35.5947 115.258L35.2934 115.43C35.1517 115.43 33.9468 114.861 33.8051 114.792C33.681 114.74 34.0531 114.74 33.7519 114.275C33.2558 113.551 32.9191 112.792 32.9191 111.913C32.3876 111.862 32.7597 111 32.866 110.569C33.0963 109.552 32.299 109.138 31.7851 108.621C31.2181 108.069 29.907 106.483 29.907 105.363C28.2414 105.001 27.8516 104.052 27.8516 102.294C27.8516 101.225 27.2314 101.001 27.0365 100.122C26.8062 99.9324 26.5581 99.6566 26.4164 99.5187C26.2215 99.3291 25.6013 99.4325 25.4596 99.2946C25.1761 99.0188 25.2647 98.3292 25.1761 98.0534C25.0343 97.588 24.6977 97.226 24.5205 96.9501C23.9535 96.1227 23.4751 95.4332 22.9612 94.6402C22.8195 94.4161 22.1639 93.6748 22.1639 93.5369C22.1639 93.1232 22.4297 92.2095 22.4828 91.5372L21.4551 89.1066C21.4551 88.779 21.7918 88.779 21.8272 88.6066C22.1639 87.5896 22.3056 87.0896 22.5891 86.1588C22.8726 85.2279 23.8294 85.0038 23.8294 83.935C23.8294 83.1592 23.5991 82.5042 23.5991 81.9525C23.5991 81.6767 23.8294 81.5733 23.918 81.4871V81.0216C23.5459 81.1595 23.4042 81.4354 23.0144 81.4354C22.536 81.4354 22.2525 81.2457 22.0576 81.0734C21.2957 81.625 21.0653 82.2283 19.6833 82.2283C18.691 82.2283 18.3012 81.0734 17.309 81.0734C16.3167 81.0734 16.5116 82.1249 15.6434 82.1249C14.7397 82.1249 14.2613 80.8837 13.3754 81.2975H12.8616C13.0033 81.2457 13.1982 81.1078 13.2337 81.0216C12.9502 80.7458 11.5681 80.0563 12.0465 79.5908C11.6213 78.9875 11.0897 79.0392 10.4341 78.7117C10.9125 78.2462 11.4263 78.3496 11.4263 77.4705C11.4263 77.1429 11.3377 77.1429 11.4263 76.9188C11.0897 76.9188 10.6113 76.9706 10.6113 76.6775C10.6113 75.2467 14.031 75.5225 14.8815 75.1088C14.7929 74.7468 14.5094 74.8674 14.5094 74.5571C14.5094 74.1434 15.4131 74.333 15.6434 74.333H17.1141C17.6811 74.333 18.5316 73.7297 19.0631 73.4022C19.6833 73.0401 21.0122 72.9884 21.8095 72.9884C23.0853 72.9884 23.0498 73.678 24.1307 73.678C24.1307 74.2296 25.9734 74.5571 26.505 74.6089H29.1982C30.155 74.6089 30.722 73.9193 31.5194 73.5573L31.3245 73.5918C31.3245 69.9372 25.8671 70.4026 24.68 67.6789C27.4441 66.9894 26.2038 65.731 26.0975 65.4724C26.3278 65.3862 26.9479 64.6966 26.9479 64.6966C25.6722 65.1621 22.1993 66.4033 22.1993 66.7653C22.1993 67.3169 22.8195 67.4548 23.0144 67.4548C23.0144 67.4548 24.2547 67.6445 24.3433 67.6445C23.9712 68.1099 21.6855 69.0753 21.0299 69.0753C20.3743 69.0753 18.1949 65.6103 17.3267 65.6103C16.2813 65.6103 16.1927 66.7998 15.1473 67.0928C14.8106 67.1445 14.2436 67.3686 14.0133 67.3686L13.7829 67.0928C13.6943 67.0066 13.5526 66.9032 13.5526 66.7653V64.869C12.3655 64.869 12.6489 62.4729 11.3732 62.4729C10.2392 62.4729 9.51273 63.0762 8.00664 63.0762C6.90808 63.0762 5.969 63.352 5.969 62.0591C5.969 60.9559 6.16389 60.2146 6.73089 59.3871C6.9258 59.1113 7.82944 58.9217 7.82944 58.3701C7.82944 57.4909 6.9258 56.8875 6.9258 55.9222C6.9258 55.3188 7.59912 55.0085 7.59912 54.4052C7.59912 53.3881 7.12071 51.6642 6.12846 51.6642C5.17165 51.6642 4.60466 51.7332 3.70101 51.7332C3.2226 51.7332 2.63787 51.8021 2 51.8711C2.08859 50.2507 3.61241 50.492 3.61241 48.6992C3.61241 47.5959 4.6578 45.4756 5.5083 45.4756C6.32336 45.4756 6.46512 46.6305 7.40421 46.6305C7.97121 46.6305 9.22923 45.7858 6.8372 43.6138C6.11073 42.9587 8.50276 42.0106 9.54816 42.0106C10.5936 42.0106 11.1074 42.3381 11.9225 42.3381C12.5426 42.3381 13.9601 41.683 14.5271 41.321C14.1905 40.4419 13.7121 40.2178 13.34 39.7006C14.3322 38.4077 17.6102 36.7011 17.6102 35.1841C17.6102 34.167 16.5116 33.9774 16.0864 33.2533C16.2281 33.1672 16.6534 32.9258 16.6534 32.65C16.6534 31.6329 15.2359 31.3571 15.2359 30.34C15.2359 29.7884 15.7143 29.5126 15.7143 28.9609C15.7143 28.0473 14.7575 27.5301 14.7575 26.6509C14.7575 25.858 15.608 25.496 15.608 24.703C15.608 23.6859 13.9424 23.7376 13.9424 22.8584C13.9424 21.7896 15.6434 20.9622 16.3167 20.4967C17.4153 20.3588 17.4507 20.5485 17.5925 20.5485C19.1517 20.5485 24.2901 23.0653 26.6113 23.7893C34.7087 26.3062 29.3931 29.5126 26.753 28.8403C24.7863 28.3403 23.67 28.392 21.6323 28.392C22.5714 29.7367 22.2525 32.5466 24.9457 32.7879V30.9434C30.4208 33.2361 29.7829 28.823 31.1118 28.4093C32.4407 27.9956 34.9036 29.0988 34.9036 27.4784C34.9036 26.6509 34.0709 26.4958 34.1949 26.0993C36.2325 19.9624 37.2957 24.0134 36.5692 25.8752C36.3566 26.3924 37.1893 26.8061 37.7563 26.8061C39.5105 26.8061 46.6334 20.6174 47.7143 23.3411C49.876 24.3582 52.8881 22.4102 54.3588 22.4102C55.2093 22.4102 56.7508 25.2719 56.9634 21.7207C56.9812 21.3932 54.8903 19.2556 61.3754 20.8932C63.732 21.4794 70.0398 25.9614 67.3998 21.9448C66.2658 20.8415 65.2735 19.4452 65.2735 17.3248C65.2735 15.5665 69.1539 12.3084 71.2093 12.7049C75.2669 13.4979 72.6268 14.1357 72.6268 15.7044C72.6268 17.1352 73.1583 24.1169 75.1605 24.1169C76.7021 24.1169 73.7785 20.6864 74.7707 19.6348C76.2237 18.1178 74.2037 16.7732 73.8139 15.4803C75.0542 14.8425 76.0465 14.1874 76.2768 12.7221C76.9501 13.5496 76.6844 17.773 79.5016 14.1012C82.815 14.1012 83.2048 14.739 84.2502 14.1012C84.0553 13.36 83.5415 12.8083 83.5415 12.2567C83.5415 9.61917 89.4241 10.1708 90.9834 10.1708C92.0819 10.1708 92.2945 8.27455 93.021 7.63672C96.4939 4.61996 103.174 4.17175 104.733 3.70631C104.202 5.87838 110.332 3.48221 111.271 2.77542C112.547 1.81006 113.557 0 116.02 0C118.058 0 119.103 1.24118 119.581 2.53408H124.56C136.343 5.27503 121.991 9.05029 120.52 10.8431C120.538 10.9121 119.156 14.015 125.375 9.06753ZM44.0642 70.0923C43.7807 69.5752 43.0188 69.6269 42.9656 68.7132C43.1074 68.765 45.0033 67.5583 46.2791 67.5583C47.1296 67.5583 48.0864 68.0582 48.7951 67.5238C47.856 66.1447 47.4131 64.938 44.8616 64.938C41.9911 64.938 39.8826 66.6274 39.5105 66.4205C39.2624 66.6963 38.3765 68.4029 38.3765 68.6271C38.3765 69.3166 39.4219 70.0061 39.4219 70.4716C39.4219 72.0403 41.371 74.8157 42.6467 75.5053C41.8848 75.8673 41.8848 76.9878 41.3178 77.7118L40.6445 77.6256C40.7863 78.2807 40.928 77.9014 41.2647 78.4014C41.6545 78.953 41.2115 79.3323 41.495 79.8839C41.7253 80.3838 42.3455 80.108 42.877 80.2114C43.3023 80.2976 43.4086 80.7631 43.6921 81.0389C44.2768 81.6077 47.289 81.2457 48.1041 81.0389V80.2114C47.1473 79.2978 47.9623 78.7117 47.9623 78.1773C47.9623 77.2981 47.289 76.3844 46.2968 76.2465C46.4917 74.8157 47.4485 75.0915 48.6711 75.0915C48.6711 74.402 47.9092 74.04 47.8737 73.3332C47.5371 73.3849 46.6334 73.8504 46.2613 74.0227C46.2436 72.2127 44.9679 71.6093 44.0642 70.0923Z" fill="#C5D1FB"/>
</g>
<defs>
<filter id="filter0_d" x="0.404194" y="0" width="233.216" height="133.188" filterUnits="userSpaceOnUse" color-interpolation-filters="sRGB">
<feFlood flood-opacity="0" result="BackgroundImageFix"/>
<feColorMatrix in="SourceAlpha" type="matrix" values="0 0 0 0 0 0 0 0 0 0 0 0 0 0 0 0 0 0 127 0"/>
<feOffset dy="1.59581"/>
<feGaussianBlur stdDeviation="0.797903"/>
<feColorMatrix type="matrix" values="0 0 0 0 0 0 0 0 0 0 0 0 0 0 0 0 0 0 0.25 0"/>
<feBlend mode="normal" in2="BackgroundImageFix" result="effect1_dropShadow"/>
<feBlend mode="normal" in="SourceGraphic" in2="effect1_dropShadow" result="shape"/>
</filter>
</defs>
</svg>
