<svg width="57" height="93" viewBox="0 0 57 93" fill="none" xmlns="http://www.w3.org/2000/svg">
<path d="M53.1778 77.237C53.0006 77.9955 53.0183 77.6162 52.8766 77.8921V79.0988C52.3982 79.5642 51.5477 80.4779 51.5477 81.1329C51.5477 82.0638 52.8234 82.7016 53.1069 83.1154C52.912 83.305 52.7348 83.2533 52.4868 83.305C52.0615 83.4429 51.7249 83.2533 51.2996 83.4429C50.6794 83.7187 50.5377 84.3221 49.9175 84.3221C49.2088 84.3221 48.7835 83.3912 47.933 83.3912C47.1711 83.3912 46.9762 83.8049 46.3561 83.9945C46.4447 84.3565 46.4447 84.6324 46.3561 85.0116C45.6473 85.0116 45.5587 84.3221 45.1335 84.3221C44.8854 84.3221 44.6196 84.5979 44.6196 84.822L45.5233 85.8391C45.4701 86.1149 45.3284 86.2528 45.3284 86.3907C45.3284 86.5286 46.6041 87.6836 46.9939 87.6836C46.9939 87.8215 47.0825 88.0111 47.1888 88.0973C46.9585 88.2352 46.4801 88.0456 46.3915 88.3732H46.3029C45.7891 88.287 45.3107 87.9077 45.0803 87.6836V88.0456C45.2221 88.3214 45.3638 88.4593 45.3638 88.8386C45.3638 89.1144 44.8854 89.666 45.3638 89.9074C45.1335 89.9074 44.7437 89.9074 44.7082 89.9074C43.9463 89.9074 43.2907 89.1661 43.2907 88.3904C43.2907 88.0629 43.7691 87.9249 43.9109 87.7008C43.6274 87.7008 43.3793 87.7008 43.0958 87.7008C42.9009 87.7008 42.8123 87.2871 42.8123 87.2009C42.6174 86.5631 42.2453 86.1321 41.8201 85.7184C41.2531 85.1668 40.4912 84.753 40.4912 83.7704C40.4912 83.2188 40.4912 82.943 40.4912 82.5637C40.4912 81.9087 39.4458 80.9433 38.7725 80.633C38.1169 80.3055 37.355 80.2537 37.355 79.6159C37.0715 79.6159 36.9297 79.6159 36.6994 79.6159C35.654 79.6159 34.4668 78.0472 34.4668 76.9784C33.953 76.9784 33.5632 76.9784 33.0493 76.9784C32.4292 76.9784 32.7127 76.013 32.4292 75.7372C31.9153 76.0648 30.8699 76.0648 30.8699 76.5647C30.8699 76.6509 31.0117 76.8405 31.1003 76.8405C31.0117 77.1163 30.9053 77.3921 30.9053 77.6679C30.9053 78.3575 31.3306 78.6333 31.8976 78.8229C32.6063 79.047 32.9962 79.84 33.1379 80.2537C33.3328 80.9088 33.6518 81.6328 34.0416 81.8225C34.7503 82.15 35.2287 81.9087 35.9375 81.9087C35.9375 82.0466 35.9375 82.1845 35.8489 82.2707C35.654 82.8223 36.788 83.0636 37.0715 83.2016C38.0283 83.667 39.1623 84.029 39.0205 84.9944C38.5421 84.9082 38.2586 84.3048 37.4967 84.3048C36.9297 84.3048 36.4513 84.5806 36.4513 85.0461C36.4513 85.6494 37.3018 85.7874 37.3018 86.3907C37.3018 86.6148 36.6817 86.6148 36.6817 86.6148C36.2564 87.0285 36.345 87.9939 35.6894 87.9939C35.3527 87.9939 35.1756 87.856 35.1756 87.6664C35.7426 87.6664 35.9729 86.9768 35.9729 86.4252C35.9729 85.7356 35.6008 85.546 35.4945 85.1323C35.3527 85.1323 34.2187 84.029 34.1656 83.7532C33.9707 83.7532 33.2619 83.5636 33.2619 83.2878C31.7913 82.9602 31.4546 82.5465 30.6573 81.7707C30.3206 81.4432 29.6119 81.2708 29.5233 80.9433C28.6728 79.8745 28.3893 77.9955 26.582 77.9955C25.7315 77.9955 25.6783 78.5988 25.2531 78.7885C24.3494 79.2022 23.7293 80.0296 22.6839 80.0296C21.6385 80.0296 20.9829 79.5125 20.0261 79.5125C19.3173 79.5125 18.5554 79.9779 18.5554 80.6675L18.8389 81.6846C18.5554 82.6154 17.51 82.9257 16.5178 83.1671C15.6673 83.3567 14.2852 85.253 14.2852 86.2528C14.2852 86.6148 14.5155 86.7527 14.7636 86.8562C14.1434 87.787 13.8599 88.3387 12.8677 88.8041C12.3007 89.0799 12.2121 90.2349 11.2553 89.9591V90.0108C10.8301 89.8729 10.015 90.1143 9.78465 90.1143C8.65065 90.1143 8.03049 91.0451 6.98509 91.0451C6.27634 91.0451 6.2232 89.3385 5.14235 89.3385C4.32729 89.3385 3.81345 89.666 3.1047 89.666C2.8212 89.666 2.73261 89.4419 2.73261 89.304C2.73261 88.3387 2.73261 88.0111 2.73261 87.4595C2.36052 87.4595 1.9707 87.1837 1.9707 86.8044C1.9707 86.2011 2.48455 86.0632 2.48455 85.7529C2.48455 84.5979 2.90979 83.3912 2.90979 82.2017C2.90979 81.5122 2.39595 80.8571 2.39595 80.4434C2.39595 80.1676 4.00835 79.2022 4.29185 79.2022C4.48676 79.2022 4.7171 79.478 5.0006 79.3918H7.12684C7.32175 79.5814 7.69384 79.6159 7.9419 79.6676H10.2276C10.7946 79.5297 11.0781 79.8573 11.5565 79.8573C11.8932 79.8573 12.6019 79.6332 12.7437 79.6332C12.7437 78.7023 13.3638 78.4437 13.3638 77.5645C13.3638 77.3749 13.3107 76.5647 13.3107 76.2889L13.2221 76.3578C13.3107 76.1682 13.417 75.8579 13.417 75.6683C13.417 75.2545 13.1335 75.3407 13.1335 74.9787C12.1767 74.9787 11.8932 74.1513 11.8932 73.41C11.6097 73.3583 11.5565 73.1342 11.3262 73.0825C10.5643 72.8584 8.49119 72.4791 8.49119 71.7896C8.43803 71.7896 8.43802 71.6517 8.43802 71.5999C8.43802 71.1862 9.76693 70.9104 10.2453 70.7725C10.3871 71.0483 11.149 71.2379 11.5211 71.2379C11.8932 71.2379 12.4247 71.0483 12.6196 71.0138V70.6863C12.283 70.6001 12.4247 69.8933 12.3893 69.7554V69.3762H12.8677C13.2398 69.7554 13.7182 69.9795 14.2852 69.9795C14.675 69.9795 14.9939 69.652 15.1003 69.29C16.5178 69.29 16.9076 68.2729 17.1911 67.1696C17.4746 67.1696 17.6163 67.1179 17.8467 67.0662C18.1302 66.98 20.0261 66.2387 20.221 66.0491C20.5931 65.6871 20.4513 65.1182 20.4513 64.5666C20.4513 64.3769 20.8766 64.1011 20.9297 64.0494C21.5853 63.4116 22.2586 62.6703 23.3572 62.6703C23.9773 62.6703 23.6938 62.8082 24.0128 62.6703C24.1545 62.8082 24.2963 62.4462 24.3849 62.3428C24.7215 62.0153 25.1468 62.2911 25.572 62.2911C25.8555 62.2911 26.6174 61.8773 26.6174 61.5153C26.6174 61.2912 26.2808 60.4121 26.2808 60.3603C26.0859 59.1192 25.324 58.7399 25.324 57.6366C25.324 55.7059 27.1667 55.568 28.3538 54.7233V55.2749C28.1058 55.7404 28.0704 56.0162 28.0704 56.4816C28.0704 56.9471 28.5842 56.9816 28.974 56.9816C28.974 57.1195 28.974 57.2057 28.974 57.3436C28.974 57.5677 28.5488 57.6711 28.407 57.809C27.9286 58.2745 27.3616 58.6882 27.3616 59.5156C27.3616 59.9811 27.592 60.2914 27.8755 60.3431C27.8755 60.6189 27.9286 60.7224 27.8755 60.843C28.407 60.843 28.5842 61.0326 29.0095 61.0326C29.0981 61.2567 29.2044 61.5843 29.3461 61.5843C30.6219 61.5843 31.5255 60.5155 32.6241 60.6534C32.5709 60.8775 32.3406 61.0154 32.3406 61.1533C32.3406 61.2395 33.1556 61.8084 33.1556 61.8084C33.6695 61.8084 33.7226 61.4809 33.9707 61.3947C34.768 61.0154 35.3882 61.1533 36.0969 60.843C36.5222 60.6534 37.2841 59.9638 37.8511 59.9638C38.4712 59.9638 39.1268 60.0156 39.4635 60.1535C39.3572 60.3431 39.2686 60.5672 39.2686 60.6534C40.5089 60.6534 41.7669 60.4121 42.6706 60.4121C43.5742 60.4121 44.159 60.3431 45.0981 60.3431C46.0903 60.3431 46.5687 62.067 46.5687 63.084C46.5687 63.6874 45.8954 64.0149 45.8954 64.6011C45.8954 65.5664 46.799 66.1698 46.799 67.0489C46.799 67.6006 45.8954 67.7902 45.7005 68.066C45.1335 68.8935 44.9386 69.6347 44.9386 70.738C44.9386 72.0309 45.8954 71.7551 46.9762 71.7551C48.5 71.7551 49.2088 71.1517 50.3428 71.1517C51.6185 71.1517 51.335 73.5479 52.5222 73.5479V75.4442C52.5222 75.5821 52.6639 75.6683 52.7525 75.7717L52.9829 76.0475C53.2132 76.0475 53.7802 75.8062 54.1169 75.7717C54.17 75.9958 54.1169 76.2371 54.17 76.4612C53.6739 76.5647 53.1778 76.7888 53.1778 77.237Z" fill="#9EF8FF"/>
<path d="M29.4886 51.6721C28.8685 51.3963 28.7799 50.9825 28.4432 50.5171C27.451 51.8962 25.9272 53.6545 23.9427 53.6545C23.6592 53.6545 21.7987 52.5512 21.7987 52.3616C21.7987 51.9996 22.4189 51.7583 22.6138 51.6721V50.9825C21.9582 50.9825 21.9582 50.9825 21.3735 51.2066C21.3735 50.8791 21.8873 50.3275 22.1354 49.9999C21.4266 49.1725 21.3203 48.0175 21.3203 46.7246C21.3203 46.035 22.0822 46.0695 22.3657 45.6558C22.9327 44.88 23.4643 44.3112 24.5097 44.0354C25.3602 43.8112 25.5551 42.6907 27.2561 42.8804C26.7422 42.7425 26.5473 42.6563 26.1221 42.5528C28.2129 42.0529 29.0102 40.4325 30.4455 39.312C31.0125 38.8982 30.9239 37.4674 31.296 37.4674C31.296 37.4674 31.7744 36.4503 31.7744 36.4159C32.3414 35.485 33.0147 34.8472 34.0069 34.4851C34.9992 34.1231 36.3281 32.5372 36.5761 31.5718C35.389 31.8132 34.9106 32.3993 33.7766 32.3993C34.0069 32.0717 34.5385 31.8476 34.7334 31.7442C34.503 31.7442 34.0246 31.6063 34.0246 31.6063C34.1132 31.1408 34.3613 30.865 34.7334 30.865C34.8751 30.865 34.9815 31.0029 35.1055 31.0029C35.2472 30.7271 35.389 30.5375 35.5307 30.3996C35.7788 30.6754 35.8142 30.9167 35.6725 31.227C36.4344 31.227 36.6293 31.6925 37.2317 31.6925C37.4621 31.6925 37.9936 30.5892 38.0822 30.5375C37.7456 30.4513 37.7456 30.3996 37.3203 30.4513C37.5684 30.0893 37.9405 29.71 38.4189 29.71C38.7555 29.71 39.039 29.7962 39.358 29.6238C39.1276 29.3997 39.1808 29.4342 38.9859 29.2446C39.4643 28.7791 40.3148 28.8309 41.0235 28.693V29.2446C41.6437 29.1067 41.7854 28.0551 42.7777 28.0034V28.7791C43.3978 27.6759 44.1952 27.9517 45.0634 27.4862C44.6913 27.3483 44.3546 27.2621 44.3546 26.9346C44.3546 26.7105 45.2051 26.5209 45.3469 26.2451C45.6304 26.5726 45.9139 26.9346 46.3391 26.9346C47.0479 26.9346 48.8552 25.7796 48.8552 26.383C48.8552 27.0208 48.0401 27.2104 47.863 27.8655C48.8198 27.9517 49.1032 26.9001 49.9006 26.4864C50.0955 26.8139 50.0955 27.038 50.1309 27.3139C50.8043 26.676 51.1764 26.4864 51.9383 26.021C51.9914 26.6243 51.8851 27.038 52.4166 27.0898C52.5584 26.7277 52.7533 26.4002 53.1254 26.4002C53.3558 26.4002 54.4011 26.9519 54.7909 27.1415C54.3657 28.2448 53.9759 27.8827 52.8951 28.2447C53.3735 28.6068 53.7101 28.6585 53.7101 28.9343C54.1354 28.986 55.1276 29.1239 55.2694 29.1239C54.596 29.5894 52.8951 30.4168 52.8951 31.4856C52.8951 32.3648 54.5606 32.3131 54.5606 33.3302C54.5606 34.1231 53.7101 34.4851 53.7101 35.2781C53.7101 36.1573 54.6669 36.6572 54.6669 37.5881C54.6669 38.1397 54.1885 38.4156 54.1885 38.9672C54.1885 39.9843 55.606 40.2601 55.606 41.2772C55.606 41.553 55.1808 41.7943 55.039 41.8805C55.4643 42.6218 56.5628 42.7942 56.5628 43.8113C56.5628 45.3283 53.2849 47.0349 52.2926 48.3278C51.8142 49.2587 49.6348 49.3966 48.7311 49.2587C47.7921 49.5345 46.6935 49.9482 45.8784 49.9482C45.2583 49.9482 44.833 49.862 44.833 49.3449C43.8408 49.3449 42.7954 48.707 42.7954 47.7417C42.7954 47.2762 43.3092 46.9487 43.451 46.7246C42.9726 46.535 42.5473 45.4834 42.5473 44.9662C42.5473 44.6387 42.6359 44.3629 42.5473 44.0354C44.5496 44.0354 45.5949 41.5013 46.8175 40.8117C47.4908 40.4497 48.6248 40.2084 48.6248 39.4326C48.6248 38.2776 47.0656 38.0535 45.8784 38.0535C44.3192 38.0535 43.0257 38.6052 43.0257 39.8981C43.0257 40.4497 43.1675 40.6738 43.0257 40.9669C43.0257 42.0184 40.8463 42.9493 39.8541 43.501C39.039 43.9664 38.1885 44.1388 37.7101 44.9835C37.338 45.6213 37.7987 46.5005 37.09 46.828V47.7589C37.3203 47.9485 37.4621 48.2588 37.4621 48.5864C38.3126 48.7243 39.606 49.5517 39.606 50.4309C39.606 51.1204 38.1885 52.2754 37.7101 52.2754C36.7533 52.2754 36.3812 53.62 36.3812 54.5854C36.3812 55.137 36.8065 55.3267 37.09 55.3611C36.9482 56.6023 35.8142 56.7058 35.6725 57.5677C34.9992 57.5677 34.7688 57.5677 34.3967 57.5677C33.5817 57.5677 33.2982 59.0502 32.111 59.0502C31.7389 59.0502 31.0656 57.1195 31.0656 56.8781C31.0656 56.7402 31.1542 56.5506 31.1542 56.4127C30.3391 55.6197 30.4455 54.9819 30.1088 53.9648C29.8785 53.2753 29.1697 53.0856 29.1697 52.2582C29.1697 51.9307 29.4532 51.5169 29.5064 51.4307V51.6721H29.4886Z" fill="#9EF8FF"/>
<path d="M44.4251 10.058C44.3365 9.67873 44.3365 9.45463 44.4782 9.23052C43.9112 9.14433 42.919 9.17881 42.2988 9.14433C42.3874 8.31688 42.919 8.54098 43.0076 7.85143C42.6709 7.76524 42.2457 6.92055 42.0508 6.55854C42.2811 6.50682 42.476 6.47235 42.7241 6.47235C41.9621 6.38615 41.5901 5.7828 41.5901 5.7828C39.9777 5.7828 39.4638 7.81696 38.9854 9.00642C38.8968 9.28224 38.507 9.19605 38.2767 9.36843C37.4616 9.97178 37.5679 11.2647 36.8946 11.9025C35.7606 11.1612 33.1914 10.5579 33.1914 8.98918C33.8647 8.90299 34.9455 9.0409 34.9455 9.0409C35.4239 8.67889 35.9378 8.79956 36.5048 8.67889C36.2213 8.48926 34.6975 8.43755 34.3786 8.43755C33.8116 8.43755 32.5712 8.95471 32.5712 7.8342C32.5712 7.42047 33.6521 7.42047 33.9001 7.36875C34.5203 7.17913 35.796 6.62749 36.3099 6.21376C35.6366 6.21376 35.2645 6.21376 35.0696 6.21376C34.981 6.21376 34.5557 5.93795 34.3608 5.80004C34.2191 5.80004 34.1128 5.80004 33.971 5.80004C33.5458 6.02414 33.5458 7.04122 32.5535 7.04122C31.7916 7.04122 31.2778 6.7654 31.0297 6.29996C31.1715 6.24824 31.2601 6.21376 31.4018 6.21376C30.6045 5.80004 29.878 5.42079 30.0729 4.69677C29.9311 4.64505 29.8426 4.50714 29.7008 4.50714C29.3642 4.50714 28.8503 3.71416 28.5137 3.40387C28.7086 3.17977 29.7008 2.3006 30.1792 2.3006C30.9411 2.3006 31.455 2.3006 32.5535 2.49022C32.3232 2.76604 32.1283 2.90395 31.9865 3.12805C32.4649 3.5073 32.9433 3.5073 33.2623 3.8176C33.0674 3.7314 32.9256 3.49006 32.9256 3.21425C32.9256 2.80052 33.2977 2.43851 33.7229 2.43851C34.9987 2.43851 34.6798 4.05894 35.8669 4.47266C35.5834 3.7314 35.2999 3.31768 35.2999 2.43851C35.2999 1.74896 35.6366 1.74896 36.239 1.74896C36.8592 1.74896 38.1349 2.21441 38.1349 2.67985C38.1349 3.00738 37.9932 3.2832 37.9932 3.59349C38.3653 3.40387 38.4716 2.99014 38.8437 2.99014C39.6056 2.99014 39.4993 3.7314 39.4107 4.09342C39.5524 4.09342 39.7473 4.14513 39.8891 4.14513C40.6864 4.14513 43.2025 5.52422 43.6809 6.07586C43.5391 6.12757 43.3442 6.12757 43.2025 6.12757C43.5746 6.21376 43.7163 6.17929 44.053 6.12757C44.1415 6.35167 44.1947 6.62749 44.053 6.81712C44.7617 6.81712 45.0098 6.81712 45.5768 6.81712C45.5768 8.24792 46.9588 7.88591 47.3841 8.47203C46.1438 8.90299 45.6122 9.67873 44.4251 10.058Z" fill="#9EF8FF"/>
<path d="M50.7337 2.16266C49.5997 2.90392 47.2254 4.52436 45.8434 4.52436C44.9929 4.52436 44.5145 4.24854 44.1778 3.6969H41.4669C41.0416 3.55899 40.8998 3.33489 40.8467 2.95564C41.1833 2.90392 41.6972 2.90392 41.8035 2.90392C42.2288 2.76601 42.7426 2.76601 42.9907 2.67982C42.7958 2.67982 40.8467 2.54191 40.7581 2.54191C39.943 2.54191 39.004 3.09355 39.0926 2.04199C38.7205 1.76617 38.4369 1.40416 38.3838 0.938715H39.0926C39.3761 1.12834 39.7659 1.21453 40.0494 1.07662V0.818044H40.8467L40.6163 0.3526H41.9452C42.2287 0.628419 43.6108 1.28349 43.8412 1.28349C44.4082 1.28349 44.798 0.404316 45.0283 0.214691H45.5953C45.5953 0.818044 45.5067 1.04215 45.5953 1.36968C46.0206 1.36968 46.304 0.904238 47.0128 0.904238C48.1468 0.904238 47.8633 0.904238 48.572 0.904238C49.5466 0.904238 50.4502 1.61102 50.7337 2.16266Z" fill="#9EF8FF"/>
<path d="M28.5319 5.05878C29.152 5.85175 29.8076 6.02414 30.1443 7.04121C29.1875 6.81711 27.7346 5.42079 28.6736 5.05878V5.19669L28.5319 5.05878Z" fill="#9EF8FF"/>
<path d="M1.97188 61.2395C2.25538 61.2395 3.07044 61.0154 3.35394 60.7223C3.15903 60.4465 3.07043 60.3603 3.07043 60.119C3.07043 59.7914 4.00953 59.2398 4.48794 59.2398C4.77144 59.2398 5.00177 59.2398 5.28527 59.2398C6.36612 59.2398 6.89769 60.3431 6.89769 61.1361C6.89769 61.5153 6.04718 61.4636 6.04718 61.8256C6.04718 62.1531 6.04718 63.3426 6.04718 63.3943C6.04718 63.7563 6.38384 64.3252 5.99403 64.6872C5.71053 64.963 5.23213 64.9113 4.75372 64.9113C3.99182 64.9113 3.42482 65.7043 3.05272 65.9284C2.80466 66.0663 2.43257 66.118 2.14907 66.118C1.58207 66.118 0.961914 65.6181 0.961914 65.0665C0.961914 63.9115 2.14907 63.8253 2.34397 62.7048C1.86557 62.4807 1.44031 62.1876 1.44031 61.7394C1.44031 61.1361 1.83013 61.2395 1.97188 61.2395Z" fill="#9EF8FF"/>
<path d="M5.24933 54.4475C5.10758 54.4475 4.96582 54.0855 4.96582 53.8958C4.96582 53.62 5.78089 53.3959 6.15299 53.3959C6.15299 53.8959 5.76317 54.4475 5.24933 54.4475Z" fill="#9EF8FF"/>
<path d="M15.2959 63.6357C15.6326 63.4116 15.5263 63.446 15.9161 63.446C16.4831 63.446 16.9083 63.8598 16.9083 64.3252C16.9083 65.1527 15.7743 65.5664 15.3845 66.1697C15.8629 66.3077 16.0578 66.3594 16.3413 66.3594V66.6869C15.9161 67.1006 15.5794 67.3764 15.0124 67.3764C14.4454 67.3764 13.4 67.3764 13.1165 67.3764C12.6381 67.3764 11.3624 67.7902 10.6536 67.7902C10.317 67.7902 10.1221 67.5144 9.80313 67.5144C9.32472 67.5144 9.04122 67.9281 9.04122 68.3073H8.36791C8.03126 68.3073 7.8895 68.497 7.69459 68.6693H7.35795V68.3935C7.44654 68.2039 8.88175 66.7386 9.0235 66.6869C9.67909 66.4973 10.6359 66.7386 10.6359 66.0835C10.6359 65.9974 10.5473 65.8594 10.5473 65.756C10.3524 66.0318 10.0335 66.2215 9.69682 66.2215C9.07666 66.2215 8.89948 65.6698 8.36791 65.6698C8.08441 65.6698 8.13756 65.8939 7.8895 65.8939C7.80091 65.8939 7.65916 65.756 7.65916 65.6698C7.65916 64.9803 8.98807 64.9286 8.98807 64.239C8.98807 63.6357 8.61597 63.4116 8.61597 62.8944C9.46647 62.8944 10.5119 62.4807 10.7422 62.0152V61.3257C10.2638 61.3774 9.60822 61.274 9.60822 60.8085C9.60822 60.4465 9.83857 60.3431 9.94488 60.1707C9.80313 60.1707 9.66137 60.119 9.51962 60.119C9.04121 60.119 8.81087 60.3431 8.43878 60.3431C8.01353 60.3431 7.67687 60.3431 7.67687 59.9811C7.67687 59.6191 8.15528 59.3777 8.15528 59.0157C8.15528 58.602 8.01353 58.5158 8.15528 58.1365C7.78319 58.1365 7.48197 57.9986 7.34022 57.9124C7.10988 58.2917 7.25163 58.4296 7.34022 58.602H6.96813C6.96813 58.24 6.96813 58.1021 6.96813 57.8607C6.96813 57.7228 7.02129 57.6194 7.16304 57.5332V57.1194C6.87954 57.0677 6.45429 56.9298 6.45429 56.7402C6.45429 56.5161 6.79093 56.1886 6.79093 56.1368V55.7748C6.08219 55.6369 5.69238 55.499 5.69238 54.8957H6.45429C6.45429 55.1715 6.70234 55.3094 6.79093 55.3094C6.87953 55.3094 6.98584 55.1198 6.98584 55.0336C6.89725 54.9818 6.7555 54.8439 6.7555 54.7577C6.7555 54.3785 7.09216 54.2061 7.4111 54.2061C7.4111 53.8269 7.60601 53.6545 7.60601 53.4131C7.60601 53.189 8.08441 52.8098 8.36791 52.8098C8.88176 52.8098 9.41332 52.8098 9.74997 52.8098C9.94488 52.8098 10.2284 53.1373 10.2284 53.2235C10.2284 53.8613 9.18297 53.7751 9.04122 54.4302C9.04122 54.5681 9.09438 54.6543 9.18297 54.7922H11.9825C12.1774 56.0851 10.7068 56.6368 10.7068 57.6021C10.5119 57.6538 10.3701 57.7918 10.317 57.9641C10.7954 58.102 11.0257 57.9124 11.4155 58.0159C12.3192 58.2917 12.1774 59.3949 12.7444 59.9466C13.5063 60.6878 14.7289 61.0154 14.7289 62.1187C14.7289 62.4979 15.2428 62.722 15.2428 63.084C15.2428 63.2219 15.1542 63.3598 15.0124 63.4116V63.7391C15.3491 63.6529 15.3845 63.515 15.5794 63.4116L15.2959 63.6357Z" fill="#9EF8FF"/>
<path d="M8.36791 60.9982C8.08441 61.1361 8.03125 61.3257 8.03125 61.5498C8.31475 61.5498 8.45649 61.5498 8.5628 61.5498C8.5628 61.3257 8.61597 61.1361 8.61597 60.9982C8.56281 60.9982 8.42107 60.9982 8.36791 60.9982Z" fill="#9EF8FF"/>
<path d="M31.1543 88.149V88.4765C31.296 88.7006 31.6681 88.6662 31.8276 88.7006C32.5895 88.9247 33.2097 89.7177 34.007 89.9073C34.007 90.0452 34.2373 90.097 34.3968 90.097C34.5386 90.097 34.6803 89.9073 34.6803 89.7694C34.6803 89.4074 34.45 89.3557 34.45 89.0282C34.45 88.8385 34.6803 88.511 34.6803 88.511L34.8752 87.9766C34.1665 87.8387 33.883 88.2869 33.2628 88.2869C32.5718 88.2869 32.1465 87.6836 31.1543 88.149Z" fill="#9EF8FF"/>
<path d="M26.2994 80.9433C26.6361 80.9433 26.8133 80.5296 27.0613 80.4778C27.0613 80.7019 27.1145 80.9433 27.2562 80.995C27.1145 81.5466 26.9727 82.5637 26.831 82.8395C26.3526 82.7533 26.2108 81.4087 25.9805 81.0467C26.0691 81.0295 26.2108 80.9433 26.2994 80.9433Z" fill="#9EF8FF"/>
<path d="M26.122 84.7358C26.122 84.3738 25.6967 84.1324 25.6436 83.7704C26.1574 83.6325 26.2106 83.1671 26.6358 83.1671C26.9725 83.1671 27.1142 83.4429 27.256 83.4429C27.6635 84.1841 27.5572 84.5979 27.5572 85.3391C27.5572 85.977 26.689 86.6321 26.3169 86.6321C25.8385 86.6321 25.8385 86.0287 25.8385 85.6667C25.8739 85.2874 26.122 85.0461 26.122 84.7358Z" fill="#9EF8FF"/>
<path d="M18.9991 85.7356C18.9991 85.8736 18.7687 85.9597 18.627 85.9597C18.4321 85.9597 18.06 85.5977 18.0068 85.546C18.2903 85.4081 18.4852 85.2702 18.7687 85.2185C18.7687 85.3219 18.9991 85.615 18.9991 85.7356Z" fill="#9EF8FF"/>
<path d="M28.9218 59.757C28.3548 59.757 27.8232 59.6191 27.8232 59.1536C27.8232 59.0157 27.8232 58.8261 27.8232 58.6882H28.7269C28.7269 59.2398 29.0636 59.1536 29.0636 59.6191C29.0636 59.9811 28.975 59.8949 28.9218 60.119C28.9218 59.9811 28.9218 59.8949 28.9218 59.757Z" fill="#9EF8FF"/>
<path d="M29.6306 60.0845C29.9673 60.0328 30.2862 59.7053 30.2862 59.4812C29.8078 59.3777 29.2939 59.0157 29.2939 58.7399C29.2939 58.5503 29.861 57.3608 30.1976 57.3608C31.1544 57.3608 31.1899 57.7745 31.4379 58.5675C30.6406 58.7916 31.0127 60.412 29.9673 60.412C29.6306 60.412 29.3471 60.1879 29.3117 60.1362C29.3648 60.05 29.5066 59.9466 29.542 59.8949L29.6306 60.0845Z" fill="#9EF8FF"/>
<path d="M39.4466 54.5854C39.4466 55.0853 39.0745 55.3266 38.7378 55.7404C38.5961 55.5507 38.7378 55.3784 38.7378 55.137C38.7378 54.8612 38.9859 54.0337 39.8364 53.982C39.73 54.1717 39.4466 54.3613 39.4466 54.5854Z" fill="#9EF8FF"/>
<path d="M44.9037 52.7409C44.9037 52.9305 44.9037 53.1029 44.9037 53.2925C44.9037 53.4304 44.2835 53.7579 44.1063 53.7579C43.6811 53.7579 43.6279 53.3442 43.6279 53.0684C44 53.0167 44.2835 52.7409 44.6733 52.7064C44.5316 52.5168 44.3367 52.3788 44.3367 52.1547C44.3367 51.9306 44.7619 51.6893 44.7619 51.6893C44.9923 51.9651 45.0986 52.0513 45.2757 52.1547C45.2403 52.3788 44.9923 52.6891 44.9037 52.7409Z" fill="#9EF8FF"/>
<path d="M49.5462 92.4415C48.9261 92.769 48.6957 92.5276 48.3591 92.5276C47.9693 92.5276 47.0833 92.4415 46.5518 92.1656C47.6149 91.976 48.7489 92.2001 49.5462 92.4415Z" fill="#9EF8FF"/>
</svg>
