<svg width="91" height="65" viewBox="0 0 91 65" fill="none" xmlns="http://www.w3.org/2000/svg">
<path d="M49.7004 5.69276C49.3283 5.22732 48.4601 5.36523 48.3184 4.76188H49.7359C49.8245 4.79636 50.2674 4.62397 50.2674 4.62397C50.9762 4.38263 51.6849 4.43435 52.1102 4.26196C52.7658 3.93443 52.5 2.91736 53.1556 2.91736C53.4391 2.91736 53.5808 3.33107 53.5808 3.60689C53.5808 4.57225 52.5886 4.38263 52.5886 5.22732C51.7381 5.41694 51.3128 5.91686 50.3029 5.91686C50.108 5.91686 49.5055 5.58933 49.4524 5.45143L49.7004 5.69276Z" fill="#FFF490"/>
<path d="M54.4843 3.43452C53.9174 3.34833 53.9174 3.0208 54.006 2.55536C53.3858 2.27954 53.4744 1.77961 52.872 1.40036C52.4999 1.15902 52.1632 1.21074 52.0215 0.848724C52.9251 1.12454 53.3504 1.67618 53.8642 2.19334C54.254 2.55535 54.7678 2.46917 54.7678 3.10699C54.7678 3.21043 54.7147 3.34833 54.7678 3.43452C54.6793 3.43452 54.5729 3.52071 54.4843 3.43452Z" fill="#FFF490"/>
<path d="M57.6215 5.64106C57.0545 5.55486 56.8596 5.08943 56.9482 4.62399C57.2317 4.81362 58.2239 5.81345 58.2239 5.96859C58.2239 6.1065 58.029 6.3306 57.8873 6.3306C57.7455 6.3306 57.6038 6.14098 57.6038 6.00308C57.6215 5.88241 57.6215 5.77897 57.6215 5.64106Z" fill="#FFF490"/>
<path d="M66.87 11.5194C66.87 11.6056 66.8169 11.6918 66.87 11.7952C66.3916 11.7952 66.0727 11.1057 66.1082 10.8299C66.4802 11.054 66.87 11.1402 66.87 11.5194Z" fill="#FFF490"/>
<path d="M65.5768 10.7265C65.5237 10.7265 65.3819 10.8127 65.3465 10.8127C64.7795 10.8127 64.0176 10.623 64.0176 10.0714C64.7795 10.0886 65.2579 10.261 65.5768 10.7265Z" fill="#FFF490"/>
<path d="M65.6301 9.76109C65.1517 9.76109 64.3012 8.65779 64.248 8.29578C64.9213 8.64055 65.3997 9.07154 65.6301 9.76109Z" fill="#FFF490"/>
<path d="M61.5543 7.17529C61.9795 7.39939 62.9363 7.6752 63.2198 8.10616C63.1312 8.15788 62.9895 8.19236 62.83 8.19236C62.4579 8.19236 61.3594 7.83035 61.3594 7.31319H61.448L61.5543 7.17529Z" fill="#FFF490"/>
<path d="M59.2334 6.02026C59.7473 6.38229 60.0839 6.24438 60.3675 6.65813H59.9422L59.2334 6.19266C59.2866 6.19266 59.4638 6.19266 59.4638 6.14094L59.2334 6.02026Z" fill="#FFF490"/>
<path d="M45.5197 54.7195C46.1398 54.7195 46.9372 54.4437 47.6105 54.254C47.7523 54.8057 48.1421 55.0815 48.1421 55.6331C48.1421 56.6502 46.8663 59.0981 45.9095 59.0981C44.492 59.0981 42.915 55.6848 42.915 54.7195C42.915 53.9782 45.4665 54.7195 45.5197 54.7195Z" fill="#FFF490"/>
<path d="M48.0352 53.0128C48.0352 53.4783 47.9466 53.5645 47.8935 53.7886C47.4682 53.6507 47.415 53.3749 47.415 53.0128C47.6454 53.0473 47.8935 53.0473 48.0352 53.0128Z" fill="#FFF490"/>
<path d="M33.6655 47.0138C33.1517 47.3413 32.4253 47.4275 32 47.0138C32.9037 46.5828 32.9922 46.6862 33.6655 47.0138Z" fill="#FFF490"/>
<path d="M53.8294 31.2577C54.5913 32.223 55.052 34.7227 55.052 36.1018C55.052 37.1188 54.7685 38.5496 54.3433 38.9634V40.2563C54.0952 40.6183 54.2547 40.8079 54.0066 41.1871C53.1561 42.48 52.2879 42.9455 51.8272 44.4108C51.4551 45.5141 50.4452 46.9621 50.4452 48.5653V48.4791C49.9313 50.5995 46.0332 49.6341 45.6611 51.8406C45.289 51.7889 43.34 50.7374 43.2868 50.4615C42.206 50.5477 42.5781 51.4786 41.3909 51.4786C39.5482 51.4786 36.5006 50.2892 36.5006 48.3929C36.5006 47.7034 35.8804 47.1517 35.8272 46.5484C35.8272 46.5484 35.7741 46.3587 35.7741 46.3243C35.4374 46.5139 35.2071 46.5484 34.835 46.6518H34.268C34.4098 46.376 34.6047 46.1002 34.6047 45.6347C34.6047 45.0831 34.3212 44.8935 34.1263 44.7038C34.1263 44.8417 34.0377 45.0314 34.0377 45.1693C33.6124 45.3589 33.5593 46.1864 32.8505 46.1864C32.6024 46.1864 32.3721 45.945 32.3721 45.7209C33.5592 45.4796 33.7896 43.0834 33.7542 42.3938C32.9037 43.2213 31.7165 45.6347 30.7065 45.6347C30.1395 45.6347 30.3345 44.8073 30.3345 44.8073C29.9978 44.8073 28.9524 42.549 28.5803 42.0318C27.8184 41.101 25.0188 40.6528 23.4596 40.6528C21.7586 40.6528 21.4219 41.394 20.3765 41.7043C17.9491 42.4973 14.9723 41.6526 14.5825 44.0143C13.5903 44.1005 12.7752 44.3418 11.7298 44.3418C10.9679 43.9798 10.9679 44.3418 10.4009 44.3418C8.73536 44.3418 8.02659 45.8588 5.90035 45.8588C5.10301 45.8588 2.81731 44.8935 2.81731 44.2384C2.81731 43.5489 3.89815 43.2213 3.89815 42.1698C3.89815 40.8251 3.18939 40.0839 2.94133 39.2564C2.37433 37.2223 2.23258 36.5844 1.61243 34.7744C1.38208 34.0848 0.425286 33.8435 0.655629 33.1539C0.761941 32.9643 0.797385 32.7919 0.939135 32.5506C1.02773 32.7747 1.22262 33.016 1.36437 33.1539C1.50612 32.9643 1.36437 32.7919 1.36437 32.5506C1.36437 31.861 0.797382 31.3094 0.797382 30.1544C0.797382 28.7753 0.797382 28.6719 0.797382 27.4824C0.797382 27.1032 1.13403 27.017 1.31121 26.9308C1.36437 27.0687 1.36437 27.2583 1.36437 27.3962C2.26802 27.31 3.34886 26.1551 3.88042 25.6379C4.44742 25.0863 6.16614 24.9828 7.06979 24.8449C8.77079 24.5691 12.6689 23.2762 12.6689 21.7075C12.6689 21.4316 12.6689 21.2076 12.6689 20.9317C12.6689 20.4663 12.8106 20.0009 13.289 19.7767C13.5371 20.1905 13.8029 20.3801 13.9978 20.7076C14.5294 20.3801 14.2813 19.6905 14.5294 19.1906C14.9015 19.3803 15.1495 19.5526 15.5216 19.5526C15.5216 18.2597 16.4784 18.0701 16.567 17.0186C17.8428 17.0186 18.0908 16.0877 19.0831 16.0877C19.9336 16.0877 20.412 17.0186 20.5006 17.846C20.7309 17.5185 21.1207 17.3461 21.546 17.3461C21.7763 17.3461 22.1661 17.6736 22.2547 17.7081C22.5382 17.2944 22.3965 16.9668 22.3965 16.5531C22.3965 15.9153 23.1052 15.5878 23.1052 14.9327C23.1052 14.2949 25.0011 13.8639 25.8162 13.8639C26.1528 13.8639 26.5249 13.5881 26.6667 13.5364C26.3832 13.1226 25.9048 12.9847 25.8162 12.4676C27.4286 13.1226 28.3854 13.7605 30.0864 13.7605C30.7065 13.7605 30.9015 13.3984 31.4153 13.3984C31.6988 13.3984 32.3544 13.8639 32.3544 14.2259C32.3544 14.8293 31.6456 14.8637 31.2558 15.1395L30.6888 17.4495C30.6888 17.8115 31.3621 17.7253 31.6456 17.915C31.9291 18.1046 31.9291 18.7941 32.124 18.8459C33.3998 19.3113 34.1263 19.5354 35.2957 20.0008C35.969 20.2249 36.1993 21.242 37.103 21.242C38.5736 21.242 38.8572 18.5183 39.0875 17.4668V13.3123C39.8494 12.7606 39.6013 12.1573 40.4164 11.7435C40.5581 12.9847 41.1783 13.8122 41.4618 14.7086C41.6567 15.3464 41.4086 16.1739 41.9402 16.5531C42.4186 16.691 43.3222 16.9668 43.4994 17.053C44.0664 17.415 44.0664 18.8976 44.3145 19.6388C44.7398 20.88 45.1118 21.4834 45.5017 22.6384C45.8738 23.7416 47.9114 24.1554 48.7264 24.9483C49.2934 25.5 49.3821 26.3791 49.577 27.017C49.7719 27.6203 50.516 27.6203 51.1362 27.6203C51.1362 29.4649 52.9435 30.2406 53.8294 31.1198V31.2577Z" fill="#FFF491"/>
<path d="M78.6706 57.0122C78.6706 57.0122 78.6706 56.6847 78.7237 56.5468C78.9187 56.1848 79.2022 56.0814 79.5743 56.0296C79.5743 55.9434 79.6274 55.84 79.6274 55.7538C79.6274 55.0643 80.3361 54.4092 80.7614 54.2368C80.7614 54.5471 80.9563 54.7023 81.0981 54.7023C81.0981 55.0298 81.0449 55.3401 81.3284 55.3401C81.6651 55.3401 81.8954 55.0126 82.1258 54.9264C82.1789 55.0643 82.3206 55.116 82.4624 55.116C82.4624 55.478 82.551 55.7193 82.7459 55.8055C82.6041 56.4089 81.6473 58.1155 80.8854 58.1155C80.7437 58.8051 80.974 58.9947 80.8854 59.5463C80.6551 59.5463 79.5034 59.7877 79.1313 59.7877C78.9895 60.3393 77.6606 63.0113 77.6606 63.0113C77.2354 63.425 76.3849 64.1146 75.8533 64.1146C75.6584 64.1146 75.0914 63.8905 74.8079 63.8905C74.5244 63.8905 72.6639 63.2009 72.6639 62.9768C72.5754 62.9768 72.4336 62.8906 72.4336 62.7872C72.4336 61.5977 73.8511 60.9426 74.3295 60.2531C74.5244 59.9256 74.7547 59.6498 75.0914 59.6498C76.2254 59.6498 76.9342 58.4948 77.7492 58.1328C78.015 58.0293 78.6706 57.0122 78.6706 57.0122Z" fill="#FFF490"/>
<path d="M83.277 48.8928C83.1352 48.5308 82.7631 48.3929 82.7631 48.0136C82.7631 47.8757 82.8517 47.6861 82.9048 47.5482C81.8063 47.3586 81.1507 45.8416 80.8672 44.7383C81.381 45.514 82.1961 45.5657 82.6745 46.0312C82.958 46.307 82.958 46.6345 83.2415 46.7724C83.1883 46.9104 83.0466 46.9621 83.0466 47.1C83.0466 47.3241 83.6136 48.3412 83.8616 48.5653H84.1452C84.1452 48.2894 84.34 48.0998 84.5704 48.0998C84.659 48.0998 84.7653 48.0998 84.8539 48.0998C84.8539 49.3065 85.4741 49.9961 86.6081 49.9961C87.5117 49.9961 87.4585 49.5306 88.2204 49.5306C88.3622 49.5306 88.5039 49.6685 88.6102 49.8064C87.9369 50.4443 88.1318 51.4269 87.6711 52.1164L87.4763 51.8751C87.4231 51.8751 87.3876 52.013 87.3345 52.013C86.8561 52.1164 86.3777 52.2371 86.3777 52.6163C86.3777 52.7542 86.5726 52.9439 86.5726 53.0818C86.5726 53.4093 86.0056 53.8748 85.8993 54.0127C85.4209 54.7022 85.1374 55.6331 84.1452 55.6331C83.7199 55.6331 83.4364 55.409 83.4364 55.0298C83.4364 54.4781 84.0034 54.254 84.0034 53.6851C84.0034 52.7543 82.2492 53.1335 82.2492 52.306C82.2492 51.8406 82.6745 51.7889 82.9226 51.5648C83.401 51.0994 83.4896 50.4615 83.4896 49.7547C83.4896 49.3927 83.2946 48.8756 83.2415 48.6859H83.2946V48.8928H83.277Z" fill="#FFF490"/>
<path d="M87.7781 20.518C87.9199 20.7421 88.1148 20.88 88.3451 20.9317V21.4834C88.0616 21.7592 88.0616 21.673 87.6895 21.673C87.2997 21.673 86.6973 21.5868 86.6973 21.3972C86.6973 20.7938 87.3529 20.6559 87.7781 20.518Z" fill="#FFF490"/>
<path d="M90.0644 19.1734C90.0644 19.3113 90.0644 19.4492 90.0644 19.5871C89.4974 19.725 89.3557 20.1904 88.8773 20.1904C88.7355 20.1904 88.5938 19.9146 88.5938 19.7767C88.5938 19.2251 89.7809 19.1734 90.0644 19.1734Z" fill="#FFF490"/>
<path fill-rule="evenodd" clip-rule="evenodd" d="M39.1406 1.38312C39.8316 1.6417 40.6467 1.81408 41.3023 1.81408C41.8693 1.81408 42.1528 2.45191 42.7198 2.45191C42.7198 2.83116 43.1096 2.86564 43.3399 2.91736C44.8637 3.3828 44.8106 4.62398 45.9446 5.17562C46.423 5.39972 47.4152 4.8998 47.4152 5.91688C47.4152 6.4168 46.5116 6.24441 46.5116 6.65814C46.5116 6.88224 47.3266 7.67522 47.4152 7.76142C47.8936 8.22686 47.7873 8.55439 48.1771 9.10603C48.3189 9.33013 48.8859 9.57148 49.2225 9.57148C49.3643 9.57148 49.506 9.89901 49.5946 10.0886C49.6832 10.3127 49.9667 10.1404 50.1616 10.1748C50.4451 10.261 50.5337 10.5368 50.64 10.7265C50.7286 10.9506 51.4374 10.8644 51.5968 10.9161C51.3133 11.1057 50.9767 11.3298 50.9767 11.6574H50.6932C50.6046 11.6574 49.8781 11.1919 49.7895 11.1057H48.5492C47.8405 10.9678 46.7419 10.4679 46.7419 9.95072C46.7419 9.76109 46.3698 9.6749 46.2635 9.58871C45.3067 8.65782 44.4562 7.38216 42.897 7.38216C41.7098 7.38216 41.8161 8.20962 41.1428 8.53715C41.3377 9.1405 40.9125 9.33013 40.9125 9.64042H39.1052C38.2724 9.64042 37.8648 9.0026 37.2979 8.57163L39.1406 1.38312Z" fill="#FFF490"/>
</svg>
